{"glyphs":{"0":{"ha":778,"x_min":0,"x_max":0,"o":"m 389 -14 b 79 444 190 -14 79 156 b 389 906 79 735 190 906 b 699 444 589 906 699 735 b 389 -14 699 154 589 -14 m 389 60 b 615 444 539 60 615 201 b 389 829 615 688 539 829 b 163 444 240 829 163 690 b 389 60 163 200 240 60 "},"1":{"ha":460,"x_min":0,"x_max":0,"o":"m 72 697 b 56 707 61 690 56 694 l 56 754 b 65 771 56 761 58 767 l 250 885 b 268 890 257 889 264 890 l 318 890 b 332 876 328 890 332 886 l 332 14 b 318 0 332 4 328 0 l 265 0 b 251 14 256 0 251 4 l 251 804 "},"2":{"ha":710,"x_min":0,"x_max":0,"o":"m 194 79 l 625 79 b 639 65 635 79 639 75 l 639 14 b 625 0 639 4 635 0 l 89 0 b 75 14 79 0 75 4 l 75 53 b 82 69 75 60 78 65 l 417 424 b 538 658 497 507 538 585 b 353 831 538 760 463 831 b 165 696 254 831 186 775 b 149 686 163 688 157 685 l 97 693 b 86 710 88 694 85 700 b 354 906 114 826 219 906 b 546 838 433 906 497 883 b 619 661 594 793 619 735 b 478 379 619 557 574 478 "},"3":{"ha":754,"x_min":0,"x_max":0,"o":"m 383 546 b 592 467 469 544 539 518 b 672 269 646 415 672 350 b 588 65 672 186 644 118 b 372 -14 531 13 460 -14 b 171 56 292 -14 225 10 b 82 242 118 103 89 165 b 93 258 81 251 85 257 l 147 267 b 163 254 157 268 163 264 b 372 58 169 138 256 58 b 529 118 436 58 489 78 b 590 272 569 158 590 210 b 417 474 590 383 521 457 b 322 479 392 478 360 479 l 310 479 b 294 490 303 479 297 483 l 279 528 b 283 547 276 535 278 542 l 549 817 l 150 817 b 136 831 140 817 136 821 l 136 876 b 150 890 136 886 140 890 l 625 890 b 639 876 635 890 639 886 l 639 813 b 632 796 639 806 636 800 "},"4":{"ha":813,"x_min":0,"x_max":0,"o":"m 590 344 l 735 344 b 749 331 744 344 749 340 l 749 288 b 735 274 749 278 744 274 l 590 274 l 590 14 b 576 0 590 4 586 0 l 526 0 b 513 14 517 0 513 4 l 513 274 l 78 274 b 64 288 68 274 64 278 l 64 329 b 69 347 64 336 65 343 l 469 882 b 488 890 474 888 479 890 l 576 890 b 590 876 586 890 590 886 m 157 344 l 513 344 l 513 824 "},"5":{"ha":757,"x_min":0,"x_max":0,"o":"m 388 561 b 593 481 471 561 539 535 b 675 275 647 428 675 360 b 589 65 675 189 646 119 b 374 -14 532 13 461 -14 b 83 224 218 -14 104 83 b 94 240 82 233 86 239 l 149 250 b 164 239 157 251 163 249 b 374 58 179 129 258 58 b 593 275 506 58 593 146 b 378 489 593 404 507 489 b 189 406 300 489 228 457 b 171 397 183 399 178 396 l 118 407 b 107 424 110 408 106 414 l 192 878 b 207 890 193 886 199 890 l 636 890 b 650 876 646 890 650 886 l 650 831 b 636 817 650 821 646 817 l 258 817 l 201 499 b 388 561 249 540 311 561 "},"6":{"ha":750,"x_min":0,"x_max":0,"o":"m 389 569 b 601 489 475 569 546 543 b 685 282 657 435 685 367 b 597 69 685 196 656 125 b 375 -14 539 14 465 -14 b 161 67 288 -14 215 13 b 79 278 107 121 79 190 b 97 392 79 315 85 354 b 132 478 110 431 122 460 b 176 550 143 497 158 521 l 390 881 b 407 890 394 888 400 890 l 467 890 b 475 874 478 890 481 883 l 253 536 b 389 569 290 558 335 569 m 376 60 b 539 122 443 60 497 81 b 603 282 582 165 603 218 b 542 438 603 346 582 397 b 386 497 501 478 449 497 b 224 436 321 497 267 476 b 160 276 181 396 160 342 b 376 60 160 149 249 60 "},"7":{"ha":642,"x_min":0,"x_max":0,"o":"m 44 876 b 58 890 44 886 49 890 l 583 890 b 597 876 593 890 597 886 l 597 832 b 593 815 597 828 596 822 l 221 10 b 206 0 218 3 213 0 l 146 0 b 135 17 133 0 131 6 l 506 817 l 58 817 b 44 831 49 817 44 821 "},"8":{"ha":765,"x_min":0,"x_max":0,"o":"m 524 472 b 688 240 625 439 688 347 b 601 56 688 164 658 103 b 385 -14 544 10 472 -14 b 165 56 297 -14 224 10 b 78 242 107 103 78 165 b 243 472 78 349 143 435 b 110 678 160 511 110 588 b 186 842 110 746 135 800 b 383 906 238 885 303 906 b 579 842 464 906 529 885 b 654 676 629 799 654 744 b 524 472 654 586 606 510 m 189 672 b 385 511 189 578 264 511 b 575 671 497 511 575 576 b 382 831 575 769 499 831 b 189 672 265 831 189 768 m 383 60 b 607 247 511 60 607 132 b 383 431 607 363 513 431 b 160 249 256 431 160 364 b 225 110 160 190 182 144 b 383 60 268 76 321 60 "},"9":{"ha":768,"x_min":0,"x_max":0,"o":"m 688 613 b 668 499 688 575 681 536 b 633 413 656 461 644 432 b 589 340 624 393 608 369 l 375 10 b 358 0 371 3 365 0 l 299 0 b 290 17 288 0 285 10 l 513 354 b 376 319 474 331 428 319 b 164 400 290 319 219 346 b 81 607 108 454 81 524 b 168 821 81 694 110 765 b 389 906 226 878 300 906 b 604 824 478 906 550 878 b 688 613 660 769 688 700 m 163 608 b 381 394 163 481 253 394 b 542 456 446 394 500 415 b 606 614 585 496 606 549 b 388 829 606 743 517 829 b 225 765 321 829 267 808 b 163 608 183 724 163 671 "},"\r":{"ha":349,"x_min":0,"x_max":0,"o":""}," ":{"ha":331,"x_min":0,"x_max":0,"o":""},"!":{"ha":374,"x_min":0,"x_max":0,"o":"m 210 301 b 196 288 210 292 206 288 l 179 288 b 165 301 169 288 165 292 l 139 876 b 153 890 139 886 143 890 l 222 890 b 236 876 232 890 236 886 m 188 -15 b 108 63 143 -15 108 19 b 188 140 108 107 143 140 b 265 63 231 140 265 107 b 188 -15 265 19 231 -15 "},"\"":{"ha":369,"x_min":0,"x_max":0,"o":"m 56 851 b 97 907 51 885 68 907 b 136 851 128 907 140 889 l 113 600 b 97 586 111 590 107 586 l 93 586 b 78 600 83 586 79 590 m 232 851 b 275 907 229 889 243 907 b 314 851 306 907 318 889 l 290 600 b 275 586 289 590 285 586 l 271 586 b 256 600 261 586 257 590 "},"#":{"ha":840,"x_min":0,"x_max":0,"o":"m 768 560 b 753 547 767 551 763 547 l 632 547 l 590 343 l 714 343 b 726 328 724 343 728 338 l 718 279 b 703 267 717 271 713 267 l 575 267 l 525 13 b 510 0 524 4 518 0 l 460 0 b 447 15 450 0 446 6 l 497 267 l 271 267 l 221 13 b 206 0 219 4 215 0 l 157 0 b 144 15 147 0 143 6 l 194 267 l 76 267 b 64 282 67 267 63 272 l 72 331 b 86 343 74 339 79 343 l 210 343 l 249 547 l 110 547 b 97 563 100 547 96 553 l 106 611 b 119 624 107 619 113 624 l 264 624 l 314 878 b 329 890 315 886 321 890 l 379 890 b 392 875 389 890 393 885 l 342 624 l 569 624 l 619 878 b 635 890 621 886 626 890 l 685 890 b 697 875 694 890 699 885 l 647 624 l 764 624 b 776 608 774 624 778 618 m 513 343 l 554 547 l 326 547 l 286 343 "},"$":{"ha":801,"x_min":0,"x_max":0,"o":"m 683 229 b 399 -15 683 85 578 -6 l 399 -112 b 385 -126 399 -122 394 -126 l 354 -126 b 340 -112 344 -126 340 -122 l 340 -14 b 65 78 231 -8 139 22 b 63 97 58 83 58 90 l 88 136 b 107 139 92 144 99 146 b 369 54 175 82 263 54 b 599 226 518 54 599 117 b 531 358 599 286 576 331 b 417 408 486 386 467 393 l 338 431 b 199 482 276 447 250 456 b 83 668 126 517 89 572 b 340 906 83 803 183 894 l 340 1008 b 354 1022 340 1018 344 1022 l 385 1022 b 399 1008 394 1022 399 1018 l 399 907 b 651 822 499 900 583 872 b 654 803 657 818 658 811 l 631 763 b 613 760 626 753 619 753 b 371 836 543 811 463 836 b 167 669 243 836 167 769 b 357 503 167 574 231 536 l 435 482 b 592 414 497 465 535 451 b 683 229 651 376 683 313 "},"%":{"ha":1057,"x_min":0,"x_max":0,"o":"m 436 590 b 301 540 400 557 356 540 b 165 590 247 540 203 557 b 111 724 129 625 111 669 b 165 856 111 778 129 822 b 301 907 203 890 247 907 b 436 856 356 907 400 890 b 492 724 474 822 492 778 b 436 590 492 669 474 625 m 267 -6 b 249 -10 263 -12 256 -14 l 214 13 b 210 31 207 17 206 24 l 790 896 b 808 900 794 903 801 904 l 843 878 b 847 860 850 874 851 867 m 211 636 b 301 603 235 614 264 603 b 390 636 339 603 368 614 b 425 724 414 658 425 688 b 390 811 425 760 414 789 b 301 846 368 835 339 846 b 211 811 264 846 235 835 b 178 724 189 789 178 760 b 211 636 178 688 189 658 m 890 33 b 756 -17 854 0 810 -17 b 619 33 701 -17 657 0 b 565 167 583 68 565 113 b 619 299 565 221 583 265 b 756 350 657 333 701 350 b 890 299 810 350 854 333 b 946 167 928 265 946 221 b 890 33 946 113 928 68 m 665 79 b 756 46 689 57 718 46 b 844 79 793 46 822 57 b 879 167 868 101 879 131 b 844 254 879 203 868 232 b 756 288 822 276 793 288 b 665 254 718 288 689 276 b 632 167 643 232 632 203 b 665 79 632 131 643 101 "},"&":{"ha":932,"x_min":0,"x_max":0,"o":"m 857 15 b 850 -1 867 4 864 -1 l 774 -1 b 757 6 767 -1 761 1 l 664 104 b 382 -14 596 25 501 -14 b 100 217 211 -14 100 76 b 151 363 100 279 122 329 b 190 400 168 381 172 385 b 208 415 200 408 206 414 b 243 442 214 421 242 440 l 303 486 l 263 529 b 171 717 201 594 171 657 b 385 907 171 828 258 907 b 590 719 506 907 590 832 b 481 528 590 650 554 586 l 418 481 l 658 226 b 690 472 685 289 694 371 b 703 486 689 482 693 486 l 846 486 b 860 472 856 486 860 482 l 860 431 b 846 417 860 421 856 417 l 765 417 b 714 168 767 318 749 235 m 254 714 b 268 654 254 693 258 674 b 332 572 286 617 294 611 l 369 533 l 419 572 b 457 604 438 586 450 597 b 507 715 474 619 507 667 b 381 836 507 788 458 836 b 254 714 304 836 254 786 m 388 61 b 614 158 482 61 557 93 l 353 433 l 286 383 l 240 346 b 186 221 218 328 186 276 b 388 61 186 119 264 61 "},"'":{"ha":192,"x_min":0,"x_max":0,"o":"m 56 851 b 97 907 51 885 68 907 b 136 851 128 907 140 889 l 113 600 b 97 586 111 590 107 586 l 93 586 b 78 600 83 586 79 590 "},"(":{"ha":313,"x_min":0,"x_max":0,"o":"m 301 -237 b 292 -254 308 -249 304 -254 l 249 -254 b 232 -246 242 -254 236 -251 b 67 322 131 -96 67 115 b 110 625 67 424 81 525 b 232 889 139 726 181 814 b 249 897 236 894 242 897 l 292 897 b 301 881 304 897 308 892 b 149 322 208 742 149 535 b 189 17 149 218 163 115 b 301 -237 217 -82 254 -167 "},")":{"ha":311,"x_min":0,"x_max":0,"o":"m 21 -254 b 11 -237 8 -254 4 -249 b 164 322 106 -94 164 113 b 122 626 164 426 150 528 b 11 881 94 726 57 811 b 21 897 4 892 8 897 l 63 897 b 79 889 69 897 75 894 b 201 625 131 814 172 726 b 246 322 231 525 246 424 b 79 -246 246 115 183 -96 b 63 -254 75 -251 69 -254 "},"*":{"ha":504,"x_min":0,"x_max":0,"o":"m 285 701 b 381 657 319 689 351 675 l 435 625 b 440 606 443 621 444 614 l 428 585 b 408 579 422 575 415 574 l 354 613 b 268 674 319 633 292 653 b 278 568 275 647 278 611 l 278 504 b 264 490 278 494 274 490 l 239 490 b 225 504 229 490 225 494 l 225 568 b 236 674 225 597 229 633 b 150 613 217 656 188 635 l 96 579 b 76 585 89 574 82 575 l 64 606 b 69 625 60 614 61 621 l 124 657 b 221 701 158 678 192 692 b 124 744 194 708 163 724 l 69 776 b 64 796 61 781 60 788 l 76 817 b 96 822 82 826 89 828 l 150 789 b 236 728 188 767 217 746 b 225 833 229 768 225 804 l 225 897 b 239 911 225 907 229 911 l 264 911 b 278 897 274 911 278 907 l 278 833 b 268 728 278 790 275 754 b 354 789 292 749 319 768 l 408 822 b 428 817 415 828 422 826 l 440 796 b 435 776 444 788 443 781 l 381 744 b 285 701 343 724 311 710 "},"+":{"ha":935,"x_min":0,"x_max":0,"o":"m 733 456 b 747 442 743 456 747 451 l 747 404 b 733 390 747 394 743 390 l 503 390 l 503 156 b 489 142 503 146 499 142 l 446 142 b 432 156 436 142 432 146 l 432 390 l 203 390 b 189 404 193 390 189 394 l 188 442 b 201 456 188 451 192 456 l 432 456 l 432 689 b 446 703 432 699 436 703 l 489 703 b 503 689 499 703 503 699 l 503 456 "},",":{"ha":293,"x_min":0,"x_max":0,"o":"m 232 63 b 189 -36 232 42 218 8 l 107 -160 b 89 -164 103 -167 96 -168 l 67 -150 b 63 -131 58 -146 57 -139 l 154 -3 b 131 -7 146 -6 138 -7 b 60 67 92 -7 60 22 b 144 149 60 115 94 149 b 232 63 194 149 232 117 "},"-":{"ha":657,"x_min":0,"x_max":0,"o":"m 92 350 b 106 364 92 360 96 364 l 551 364 b 565 350 561 364 565 360 l 565 301 b 551 288 565 292 561 288 l 106 288 b 92 301 96 288 92 292 "},".":{"ha":256,"x_min":0,"x_max":0,"o":"m 128 -15 b 49 60 82 -15 49 19 b 128 138 49 104 82 138 b 206 60 172 138 206 104 b 128 -15 206 19 172 -15 "},"/":{"ha":511,"x_min":0,"x_max":0,"o":"m 58 0 b 49 17 47 0 44 6 l 385 881 b 400 892 388 888 393 892 l 453 892 b 463 875 464 892 467 886 l 125 11 b 110 0 122 4 117 0 "},":":{"ha":526,"x_min":0,"x_max":0,"o":"m 264 463 b 188 536 225 463 188 497 b 317 589 185 600 275 642 b 264 463 364 542 329 463 m 188 68 b 264 143 188 107 224 143 b 339 68 304 143 339 107 b 264 -7 339 28 304 -7 b 188 68 224 -7 188 28 "},";":{"ha":556,"x_min":0,"x_max":0,"o":"m 278 463 b 203 536 239 463 203 497 b 331 589 203 601 285 638 b 278 463 381 542 344 463 m 279 149 b 367 63 329 149 367 117 b 324 -36 367 39 353 6 l 242 -161 b 224 -164 238 -168 231 -169 l 201 -150 b 197 -131 193 -146 192 -139 l 289 -3 b 267 -7 282 -6 274 -7 b 196 67 228 -7 196 21 b 279 149 196 115 231 149 "},"<":{"ha":518,"x_min":0,"x_max":0,"o":"m 53 261 b 43 278 46 265 43 271 l 43 336 b 53 353 43 343 46 349 l 442 583 b 458 574 453 590 458 586 l 458 519 b 449 503 458 513 456 507 l 117 307 l 449 110 b 458 93 456 106 458 100 l 458 40 b 442 31 458 28 453 24 "},"=":{"ha":729,"x_min":0,"x_max":0,"o":"m 149 561 b 163 575 149 571 153 575 l 567 575 b 581 561 576 575 581 571 l 581 517 b 567 503 581 507 576 503 l 163 503 b 149 517 153 503 149 507 m 149 299 b 163 313 149 308 153 313 l 567 313 b 581 299 576 313 581 308 l 581 253 b 567 239 581 243 576 239 l 163 239 b 149 253 153 239 149 243 "},">":{"ha":521,"x_min":0,"x_max":0,"o":"m 76 31 b 60 40 65 24 60 28 l 60 93 b 69 110 60 100 63 106 l 401 307 l 69 503 b 60 519 63 507 60 513 l 60 574 b 76 583 60 586 65 590 l 465 353 b 475 336 472 349 475 343 l 475 278 b 465 261 475 271 472 265 "},"?":{"ha":554,"x_min":0,"x_max":0,"o":"m 272 251 b 100 407 168 251 100 313 b 157 531 100 458 118 501 b 268 597 196 563 217 574 b 403 733 374 646 403 679 b 283 839 403 801 354 839 b 149 736 206 839 153 796 b 133 724 149 726 143 722 l 85 732 b 72 747 75 733 71 739 b 283 906 85 840 167 906 b 482 733 404 906 482 840 b 324 546 482 649 431 596 l 286 528 b 221 493 247 511 247 510 b 175 410 189 472 175 450 b 275 317 175 353 215 317 b 382 419 342 317 381 358 b 396 432 382 429 386 433 l 443 425 b 456 410 451 424 456 418 b 272 251 450 314 379 251 m 289 -14 b 214 58 249 -14 214 18 b 289 132 214 99 249 132 b 367 57 332 132 367 97 b 289 -14 367 18 332 -14 "},"@":{"ha":1329,"x_min":0,"x_max":0,"o":"m 671 906 b 1086 749 840 906 979 853 b 1249 350 1194 644 1249 511 b 1011 26 1249 154 1156 26 b 835 188 907 26 839 93 b 640 72 803 115 729 72 b 463 143 567 72 508 96 b 396 331 418 192 396 254 b 646 592 396 486 496 592 b 840 476 733 592 811 547 l 844 565 b 858 579 844 575 849 579 l 889 579 b 903 565 899 579 903 575 l 903 203 b 1011 85 903 132 949 85 b 1178 342 1113 85 1178 182 b 1036 700 1178 488 1131 607 b 669 839 942 793 819 839 b 294 696 517 839 392 792 b 150 329 199 600 150 478 b 296 -39 150 178 199 56 b 665 -182 393 -135 517 -182 b 940 -110 769 -182 861 -158 b 960 -115 949 -106 956 -108 l 979 -151 b 974 -171 985 -160 983 -167 b 665 -249 881 -222 778 -249 b 247 -87 497 -249 357 -194 b 82 329 138 19 82 158 b 247 744 82 500 138 638 b 671 906 357 851 499 906 m 650 533 b 463 332 535 533 463 449 b 514 183 463 271 479 221 b 647 128 549 146 593 128 b 779 185 701 128 746 147 b 831 333 814 222 831 272 b 650 533 831 456 757 533 "},"A":{"ha":886,"x_min":0,"x_max":0,"o":"m 792 0 b 776 11 785 0 779 4 l 675 250 l 208 250 l 106 11 b 90 0 103 4 97 0 l 35 0 b 24 17 22 0 19 6 l 394 879 b 410 890 397 886 403 890 l 472 890 b 488 879 479 890 485 886 l 861 17 b 850 0 865 6 863 0 m 238 319 l 646 319 l 442 800 "},"B":{"ha":786,"x_min":0,"x_max":0,"o":"m 571 450 b 726 235 667 421 726 340 b 457 0 726 90 624 0 l 124 0 b 110 14 114 0 110 4 l 110 876 b 124 890 110 886 114 890 l 447 890 b 704 657 603 890 704 797 b 571 450 704 561 660 493 m 185 817 l 185 479 l 421 479 b 621 646 547 479 621 544 b 433 817 621 753 549 817 m 447 74 b 643 242 576 74 643 138 b 444 411 643 354 568 411 l 185 411 l 185 74 "},"C":{"ha":951,"x_min":0,"x_max":0,"o":"m 60 446 b 181 778 60 582 100 693 b 499 907 263 864 368 907 b 888 682 676 907 826 819 b 881 664 892 675 889 668 l 828 639 b 810 647 819 635 814 638 b 497 832 765 754 643 832 b 240 725 393 832 307 796 b 142 446 175 654 142 561 b 240 164 142 329 175 235 b 497 58 307 93 393 58 b 810 243 643 58 765 136 b 828 251 814 253 819 256 l 881 226 b 888 208 889 222 892 215 b 499 -17 826 71 676 -17 b 181 111 368 -17 263 26 b 60 446 100 197 60 308 "},"D":{"ha":882,"x_min":0,"x_max":0,"o":"m 374 890 b 697 767 507 890 615 849 b 822 444 781 685 822 576 b 699 122 822 313 781 204 b 374 0 617 40 508 0 l 124 0 b 110 14 114 0 110 4 l 110 876 b 124 890 110 886 114 890 m 372 75 b 636 176 482 75 569 108 b 738 444 704 244 738 335 b 636 713 738 554 704 644 b 372 815 569 781 482 815 l 189 815 l 189 75 "},"E":{"ha":715,"x_min":0,"x_max":0,"o":"m 642 828 b 628 814 642 818 638 814 l 189 814 l 189 481 l 586 481 b 600 467 596 481 600 476 l 600 425 b 586 411 600 415 596 411 l 189 411 l 189 75 l 628 75 b 642 61 638 75 642 71 l 642 14 b 628 0 642 4 638 0 l 124 0 b 110 14 114 0 110 4 l 110 876 b 124 890 110 886 114 890 l 628 890 b 642 876 638 890 642 886 "},"F":{"ha":701,"x_min":0,"x_max":0,"o":"m 658 829 b 644 815 658 819 654 815 l 190 815 l 190 535 l 644 535 b 658 521 654 535 658 531 l 658 478 b 644 464 658 468 654 464 l 190 464 l 190 14 b 176 0 190 4 186 0 l 125 0 b 111 14 115 0 111 4 l 111 876 b 125 890 111 886 115 890 l 644 890 b 658 876 654 890 658 886 "},"G":{"ha":983,"x_min":0,"x_max":0,"o":"m 321 451 b 335 465 321 461 325 465 l 911 465 b 925 451 921 465 925 461 l 925 403 b 806 99 925 278 885 176 b 497 -17 726 22 624 -17 b 179 108 365 -17 260 25 b 60 440 100 192 60 303 b 182 778 60 581 100 693 b 500 907 264 864 369 907 b 735 846 588 907 667 886 b 883 682 804 806 854 750 b 876 664 888 672 886 667 l 826 642 b 808 650 818 638 813 640 b 496 832 760 765 640 832 b 239 724 389 832 304 796 b 142 442 174 653 142 558 b 239 163 142 325 174 232 b 501 58 304 93 392 58 b 846 394 703 58 839 183 l 335 394 b 321 408 325 394 321 399 "},"H":{"ha":869,"x_min":0,"x_max":0,"o":"m 124 0 b 110 14 114 0 110 4 l 110 876 b 124 890 110 886 114 890 l 175 890 b 189 876 185 890 189 886 l 189 486 l 683 485 l 683 876 b 697 890 683 886 688 890 l 749 890 b 763 876 758 890 763 886 l 763 14 b 749 0 763 4 758 0 l 697 0 b 683 14 688 0 683 4 l 683 417 l 189 417 l 189 14 b 175 0 189 4 185 0 "},"I":{"ha":299,"x_min":0,"x_max":0,"o":"m 189 14 b 175 0 189 4 185 0 l 124 0 b 110 14 114 0 110 4 l 110 876 b 124 890 110 886 114 890 l 175 890 b 189 876 185 890 189 886 "},"J":{"ha":693,"x_min":0,"x_max":0,"o":"m 63 243 l 63 399 b 76 413 63 408 67 413 l 128 413 b 142 399 138 413 142 408 l 142 243 b 321 56 142 121 210 56 b 506 243 443 56 506 126 l 506 876 b 519 890 506 886 510 890 l 571 890 b 585 876 581 890 585 886 l 585 242 b 319 -17 585 81 481 -17 b 63 243 160 -17 63 86 "},"K":{"ha":821,"x_min":0,"x_max":0,"o":"m 774 890 b 782 874 785 890 789 883 l 443 504 l 779 17 b 769 0 785 10 781 0 l 701 0 b 685 8 694 0 689 3 l 385 439 l 190 226 l 190 14 b 176 0 190 4 186 0 l 124 0 b 110 14 114 0 110 4 l 110 876 b 124 890 110 886 114 890 l 176 890 b 190 876 186 890 190 886 l 190 335 l 690 883 b 707 890 694 888 700 890 "},"L":{"ha":594,"x_min":0,"x_max":0,"o":"m 190 74 l 549 74 b 563 60 558 74 563 69 l 563 14 b 549 0 563 4 558 0 l 124 0 b 110 14 114 0 110 4 l 110 876 b 124 890 110 886 114 890 l 176 890 b 190 876 186 890 190 886 "},"M":{"ha":1181,"x_min":0,"x_max":0,"o":"m 1131 15 b 1119 0 1132 6 1129 0 l 1064 0 b 1049 13 1054 0 1050 4 l 882 760 l 633 46 b 617 35 631 39 625 35 l 561 35 b 544 46 553 35 547 39 l 297 757 l 131 13 b 115 0 129 4 124 0 l 61 0 b 50 15 51 0 49 6 l 247 878 b 263 890 249 886 254 890 l 317 890 b 333 879 325 890 331 886 l 590 133 l 849 879 b 865 890 851 886 857 890 l 918 890 b 933 878 926 890 932 886 "},"N":{"ha":879,"x_min":0,"x_max":0,"o":"m 689 876 b 703 890 689 886 693 890 l 757 890 b 771 876 767 890 771 886 l 771 14 b 757 0 771 4 767 0 l 700 0 b 683 8 693 0 688 3 l 190 753 l 190 14 b 176 0 190 4 186 0 l 124 0 b 110 14 114 0 110 4 l 110 876 b 124 890 110 886 114 890 l 179 890 b 196 882 186 890 192 888 l 689 136 "},"O":{"ha":1018,"x_min":0,"x_max":0,"o":"m 510 907 b 829 775 636 907 743 863 b 960 444 917 688 960 578 b 829 114 960 311 917 201 b 510 -17 743 26 636 -17 b 189 114 383 -17 276 26 b 60 444 103 201 60 311 b 189 775 60 578 103 688 b 510 907 275 863 382 907 m 510 829 b 247 721 406 829 318 793 b 142 444 176 649 142 557 b 247 168 142 332 176 240 b 510 60 318 96 406 60 b 769 168 613 60 699 96 b 875 444 840 240 875 332 b 769 721 875 557 840 649 b 510 829 699 793 613 829 "},"P":{"ha":767,"x_min":0,"x_max":0,"o":"m 472 890 b 718 671 628 890 718 804 b 474 449 718 532 622 449 l 189 449 l 189 14 b 175 0 189 4 185 0 l 124 0 b 110 14 114 0 110 4 l 110 876 b 124 890 110 886 114 890 m 471 517 b 636 669 572 517 636 575 b 469 821 636 764 571 821 l 189 821 l 189 517 "},"Q":{"ha":1018,"x_min":0,"x_max":0,"o":"m 960 444 b 857 144 960 326 925 226 b 597 -8 789 63 703 11 l 822 -211 b 824 -231 829 -218 831 -225 l 785 -269 b 765 -269 778 -276 772 -276 l 518 -17 l 510 -17 b 189 114 383 -17 276 26 b 60 444 103 201 60 311 b 189 775 60 578 103 688 b 510 907 275 863 382 907 b 829 775 636 907 743 863 b 960 444 917 688 960 578 m 510 60 b 769 168 613 60 699 96 b 875 444 840 240 875 332 b 769 721 875 557 840 649 b 510 829 699 793 613 829 b 247 721 406 829 318 793 b 142 444 176 649 142 557 b 247 168 142 332 176 240 b 510 60 318 96 406 60 "},"R":{"ha":782,"x_min":0,"x_max":0,"o":"m 424 451 l 714 17 b 704 0 719 10 715 0 l 640 0 b 624 10 633 0 628 3 l 335 451 l 189 451 l 189 14 b 175 0 189 4 185 0 l 124 0 b 110 14 114 0 110 4 l 110 876 b 124 890 110 886 114 890 l 472 890 b 717 674 626 890 717 806 b 474 451 717 535 622 451 m 189 518 l 469 518 b 635 671 574 518 635 575 b 468 822 635 765 569 822 l 189 822 "},"S":{"ha":739,"x_min":0,"x_max":0,"o":"m 371 -15 b 65 78 249 -15 147 15 b 63 97 58 83 58 90 l 88 136 b 107 139 92 144 99 146 b 369 54 175 82 263 54 b 599 226 518 54 599 117 b 531 358 599 286 576 331 b 417 408 486 386 467 393 l 338 431 b 199 482 276 447 250 456 b 83 668 126 517 89 572 b 375 907 83 813 199 907 b 651 822 474 907 581 874 b 654 803 657 818 658 811 l 631 763 b 613 760 626 753 619 753 b 371 836 543 811 463 836 b 167 669 243 836 167 769 b 357 503 167 574 231 536 l 435 482 b 592 414 497 465 535 451 b 683 229 651 376 683 313 b 371 -15 683 78 567 -15 "},"T":{"ha":675,"x_min":0,"x_max":0,"o":"m 643 890 b 657 876 653 890 657 886 l 657 829 b 643 815 657 819 653 815 l 379 815 l 379 14 b 365 0 379 4 375 0 l 313 0 b 299 14 303 0 299 4 l 299 815 l 32 815 b 18 829 22 815 18 819 l 18 876 b 32 890 18 886 22 890 "},"U":{"ha":864,"x_min":0,"x_max":0,"o":"m 99 299 l 99 876 b 113 890 99 886 103 890 l 167 890 b 181 876 176 890 181 886 l 181 300 b 254 114 182 213 206 151 b 433 60 303 78 363 60 b 611 118 504 60 563 79 b 685 300 660 157 685 218 l 685 876 b 699 890 685 886 689 890 l 751 890 b 765 876 761 890 765 886 l 765 299 b 669 63 765 194 733 115 b 433 -17 606 10 526 -17 b 99 299 272 -17 99 64 "},"V":{"ha":940,"x_min":0,"x_max":0,"o":"m 19 874 b 29 890 15 885 18 890 l 90 890 b 106 881 97 890 103 888 l 471 92 l 835 881 b 850 890 838 888 843 890 l 911 890 b 922 874 924 890 926 885 l 518 10 b 503 0 515 3 510 0 l 440 0 b 425 10 433 0 428 3 "},"W":{"ha":1456,"x_min":0,"x_max":0,"o":"m 1340 879 b 1357 890 1343 886 1349 890 l 1418 890 b 1429 874 1428 890 1432 885 l 1106 11 b 1090 0 1103 4 1097 0 l 1038 0 b 1022 11 1031 0 1025 4 l 726 761 l 433 11 b 418 0 431 4 425 0 l 363 0 b 347 11 356 0 350 4 l 26 874 b 38 890 24 885 28 890 l 97 890 b 114 879 106 890 111 886 l 393 117 l 683 856 b 699 867 686 863 692 867 l 757 867 b 772 856 764 867 769 863 l 1061 118 "},"X":{"ha":763,"x_min":0,"x_max":0,"o":"m 39 -1 b 31 15 28 -1 24 6 l 331 444 l 31 874 b 39 890 24 883 28 890 l 99 890 b 115 882 106 890 111 888 l 381 499 l 650 882 b 667 890 654 888 660 890 l 724 890 b 732 874 735 890 739 883 l 432 444 l 732 15 b 724 -1 739 6 735 -1 l 665 -1 b 649 7 658 -1 653 1 l 381 386 l 114 7 b 97 -1 110 1 104 -1 "},"Y":{"ha":794,"x_min":0,"x_max":0,"o":"m 26 874 b 36 890 21 883 25 890 l 94 890 b 111 882 101 890 107 888 l 400 453 l 685 882 b 701 890 689 888 694 890 l 760 890 b 769 874 771 890 775 883 l 440 378 l 440 14 b 426 0 440 4 436 0 l 374 0 b 360 14 364 0 360 4 l 360 378 "},"Z":{"ha":797,"x_min":0,"x_max":0,"o":"m 74 0 b 60 14 64 0 60 4 l 60 51 b 65 69 60 58 61 65 l 619 815 l 96 815 b 82 829 86 815 82 819 l 82 876 b 96 890 82 886 86 890 l 710 890 b 724 876 719 890 724 886 l 724 840 b 718 822 724 833 722 826 l 167 75 l 724 75 b 738 61 733 75 738 71 l 738 14 b 724 0 738 4 733 0 "},"[":{"ha":313,"x_min":0,"x_max":0,"o":"m 292 -189 b 306 -203 301 -189 306 -193 l 306 -240 b 292 -254 306 -250 301 -254 l 76 -254 b 63 -240 67 -254 63 -250 l 63 882 b 76 896 63 892 67 896 l 292 896 b 306 882 301 896 306 892 l 306 843 b 292 829 306 833 301 829 l 135 829 l 135 -189 "},"\\":{"ha":429,"x_min":0,"x_max":0,"o":"m 422 17 b 413 0 426 6 424 0 l 361 0 b 346 11 354 0 349 4 l 7 874 b 17 890 3 885 6 890 l 69 890 b 85 879 76 890 82 886 "},"]":{"ha":311,"x_min":0,"x_max":0,"o":"m 7 -203 b 21 -189 7 -193 11 -189 l 178 -189 l 178 829 l 21 829 b 7 843 11 829 7 833 l 7 882 b 21 896 7 892 11 896 l 235 896 b 249 882 244 896 249 892 l 249 -240 b 235 -254 249 -250 244 -254 l 21 -254 b 7 -240 11 -254 7 -250 "},"^":{"ha":564,"x_min":0,"x_max":0,"o":"m 446 618 b 435 601 450 607 447 601 l 389 601 b 374 611 382 601 376 604 l 282 810 l 190 611 b 175 601 188 604 182 601 l 129 601 b 118 618 117 601 114 607 l 240 881 b 256 890 243 888 249 890 l 308 890 b 324 881 315 890 321 888 "},"_":{"ha":489,"x_min":0,"x_max":0,"o":"m -3 -39 b 11 -25 -3 -29 1 -25 l 478 -25 b 492 -39 488 -25 492 -29 l 492 -81 b 478 -94 492 -90 488 -94 l 11 -94 b -3 -81 1 -94 -3 -90 "},"`":{"ha":274,"x_min":0,"x_max":0,"o":"m 183 963 b 164 961 176 956 171 956 l -1 1097 b -1 1117 -10 1104 -10 1110 l 31 1149 b 50 1147 38 1156 43 1154 l 192 989 b 190 969 197 982 197 976 "},"a":{"ha":761,"x_min":0,"x_max":0,"o":"m 588 592 b 601 606 588 601 592 606 l 653 606 b 667 592 663 606 667 601 l 667 14 b 653 0 667 4 663 0 l 601 0 b 588 14 592 0 588 4 l 588 76 b 364 -17 536 14 461 -17 b 144 71 274 -17 201 13 b 61 303 89 129 61 207 b 144 535 61 399 89 476 b 364 622 201 593 274 622 b 588 529 461 622 536 592 m 376 56 b 588 169 471 56 553 101 l 588 436 b 376 550 553 504 471 550 b 206 482 306 550 249 528 b 140 303 163 436 140 376 b 206 124 140 229 163 169 b 376 56 249 78 306 56 "},"b":{"ha":774,"x_min":0,"x_max":0,"o":"m 410 622 b 629 535 500 622 574 593 b 714 303 686 476 714 399 b 629 71 714 207 686 129 b 410 -17 574 13 500 -17 b 186 76 313 -17 238 14 l 186 14 b 172 0 186 4 182 0 l 121 0 b 107 14 111 0 107 4 l 107 876 b 121 890 107 886 111 890 l 172 890 b 186 876 182 890 186 886 l 186 529 b 410 622 238 592 313 622 m 397 56 b 568 124 468 56 525 78 b 633 303 611 169 633 229 b 568 482 633 376 611 436 b 397 550 525 528 468 550 b 186 436 304 550 224 504 l 186 169 b 397 56 224 101 304 56 "},"c":{"ha":694,"x_min":0,"x_max":0,"o":"m 371 622 b 628 485 486 622 582 569 b 622 467 633 478 632 471 l 576 446 b 558 453 568 443 563 446 b 367 550 522 518 458 550 b 140 303 232 550 140 451 b 367 56 140 154 232 56 b 558 153 458 56 522 88 b 576 160 563 160 568 163 l 622 139 b 628 121 632 135 633 128 b 371 -17 582 36 486 -17 b 146 71 278 -17 203 13 b 61 303 89 129 61 207 b 146 535 61 399 89 476 b 371 622 203 593 278 622 "},"d":{"ha":761,"x_min":0,"x_max":0,"o":"m 588 876 b 601 890 588 886 592 890 l 653 890 b 667 876 663 890 667 886 l 667 14 b 653 0 667 4 663 0 l 601 0 b 588 14 592 0 588 4 l 588 76 b 364 -17 536 14 461 -17 b 144 71 274 -17 201 13 b 61 303 89 129 61 207 b 144 535 61 399 89 476 b 364 622 201 593 274 622 b 588 529 461 622 536 592 m 376 56 b 588 169 471 56 553 101 l 588 436 b 376 550 553 504 471 550 b 206 482 306 550 249 528 b 140 303 163 436 140 376 b 206 124 140 229 163 169 b 376 56 249 78 306 56 "},"e":{"ha":700,"x_min":0,"x_max":0,"o":"m 61 304 b 144 535 61 400 89 476 b 361 622 200 593 272 622 b 565 546 446 622 514 597 b 644 350 618 496 644 431 b 640 308 644 336 643 322 b 626 296 640 300 636 296 l 140 296 b 368 53 136 144 228 53 b 560 150 458 54 522 88 b 579 154 564 158 569 160 l 615 131 b 619 113 624 125 625 119 b 367 -17 571 31 476 -17 b 61 304 174 -17 61 108 m 565 357 b 360 553 565 475 483 553 b 142 357 236 553 153 478 "},"f":{"ha":551,"x_min":0,"x_max":0,"o":"m 504 606 b 518 592 514 606 518 601 l 518 553 b 504 539 518 543 514 539 l 290 539 l 290 14 b 276 0 290 4 286 0 l 224 0 b 210 14 214 0 210 4 l 210 539 l 47 539 b 33 553 38 539 33 543 l 33 592 b 47 606 33 601 38 606 l 210 606 l 210 701 b 415 907 210 842 293 907 b 493 896 443 907 469 903 b 504 881 500 893 504 888 l 504 843 b 489 831 504 833 499 829 b 425 839 471 836 449 839 b 290 689 335 839 290 789 l 290 606 "},"g":{"ha":746,"x_min":0,"x_max":0,"o":"m 572 592 b 586 606 572 601 576 606 l 638 606 b 651 592 647 606 651 601 l 651 4 b 354 -281 650 -174 533 -281 b 90 -135 232 -281 135 -228 b 97 -117 86 -128 89 -121 l 140 -96 b 158 -101 149 -92 154 -94 b 356 -210 193 -174 258 -210 b 572 4 493 -210 572 -125 l 572 99 b 354 14 521 42 447 14 b 142 97 267 14 196 42 b 61 318 88 153 61 226 b 142 539 61 410 88 483 b 354 622 196 594 267 622 b 572 539 449 622 521 594 m 364 85 b 572 182 454 85 535 122 l 572 454 b 364 551 533 514 454 551 b 140 318 231 551 140 458 b 364 85 140 179 231 85 "},"h":{"ha":746,"x_min":0,"x_max":0,"o":"m 397 622 b 653 371 557 622 653 526 l 653 14 b 639 0 653 4 649 0 l 586 0 b 572 14 576 0 572 4 l 572 357 b 383 550 572 486 510 550 b 186 454 299 550 233 518 l 186 15 b 172 1 186 6 182 1 l 121 1 b 107 15 111 1 107 6 l 107 876 b 121 890 107 886 111 890 l 172 890 b 186 876 182 890 186 886 l 186 539 b 397 622 243 594 314 622 "},"i":{"ha":304,"x_min":0,"x_max":0,"o":"m 151 783 b 85 849 113 783 85 811 b 151 914 85 886 113 914 b 151 783 240 919 240 778 m 126 0 b 113 14 117 0 113 4 l 113 592 b 126 606 113 601 117 606 l 178 606 b 192 592 188 606 192 601 l 192 14 b 178 0 192 4 188 0 "},"j":{"ha":301,"x_min":0,"x_max":0,"o":"m 151 783 b 86 849 114 783 86 811 b 151 914 86 886 114 914 b 151 783 236 914 236 783 m -101 -251 b -86 -239 -101 -242 -96 -237 b -25 -247 -68 -244 -49 -247 b 113 -96 67 -247 113 -197 l 113 592 b 126 606 113 601 117 606 l 178 606 b 192 592 188 606 192 601 l 192 -97 b -14 -317 192 -249 110 -317 b -90 -304 -40 -317 -65 -312 b -101 -289 -97 -301 -101 -296 "},"k":{"ha":685,"x_min":0,"x_max":0,"o":"m 621 606 b 628 589 633 606 638 599 l 385 360 l 633 17 b 625 0 640 10 636 0 l 565 0 b 547 8 557 0 551 3 l 329 307 l 186 172 l 186 14 b 172 0 186 4 182 0 l 121 0 b 107 14 111 0 107 4 l 107 876 b 121 890 107 886 111 890 l 172 890 b 186 876 182 890 186 886 l 186 268 l 540 599 b 557 606 544 603 550 606 "},"l":{"ha":294,"x_min":0,"x_max":0,"o":"m 121 0 b 107 14 111 0 107 4 l 107 876 b 121 890 107 886 111 890 l 172 890 b 186 876 182 890 186 886 l 186 14 b 172 0 186 4 182 0 "},"m":{"ha":1158,"x_min":0,"x_max":0,"o":"m 833 622 b 1065 371 978 622 1065 526 l 1065 14 b 1051 0 1065 4 1061 0 l 999 0 b 985 14 989 0 985 4 l 985 357 b 819 550 985 486 929 550 b 619 444 732 550 665 515 b 626 371 624 419 626 394 l 626 14 b 613 0 626 4 622 0 l 560 0 b 546 14 550 0 546 4 l 546 357 b 381 550 546 486 490 550 b 186 456 297 550 232 518 l 186 15 b 172 1 186 6 182 1 l 121 1 b 107 15 111 1 107 6 l 107 592 b 121 606 107 601 111 606 l 172 606 b 186 592 182 606 186 601 l 186 540 b 394 622 240 594 310 622 b 596 508 490 622 558 585 b 833 622 650 585 729 622 "},"n":{"ha":746,"x_min":0,"x_max":0,"o":"m 397 622 b 653 371 557 622 653 526 l 653 14 b 639 0 653 4 649 0 l 586 0 b 572 14 576 0 572 4 l 572 357 b 383 550 572 486 510 550 b 186 454 299 550 233 518 l 186 14 b 172 0 186 4 182 0 l 121 0 b 107 14 111 0 107 4 l 107 592 b 121 606 107 601 111 606 l 172 606 b 186 592 182 606 186 601 l 186 539 b 397 622 243 594 314 622 "},"o":{"ha":760,"x_min":0,"x_max":0,"o":"m 61 301 b 149 529 61 392 90 468 b 379 622 208 592 285 622 b 611 529 475 622 551 592 b 700 301 671 468 700 392 b 610 75 700 211 669 136 b 379 -17 550 14 474 -17 b 150 75 286 -17 210 14 b 61 301 90 136 61 211 m 140 301 b 207 126 140 231 163 172 b 379 57 253 81 310 57 b 551 126 450 57 507 81 b 619 301 597 172 619 231 b 551 478 619 372 597 431 b 379 549 507 525 450 549 b 207 478 310 549 253 525 b 140 301 163 432 140 372 "},"p":{"ha":774,"x_min":0,"x_max":0,"o":"m 410 622 b 629 535 500 622 574 593 b 714 303 686 476 714 399 b 629 71 714 207 686 129 b 410 -17 574 13 500 -17 b 186 76 313 -17 238 14 l 186 -250 b 172 -264 186 -260 182 -264 l 121 -264 b 107 -250 111 -264 107 -260 l 107 592 b 121 606 107 601 111 606 l 172 606 b 186 592 182 606 186 601 l 186 529 b 410 622 238 592 313 622 m 397 56 b 568 124 468 56 525 78 b 633 303 611 169 633 229 b 568 482 633 376 611 436 b 397 550 525 528 468 550 b 186 436 304 550 224 504 l 186 169 b 397 56 224 101 304 56 "},"q":{"ha":761,"x_min":0,"x_max":0,"o":"m 588 592 b 601 606 588 601 592 606 l 653 606 b 667 592 663 606 667 601 l 667 -250 b 653 -264 667 -260 663 -264 l 601 -264 b 588 -250 592 -264 588 -260 l 588 76 b 364 -17 536 14 461 -17 b 144 71 274 -17 201 13 b 61 303 89 129 61 207 b 144 535 61 399 89 476 b 364 622 201 593 274 622 b 588 529 461 622 536 592 m 376 56 b 588 169 471 56 553 101 l 588 436 b 376 550 553 504 471 550 b 206 482 306 550 249 528 b 140 303 163 436 140 376 b 206 124 140 229 163 169 b 376 56 249 78 306 56 "},"r":{"ha":464,"x_min":0,"x_max":0,"o":"m 378 615 b 429 611 396 615 414 614 b 442 596 438 610 442 604 l 442 550 b 426 539 442 540 436 536 b 379 543 413 542 397 543 b 181 410 282 543 215 499 l 179 14 b 165 0 179 4 175 0 l 114 0 b 100 14 104 0 100 4 l 100 592 b 114 606 100 601 104 606 l 167 606 b 181 592 176 606 181 601 l 181 514 b 378 615 224 582 290 615 "},"s":{"ha":596,"x_min":0,"x_max":0,"o":"m 294 -17 b 71 51 201 -17 126 6 b 67 71 64 57 63 64 l 88 107 b 106 111 92 117 99 118 b 296 51 158 71 222 51 b 454 160 397 51 454 92 b 411 239 454 199 439 226 b 343 263 383 254 371 257 l 221 290 b 74 447 122 313 74 365 b 293 622 74 553 161 622 b 500 561 372 622 442 601 b 504 542 507 556 508 549 l 483 504 b 465 500 479 494 472 493 b 294 554 417 536 360 554 b 153 450 206 554 153 513 b 254 358 153 404 186 374 l 381 331 b 536 164 485 307 536 251 b 294 -17 536 53 443 -17 "},"t":{"ha":564,"x_min":0,"x_max":0,"o":"m 524 553 b 510 539 524 543 519 539 l 289 539 l 289 188 b 418 57 289 100 332 57 b 501 71 446 57 474 61 b 517 60 511 74 517 69 l 517 15 b 506 0 517 7 513 1 b 411 -14 475 -10 443 -14 b 208 188 283 -14 208 54 l 208 539 l 35 539 b 21 553 25 539 21 543 l 21 592 b 35 606 21 601 25 606 l 208 606 l 208 876 b 222 890 208 886 213 890 l 275 890 b 289 876 285 890 289 886 l 289 606 l 510 606 b 524 592 519 606 524 601 "},"u":{"ha":726,"x_min":0,"x_max":0,"o":"m 546 592 b 560 606 546 601 550 606 l 611 606 b 625 592 621 606 625 601 l 625 14 b 611 0 625 4 621 0 l 560 0 b 546 14 550 0 546 4 l 546 67 b 335 -17 489 11 418 -17 b 100 235 185 -17 100 79 l 100 592 b 114 606 100 601 104 606 l 165 606 b 179 592 175 606 179 601 l 179 249 b 350 56 179 119 236 56 b 546 149 432 54 497 85 "},"v":{"ha":697,"x_min":0,"x_max":0,"o":"m 15 589 b 25 606 11 600 14 606 l 85 606 b 101 596 93 606 99 603 l 350 88 l 597 596 b 614 606 600 603 606 606 l 672 606 b 682 589 683 606 686 600 l 394 10 b 378 0 392 3 386 0 l 321 0 b 304 10 313 0 307 3 "},"w":{"ha":1056,"x_min":0,"x_max":0,"o":"m 963 594 b 978 606 965 601 971 606 l 1036 606 b 1047 589 1049 606 1051 600 l 792 11 b 776 0 789 4 783 0 l 726 0 b 711 11 719 0 714 4 l 526 489 l 340 11 b 325 0 338 4 332 0 l 276 0 b 261 11 269 0 264 4 l 8 589 b 19 606 4 600 7 606 l 78 606 b 93 594 85 606 90 601 l 301 103 l 483 572 b 499 583 486 579 492 583 l 556 583 b 571 572 563 583 568 579 l 753 104 "},"x":{"ha":606,"x_min":0,"x_max":0,"o":"m 42 0 b 33 17 28 0 25 6 l 258 303 l 35 589 b 43 606 28 596 32 606 l 99 606 b 117 597 107 606 113 603 l 304 353 l 489 597 b 507 606 493 603 499 606 l 564 606 b 572 589 575 606 579 596 l 351 304 l 574 17 b 565 0 581 10 576 0 l 508 0 b 490 8 500 0 494 3 l 304 250 l 114 8 b 96 0 110 3 104 0 "},"y":{"ha":668,"x_min":0,"x_max":0,"o":"m 28 589 b 39 606 22 599 28 606 l 97 606 b 114 596 106 606 111 603 l 332 188 l 551 596 b 568 606 554 603 560 606 l 629 606 b 639 589 639 606 644 599 l 178 -254 b 161 -264 175 -261 169 -264 l 103 -264 b 92 -247 92 -264 86 -257 l 288 111 "},"z":{"ha":668,"x_min":0,"x_max":0,"o":"m 88 0 b 74 14 78 0 74 4 l 74 50 b 81 67 74 54 76 60 l 476 536 l 101 536 b 88 550 92 536 88 540 l 88 592 b 101 606 88 601 92 606 l 567 606 b 581 592 576 606 581 601 l 581 553 b 574 536 581 549 578 543 l 179 69 l 581 69 b 594 56 590 69 594 65 l 594 14 b 581 0 594 4 590 0 "},"{":{"ha":385,"x_min":0,"x_max":0,"o":"m 243 482 b 172 325 243 400 219 349 b 243 168 219 300 243 247 l 243 -71 b 376 -201 243 -174 288 -217 b 392 -214 386 -200 392 -204 l 392 -246 b 379 -260 392 -256 388 -260 b 169 -75 235 -281 169 -197 l 169 183 b 90 296 169 253 143 290 b 76 310 81 296 76 300 l 76 340 b 90 354 76 350 81 354 b 169 467 143 360 169 397 l 169 725 b 379 910 169 853 242 931 b 392 894 388 908 392 904 l 392 863 b 376 850 392 853 386 849 b 243 721 272 863 243 808 "},"|":{"ha":451,"x_min":0,"x_max":0,"o":"m 192 968 b 206 982 192 978 196 982 l 246 982 b 260 968 256 982 260 978 l 260 -99 b 246 -112 260 -108 256 -112 l 206 -112 b 192 -99 196 -112 192 -108 "},"}":{"ha":385,"x_min":0,"x_max":0,"o":"m 215 467 b 294 354 215 397 242 360 b 308 340 304 354 308 350 l 308 310 b 294 296 308 300 304 296 b 215 183 242 290 215 253 l 215 -75 b 6 -260 215 -197 150 -281 b -7 -246 -3 -260 -7 -256 l -7 -214 b 8 -201 -7 -204 -1 -200 b 142 -71 97 -217 142 -174 l 142 168 b 211 325 142 247 165 300 b 142 482 165 349 142 400 l 142 721 b 8 850 142 818 97 861 b -7 863 -1 849 -7 853 l -7 894 b 6 910 -7 904 -3 908 b 215 725 143 931 215 853 "},"~":{"ha":547,"x_min":0,"x_max":0,"o":"m 438 429 b 451 443 438 439 442 443 l 492 443 b 506 429 501 443 506 439 b 378 286 501 339 449 286 b 264 328 346 286 307 300 b 168 369 221 356 189 369 b 110 308 133 369 114 349 b 96 294 110 299 106 294 l 56 294 b 42 308 46 294 42 299 b 168 449 46 396 100 449 b 283 406 200 449 239 435 b 379 364 328 378 360 364 b 438 429 414 364 433 386 "}," ":{"ha":331,"x_min":0,"x_max":0,"o":""},"¡":{"ha":374,"x_min":0,"x_max":0,"o":"m 188 904 b 265 825 231 904 265 868 b 188 747 265 781 231 747 b 108 825 143 747 108 781 b 188 904 108 868 143 904 m 203 600 b 217 586 213 600 217 596 l 236 11 b 222 -3 236 1 232 -3 l 153 -3 b 139 11 143 -3 139 1 l 158 586 b 172 600 158 596 163 600 "},"¢":{"ha":772,"x_min":0,"x_max":0,"o":"m 406 217 b 597 314 497 217 561 249 b 615 321 601 321 607 324 l 661 300 b 667 282 671 296 672 289 b 426 144 622 200 533 150 l 426 14 b 413 0 426 4 422 0 l 375 0 b 361 14 365 0 361 4 l 361 147 b 99 464 200 168 99 290 b 169 679 99 551 122 622 b 361 781 218 736 282 771 l 361 882 b 375 896 361 892 365 896 l 413 896 b 426 882 422 896 426 892 l 426 783 b 667 646 533 778 622 728 b 661 628 672 639 671 632 l 615 607 b 597 614 607 604 601 607 b 406 711 561 679 497 711 b 179 464 271 711 179 613 b 406 217 179 315 271 217 "},"£":{"ha":792,"x_min":0,"x_max":0,"o":"m 640 217 b 654 231 640 226 644 231 l 697 231 b 711 217 707 231 711 226 l 711 14 b 697 0 711 4 707 0 l 104 0 b 90 14 94 0 90 4 l 90 64 b 103 79 90 71 94 76 b 249 301 196 106 249 196 b 229 407 249 335 242 369 l 111 407 b 97 421 101 407 97 411 l 97 460 b 111 474 97 469 101 474 l 201 474 b 158 640 172 542 158 597 b 235 831 158 717 183 781 b 436 906 286 881 353 906 b 701 690 582 906 689 822 b 689 676 703 681 699 676 l 635 676 b 619 690 625 676 621 681 b 436 835 608 783 540 835 b 242 636 314 835 242 757 b 286 474 242 596 257 542 l 581 474 b 594 460 590 474 594 469 l 594 421 b 581 407 594 411 590 407 l 310 407 b 324 303 319 372 324 338 b 210 76 324 210 292 114 l 640 76 "},"¤":{"ha":799,"x_min":0,"x_max":0,"o":"m 681 442 b 617 265 681 376 660 317 l 713 186 b 713 167 721 179 721 174 l 678 133 b 658 135 671 126 665 128 l 578 226 b 397 163 525 183 465 163 b 219 226 331 163 271 183 l 139 135 b 119 133 132 128 126 126 l 86 167 b 86 186 79 172 79 179 l 181 267 b 118 442 139 318 118 376 b 181 621 118 510 139 569 l 86 700 b 85 719 79 707 78 714 l 119 754 b 139 753 126 761 132 760 l 219 661 b 397 725 271 704 331 725 b 578 660 464 725 524 703 l 658 753 b 678 754 665 760 671 761 l 713 719 b 713 700 721 713 721 707 l 617 621 b 681 442 660 568 681 508 m 397 236 b 543 297 454 236 503 257 b 604 442 583 338 604 386 b 543 588 604 499 583 547 b 397 649 503 628 454 649 b 253 588 342 649 293 628 b 192 442 213 547 192 499 b 253 297 192 386 213 338 b 397 236 294 257 343 236 "},"¥":{"ha":839,"x_min":0,"x_max":0,"o":"m 742 890 b 751 874 754 890 758 885 l 490 431 l 671 431 b 685 417 681 431 685 426 l 685 374 b 671 360 685 364 681 360 l 458 360 l 458 240 l 671 240 b 685 226 681 240 685 236 l 685 185 b 671 171 685 175 681 171 l 458 171 l 458 14 b 444 0 458 4 454 0 l 393 0 b 379 14 383 0 379 4 l 379 171 l 165 171 b 151 185 156 171 151 175 l 151 226 b 165 240 151 236 156 240 l 379 240 l 379 360 l 165 360 b 151 374 156 360 151 364 l 151 417 b 165 431 151 426 156 431 l 349 431 l 88 874 b 97 890 81 885 85 890 l 157 890 b 174 881 164 890 169 888 l 419 450 l 419 453 l 665 881 b 682 890 669 888 675 890 "},"¦":{"ha":458,"x_min":0,"x_max":0,"o":"m 192 972 b 206 986 192 982 196 986 l 253 986 b 267 972 263 986 267 982 l 267 565 b 253 551 267 556 263 551 l 206 551 b 192 565 196 551 192 556 m 192 346 b 206 360 192 356 196 360 l 253 360 b 267 346 263 360 267 356 l 267 -74 b 253 -87 267 -83 263 -87 l 206 -87 b 192 -74 196 -87 192 -83 "},"§":{"ha":621,"x_min":0,"x_max":0,"o":"m 313 -201 b 75 -7 181 -201 82 -128 b 89 7 75 3 79 7 l 143 7 b 158 -7 153 7 157 3 b 318 -132 165 -86 228 -132 b 469 -1 408 -132 469 -79 b 343 126 469 71 428 114 l 261 139 b 63 338 143 160 63 228 b 206 522 63 431 118 501 b 67 701 113 551 67 611 b 133 847 67 761 89 810 b 308 904 179 885 238 904 b 547 710 442 904 540 828 b 533 696 547 700 543 696 l 478 696 b 463 710 468 696 464 700 b 304 838 456 788 392 838 b 153 704 214 838 153 783 b 278 579 153 633 194 592 l 361 565 b 558 365 483 544 558 472 b 415 181 558 271 499 201 b 556 1 508 153 556 93 b 486 -144 556 -58 532 -107 b 313 -201 440 -182 383 -201 m 313 217 b 481 353 418 217 481 275 b 310 488 481 436 411 488 b 140 351 203 488 140 429 b 313 217 140 269 211 217 "},"¨":{"ha":417,"x_min":0,"x_max":0,"o":"m 101 953 b 43 1010 68 953 43 978 b 101 1069 43 1044 68 1069 b 161 1010 136 1069 161 1044 b 101 953 161 978 136 953 m 254 1010 b 374 1010 254 1088 374 1088 b 314 953 374 978 347 953 b 254 1010 281 953 254 978 "},"©":{"ha":1071,"x_min":0,"x_max":0,"o":"m 535 -17 b 194 113 399 -17 285 26 b 60 446 104 199 60 310 b 194 778 60 582 104 693 b 535 907 285 864 399 907 b 875 778 671 907 785 864 b 1013 446 967 693 1013 582 b 876 113 1013 310 967 199 b 535 -17 786 26 672 -17 m 249 164 b 535 56 325 92 419 56 b 822 164 650 56 746 92 b 938 446 899 238 938 331 b 822 726 938 561 899 654 b 535 836 746 800 650 836 b 249 726 419 836 325 800 b 135 446 172 654 135 561 b 249 164 135 331 172 238 m 306 446 b 372 624 306 518 328 578 b 543 693 417 669 474 693 b 743 585 632 693 699 657 b 738 565 747 575 746 569 l 693 543 b 675 550 686 539 679 540 b 542 621 647 597 603 621 b 383 446 447 621 383 553 b 542 269 383 339 447 269 b 675 342 604 269 649 293 b 693 349 679 351 686 353 l 738 326 b 743 307 746 322 747 317 b 543 197 700 233 633 197 b 372 267 475 197 418 221 b 306 446 328 313 306 372 "},"ª":{"ha":617,"x_min":0,"x_max":0,"o":"m 471 936 b 485 950 471 946 475 950 l 525 950 b 539 936 535 950 539 946 l 539 478 b 525 464 539 468 535 464 l 485 464 b 471 478 475 464 471 468 l 471 525 b 292 450 431 475 371 450 b 117 521 221 450 163 474 b 50 707 72 569 50 631 b 118 892 50 783 72 844 b 293 963 164 939 222 963 b 471 889 369 963 429 938 m 304 513 b 471 603 376 513 443 549 l 471 808 b 304 901 442 865 376 901 b 119 708 194 901 119 821 b 304 513 119 593 194 513 "},"«":{"ha":592,"x_min":0,"x_max":0,"o":"m 315 544 b 325 528 328 544 332 539 l 194 303 l 325 76 b 315 60 332 65 328 60 l 260 60 b 243 69 253 60 247 63 l 114 293 b 114 313 110 300 110 306 l 243 535 b 260 544 247 542 253 544 m 521 544 b 531 528 533 544 538 539 l 403 303 l 531 76 b 521 60 538 65 533 60 l 468 60 b 451 69 461 60 456 63 l 324 293 b 324 313 319 300 319 306 l 451 535 b 468 544 456 542 461 544 "},"¬":{"ha":731,"x_min":0,"x_max":0,"o":"m 657 203 b 643 189 657 193 653 189 l 588 189 b 574 203 578 189 574 193 l 574 367 l 89 367 b 75 381 79 367 75 371 l 75 435 b 89 449 75 444 79 449 l 643 449 b 657 435 653 449 657 444 "},"®":{"ha":750,"x_min":0,"x_max":0,"o":"m 704 585 b 611 353 704 493 674 415 b 376 260 549 290 471 260 b 139 353 281 260 201 290 b 46 585 76 415 46 492 b 140 813 46 675 78 750 b 376 906 203 875 282 906 b 611 813 471 906 549 875 b 704 585 674 750 704 675 m 375 311 b 571 386 453 311 518 336 b 651 582 625 438 651 503 b 571 776 651 661 625 725 b 375 854 518 828 453 854 b 178 776 296 854 229 828 b 101 582 126 725 101 661 b 178 386 101 503 126 438 b 375 311 229 336 296 311 m 497 633 b 403 546 497 579 460 547 l 481 464 b 474 447 490 453 488 447 l 436 447 b 419 454 429 447 424 450 l 336 546 l 324 546 l 324 461 b 310 447 324 451 319 447 l 283 447 b 269 461 274 447 269 451 l 269 704 b 283 718 269 714 274 718 l 397 718 b 497 633 458 718 497 683 m 393 592 b 436 629 422 592 436 604 b 393 665 436 650 419 665 l 324 665 l 324 592 "},"¯":{"ha":513,"x_min":0,"x_max":0,"o":"m 103 1022 b 117 1036 103 1032 107 1036 l 397 1036 b 411 1022 407 1036 411 1032 l 411 982 b 397 968 411 972 407 968 l 117 968 b 103 982 107 968 103 972 "},"°":{"ha":326,"x_min":0,"x_max":0,"o":"m 161 614 b 17 758 79 614 17 676 b 161 906 17 842 79 906 b 310 758 244 906 310 842 b 161 614 310 676 244 614 m 163 674 b 251 760 211 674 251 711 b 100 821 257 836 150 878 b 163 674 47 768 85 674 "},"±":{"ha":628,"x_min":0,"x_max":0,"o":"m 353 451 l 564 451 b 578 438 574 451 578 447 l 578 390 b 564 376 578 381 574 376 l 353 376 l 353 239 b 339 225 353 229 349 225 l 290 225 b 276 239 281 225 276 229 l 276 376 l 64 376 b 50 390 54 376 50 381 l 50 438 b 64 451 50 447 54 451 l 276 451 l 276 588 b 290 601 276 597 281 601 l 339 601 b 353 588 349 601 353 597 m 64 0 b 50 14 54 0 50 4 l 50 60 b 64 74 50 69 54 74 l 564 74 b 578 60 574 74 578 69 l 578 14 b 564 0 578 4 574 0 "},"²":{"ha":606,"x_min":0,"x_max":0,"o":"m 201 458 l 521 458 b 535 444 531 458 535 454 l 535 393 b 521 379 535 383 531 379 l 89 379 b 75 393 79 379 75 383 l 75 432 b 82 449 75 439 78 444 l 347 726 b 436 900 407 786 436 844 b 300 1026 436 976 382 1026 b 163 931 232 1026 178 988 b 146 918 160 921 154 917 l 92 926 b 81 943 82 928 78 933 b 303 1104 103 1042 192 1104 b 521 903 435 1104 521 1025 b 414 683 521 818 482 757 "},"³":{"ha":649,"x_min":0,"x_max":0,"o":"m 346 818 b 565 597 478 808 565 724 b 496 432 565 529 542 475 b 321 368 450 389 392 368 b 82 569 189 368 94 449 b 93 585 81 578 83 583 l 150 596 b 165 583 160 597 165 593 b 321 443 172 500 238 443 b 482 600 414 443 482 507 b 347 749 482 683 429 738 b 274 753 319 751 294 753 l 267 753 b 250 764 258 753 253 757 l 238 800 b 242 819 235 807 236 814 l 438 1017 l 138 1017 b 124 1031 128 1017 124 1021 l 124 1078 b 138 1092 124 1088 128 1092 l 524 1092 b 538 1078 533 1092 538 1088 l 538 1019 b 531 1003 538 1013 535 1007 "},"´":{"ha":279,"x_min":0,"x_max":0,"o":"m 92 961 b 72 963 85 956 79 956 l 65 969 b 64 989 58 976 58 982 l 206 1147 b 225 1149 213 1154 218 1156 l 257 1117 b 257 1097 265 1110 265 1104 "},"µ":{"ha":789,"x_min":0,"x_max":0,"o":"m 681 60 l 706 60 b 721 47 715 61 721 57 l 721 13 b 708 -3 721 4 717 -1 b 535 90 624 -24 550 14 b 349 -14 507 28 428 -14 b 167 92 265 -14 193 26 l 167 -287 b 153 -301 167 -297 163 -301 l 101 -301 b 88 -287 92 -301 88 -297 l 88 592 b 101 606 88 601 92 606 l 154 606 b 168 592 164 606 168 601 l 168 268 b 346 57 168 128 228 57 b 531 251 461 57 531 133 l 531 592 b 544 606 531 601 535 606 l 596 606 b 610 592 606 606 610 601 l 610 171 b 681 60 610 119 614 60 "},"¶":{"ha":736,"x_min":0,"x_max":0,"o":"m 722 892 b 736 878 732 892 736 888 l 736 843 b 722 829 736 833 732 829 l 635 829 l 635 -111 b 621 -125 635 -121 631 -125 l 586 -125 b 572 -111 576 -125 572 -121 l 572 829 l 431 829 l 431 -108 b 417 -122 431 -118 426 -122 l 371 -122 b 357 -108 361 -122 357 -118 l 357 486 l 260 486 b 47 690 128 486 47 563 b 260 892 47 814 131 892 "},"·":{"ha":413,"x_min":0,"x_max":0,"o":"m 206 268 b 100 372 150 268 100 317 b 206 478 100 429 149 478 b 313 372 263 478 313 429 b 206 268 313 317 263 268 "},"¸":{"ha":324,"x_min":0,"x_max":0,"o":"m 139 -67 b 228 -81 171 -60 200 -64 b 271 -160 257 -97 271 -124 b 232 -240 271 -194 258 -221 b 61 -246 181 -281 113 -269 b 53 -229 56 -242 53 -236 l 53 -201 b 68 -193 53 -190 58 -187 b 151 -208 92 -210 119 -215 b 201 -158 185 -203 201 -186 b 114 -112 201 -126 163 -106 b 96 -106 106 -112 100 -110 l 86 -94 b 83 -75 82 -89 81 -82 l 133 31 b 150 40 136 38 142 40 l 164 40 b 178 26 174 40 178 36 l 178 10 b 174 -8 178 3 176 -3 "},"¹":{"ha":431,"x_min":0,"x_max":0,"o":"m 72 917 b 56 926 61 910 56 914 l 56 975 b 65 992 56 982 58 988 l 218 1086 b 236 1092 225 1090 232 1092 l 289 1092 b 303 1078 299 1092 303 1088 l 303 393 b 289 379 303 383 299 379 l 232 379 b 218 393 222 379 218 383 l 218 1001 "},"º":{"ha":611,"x_min":0,"x_max":0,"o":"m 306 964 b 492 889 382 964 444 939 b 563 707 539 840 563 779 b 492 524 563 633 539 572 b 306 451 444 475 382 451 b 121 525 231 451 169 476 b 50 707 74 574 50 635 b 121 889 50 779 74 840 b 306 964 169 939 231 964 m 119 707 b 172 569 119 653 138 607 b 306 515 207 533 251 515 b 440 569 360 515 406 533 b 494 707 476 607 494 653 b 440 844 494 761 476 807 b 306 900 406 882 360 900 b 119 707 199 900 119 818 "},"»":{"ha":592,"x_min":0,"x_max":0,"o":"m 126 544 b 143 535 133 544 139 542 l 272 313 b 272 293 276 306 276 300 l 143 69 b 126 60 139 63 133 60 l 71 60 b 61 76 58 60 54 65 l 192 303 l 61 528 b 71 544 54 539 58 544 m 335 544 b 351 535 342 544 347 542 l 478 313 b 478 293 482 306 482 300 l 351 69 b 335 60 347 63 342 60 l 281 60 b 271 76 268 60 264 65 l 400 303 l 271 528 b 281 544 264 539 268 544 "},"¼":{"ha":1250,"x_min":0,"x_max":0,"o":"m 886 1003 b 906 1007 890 1011 897 1013 l 939 985 b 943 967 946 981 947 974 l 221 -108 b 203 -112 217 -115 210 -117 l 169 -92 b 165 -72 163 -87 161 -81 m 203 285 b 189 299 193 285 189 289 l 189 860 l 50 779 b 33 789 39 772 33 776 l 33 840 b 43 857 33 847 36 853 l 190 947 b 208 953 197 951 204 953 l 261 953 b 275 939 271 953 275 949 l 275 299 b 261 285 275 289 271 285 m 1103 268 l 1204 268 b 1218 254 1214 268 1218 264 l 1218 208 b 1204 194 1218 199 1214 194 l 1103 194 l 1103 14 b 1089 0 1103 4 1099 0 l 1032 0 b 1018 14 1022 0 1018 4 l 1018 194 l 703 194 b 689 208 693 194 689 199 l 689 251 b 694 269 689 258 690 265 l 979 660 b 997 668 983 665 989 668 l 1089 668 b 1103 654 1099 668 1103 664 m 785 268 l 1018 268 l 1018 590 "},"½":{"ha":1294,"x_min":0,"x_max":0,"o":"m 886 1003 b 906 1007 890 1011 897 1013 l 939 985 b 943 967 946 981 947 974 l 221 -108 b 203 -112 217 -115 210 -117 l 169 -92 b 165 -72 163 -87 161 -81 m 203 285 b 189 299 193 285 189 289 l 189 860 l 50 779 b 33 789 39 772 33 776 l 33 840 b 43 857 33 847 36 853 l 190 947 b 208 953 197 951 204 953 l 261 953 b 275 939 271 953 275 949 l 275 299 b 261 285 275 289 271 285 m 951 81 l 1242 81 b 1256 67 1251 81 1256 76 l 1256 14 b 1242 0 1256 4 1251 0 l 835 0 b 821 14 825 0 821 4 l 821 54 b 828 71 821 61 824 67 l 1076 329 b 1157 485 1131 386 1157 438 b 1033 601 1157 556 1107 601 b 910 514 971 601 925 565 b 894 503 907 506 901 501 l 838 511 b 826 526 828 513 824 518 b 1038 679 844 617 928 679 b 1243 489 1160 679 1243 606 b 1144 283 1243 421 1210 353 "},"¾":{"ha":1408,"x_min":0,"x_max":0,"o":"m 1046 1003 b 1065 1007 1050 1011 1057 1013 l 1099 985 b 1103 967 1106 981 1107 974 l 381 -108 b 363 -112 376 -115 369 -117 l 329 -92 b 325 -72 322 -87 321 -81 m 501 490 b 436 333 501 426 479 374 b 268 274 393 293 336 274 b 43 463 146 274 56 350 b 54 479 42 472 46 478 l 114 489 b 128 476 124 490 128 486 b 269 351 135 403 193 351 b 414 493 353 351 414 408 b 292 626 414 569 365 617 b 222 631 274 629 251 631 l 218 631 b 201 642 210 631 204 635 l 189 679 b 193 699 186 686 188 693 l 372 876 l 97 876 b 83 890 88 876 83 881 l 83 939 b 97 953 83 949 88 953 l 460 953 b 474 939 469 953 474 949 l 474 881 b 467 864 474 874 471 868 l 299 696 b 501 490 421 686 501 607 m 1263 268 l 1364 268 b 1378 254 1374 268 1378 264 l 1378 208 b 1364 194 1378 199 1374 194 l 1263 194 l 1263 14 b 1249 0 1263 4 1258 0 l 1192 0 b 1178 14 1182 0 1178 4 l 1178 194 l 863 194 b 849 208 853 194 849 199 l 849 251 b 854 269 849 258 850 265 l 1139 660 b 1157 668 1143 665 1149 668 l 1249 668 b 1263 654 1258 668 1263 664 m 944 268 l 1178 268 l 1178 590 "},"¿":{"ha":532,"x_min":0,"x_max":0,"o":"m 253 738 b 328 665 293 738 328 704 b 254 592 328 625 294 592 b 176 667 211 592 176 626 b 253 738 176 706 210 738 m 271 472 b 443 317 375 472 443 411 b 385 190 443 263 425 222 b 274 126 346 161 325 150 b 139 -10 168 78 139 44 b 260 -117 139 -78 188 -117 b 394 -12 338 -117 390 -74 b 410 0 396 -3 401 1 l 457 -7 b 469 -24 467 -8 471 -14 b 258 -182 458 -117 375 -182 b 61 -11 140 -182 61 -118 b 221 178 61 74 111 126 l 257 194 b 321 231 294 213 297 214 b 368 314 356 253 363 271 b 268 407 368 371 328 407 b 161 304 201 407 163 365 b 147 292 161 294 157 290 l 100 299 b 88 314 92 300 88 304 b 271 472 94 410 165 472 "},"À":{"ha":886,"x_min":0,"x_max":0,"o":"m 460 989 b 458 969 465 982 465 976 l 451 963 b 432 961 444 956 439 956 l 267 1097 b 267 1117 258 1104 258 1110 l 299 1149 b 318 1147 306 1156 311 1154 m 792 0 b 776 11 785 0 779 4 l 675 250 l 208 250 l 106 11 b 90 0 103 4 97 0 l 35 0 b 24 17 22 0 19 6 l 394 879 b 410 890 397 886 403 890 l 472 890 b 488 879 479 890 485 886 l 861 17 b 850 0 865 6 863 0 m 238 319 l 646 319 l 442 800 "},"Á":{"ha":886,"x_min":0,"x_max":0,"o":"m 615 1117 b 615 1097 624 1110 624 1104 l 450 961 b 431 963 443 956 438 956 l 424 969 b 422 989 417 976 417 982 l 564 1147 b 583 1149 571 1154 576 1156 m 792 0 b 776 11 785 0 779 4 l 675 250 l 208 250 l 106 11 b 90 0 103 4 97 0 l 35 0 b 24 17 22 0 19 6 l 394 879 b 410 890 397 886 403 890 l 472 890 b 488 879 479 890 485 886 l 861 17 b 850 0 865 6 863 0 m 238 319 l 646 319 l 442 800 "},"Â":{"ha":886,"x_min":0,"x_max":0,"o":"m 439 1068 l 332 961 b 313 960 326 956 319 956 l 294 972 b 292 992 288 978 288 985 l 392 1119 b 410 1128 396 1125 401 1128 l 469 1128 b 488 1119 476 1128 483 1125 l 588 992 b 585 972 593 985 592 978 l 567 960 b 547 961 560 956 553 956 m 792 0 b 776 11 785 0 779 4 l 675 250 l 208 250 l 106 11 b 90 0 103 4 97 0 l 35 0 b 24 17 22 0 19 6 l 394 879 b 410 890 397 886 403 890 l 472 890 b 488 879 479 890 485 886 l 861 17 b 850 0 865 6 863 0 m 238 319 l 646 319 l 442 800 "},"Ã":{"ha":886,"x_min":0,"x_max":0,"o":"m 338 982 b 324 968 336 972 331 968 l 306 968 b 290 981 296 968 292 972 b 368 1083 283 1047 317 1083 b 440 1057 388 1083 411 1075 b 507 1032 469 1040 492 1032 b 543 1072 529 1032 542 1046 b 557 1086 543 1082 547 1086 l 576 1086 b 590 1074 586 1086 590 1082 b 506 972 597 1011 561 972 b 431 997 485 972 460 981 b 371 1022 403 1014 383 1022 b 338 982 350 1022 339 1008 m 792 0 b 776 11 785 0 779 4 l 675 250 l 208 250 l 106 11 b 90 0 103 4 97 0 l 35 0 b 24 17 22 0 19 6 l 394 879 b 410 890 397 886 403 890 l 472 890 b 488 879 479 890 485 886 l 861 17 b 850 0 865 6 863 0 m 238 319 l 646 319 l 442 800 "},"Ä":{"ha":886,"x_min":0,"x_max":0,"o":"m 333 951 b 275 1008 300 951 275 976 b 333 1068 275 1043 300 1068 b 393 1008 368 1068 393 1043 b 333 951 393 976 368 951 m 486 1008 b 606 1008 486 1086 606 1086 b 546 951 606 976 579 951 b 486 1008 513 951 486 976 m 792 0 b 776 11 785 0 779 4 l 675 250 l 208 250 l 106 11 b 90 0 103 4 97 0 l 35 0 b 24 17 22 0 19 6 l 394 879 b 410 890 397 886 403 890 l 472 890 b 488 879 479 890 485 886 l 861 17 b 850 0 865 6 863 0 m 238 319 l 646 319 l 442 800 "},"Å":{"ha":886,"x_min":0,"x_max":0,"o":"m 792 0 b 776 11 785 0 779 4 l 675 250 l 208 250 l 106 11 b 90 0 103 4 97 0 l 35 0 b 24 17 22 0 19 6 l 381 847 b 313 957 335 869 313 906 b 443 1086 313 1031 367 1086 b 574 957 519 1086 574 1031 b 503 846 574 904 550 867 l 861 17 b 850 0 865 6 863 0 m 443 1028 b 378 961 410 1028 378 1000 b 508 961 378 874 508 874 b 443 1028 508 1000 478 1028 m 238 319 l 646 319 l 442 800 "},"Æ":{"ha":1104,"x_min":0,"x_max":0,"o":"m 1029 824 b 1015 810 1029 814 1025 810 l 576 811 l 576 483 l 974 483 b 988 469 983 483 988 479 l 988 422 b 974 408 988 413 983 408 l 576 408 l 576 78 l 1015 78 b 1029 64 1025 78 1029 74 l 1029 14 b 1015 0 1029 4 1025 0 l 511 0 b 497 14 501 0 497 4 l 497 263 l 203 263 l 108 11 b 93 0 106 4 100 0 l 35 0 b 24 17 25 0 21 6 l 350 879 b 365 890 353 886 358 890 l 1015 889 b 1029 875 1025 889 1029 885 m 497 332 l 497 811 l 408 811 l 228 332 "},"Ç":{"ha":951,"x_min":0,"x_max":0,"o":"m 497 58 b 810 243 643 58 765 136 b 828 251 814 253 819 256 l 881 226 b 888 208 889 222 892 215 b 513 -17 828 75 685 -11 l 482 -69 b 571 -83 514 -62 543 -67 b 614 -162 600 -100 614 -126 b 575 -243 614 -197 601 -224 b 404 -249 524 -283 456 -272 b 396 -232 399 -244 396 -239 l 396 -204 b 411 -196 396 -193 401 -190 b 494 -211 435 -212 463 -218 b 544 -161 528 -206 544 -189 b 457 -115 544 -129 506 -108 b 439 -108 449 -115 443 -112 l 429 -97 b 426 -78 425 -92 424 -85 l 457 -15 b 168 126 338 -6 242 42 b 60 446 96 211 60 317 b 181 778 60 582 100 693 b 499 907 263 864 368 907 b 888 682 676 907 826 819 b 881 664 892 675 889 668 l 828 639 b 810 647 819 635 814 638 b 497 832 765 754 643 832 b 240 725 393 832 307 796 b 142 446 175 654 142 561 b 240 164 142 329 175 235 b 497 58 307 93 393 58 "},"È":{"ha":715,"x_min":0,"x_max":0,"o":"m 386 989 b 385 969 392 982 392 976 l 378 963 b 358 961 371 956 365 956 l 193 1097 b 193 1117 185 1104 185 1110 l 225 1149 b 244 1147 232 1156 238 1154 m 642 828 b 628 814 642 818 638 814 l 189 814 l 189 481 l 586 481 b 600 467 596 481 600 476 l 600 425 b 586 411 600 415 596 411 l 189 411 l 189 75 l 628 75 b 642 61 638 75 642 71 l 642 14 b 628 0 642 4 638 0 l 124 0 b 110 14 114 0 110 4 l 110 876 b 124 890 110 886 114 890 l 628 890 b 642 876 638 890 642 886 "},"É":{"ha":715,"x_min":0,"x_max":0,"o":"m 542 1117 b 542 1097 550 1110 550 1104 l 376 961 b 357 963 369 956 364 956 l 350 969 b 349 989 343 976 343 982 l 490 1147 b 510 1149 497 1154 503 1156 m 642 828 b 628 814 642 818 638 814 l 189 814 l 189 481 l 586 481 b 600 467 596 481 600 476 l 600 425 b 586 411 600 415 596 411 l 189 411 l 189 75 l 628 75 b 642 61 638 75 642 71 l 642 14 b 628 0 642 4 638 0 l 124 0 b 110 14 114 0 110 4 l 110 876 b 124 890 110 886 114 890 l 628 890 b 642 876 638 890 642 886 "},"Ê":{"ha":715,"x_min":0,"x_max":0,"o":"m 367 1068 l 260 961 b 240 960 254 956 247 956 l 222 972 b 219 992 215 978 215 985 l 319 1119 b 338 1128 324 1125 329 1128 l 397 1128 b 415 1119 404 1128 411 1125 l 515 992 b 513 972 521 985 519 978 l 494 960 b 475 961 488 956 481 956 m 642 828 b 628 814 642 818 638 814 l 189 814 l 189 481 l 586 481 b 600 467 596 481 600 476 l 600 425 b 586 411 600 415 596 411 l 189 411 l 189 75 l 628 75 b 642 61 638 75 642 71 l 642 14 b 628 0 642 4 638 0 l 124 0 b 110 14 114 0 110 4 l 110 876 b 124 890 110 886 114 890 l 628 890 b 642 876 638 890 642 886 "},"Ë":{"ha":715,"x_min":0,"x_max":0,"o":"m 261 951 b 203 1008 228 951 203 976 b 261 1068 203 1043 228 1068 b 321 1008 296 1068 321 1043 b 261 951 321 976 296 951 m 414 1008 b 533 1008 414 1086 533 1086 b 474 951 533 976 507 951 b 414 1008 440 951 414 976 m 642 828 b 628 814 642 818 638 814 l 189 814 l 189 481 l 586 481 b 600 467 596 481 600 476 l 600 425 b 586 411 600 415 596 411 l 189 411 l 189 75 l 628 75 b 642 61 638 75 642 71 l 642 14 b 628 0 642 4 638 0 l 124 0 b 110 14 114 0 110 4 l 110 876 b 124 890 110 886 114 890 l 628 890 b 642 876 638 890 642 886 "},"Ì":{"ha":299,"x_min":0,"x_max":0,"o":"m 160 963 b 140 961 153 956 147 956 l -25 1097 b -25 1117 -33 1104 -33 1110 l 7 1149 b 26 1147 14 1156 19 1154 l 168 989 b 167 969 174 982 174 976 m 189 14 b 175 0 189 4 185 0 l 124 0 b 110 14 114 0 110 4 l 110 876 b 124 890 110 886 114 890 l 175 890 b 189 876 185 890 189 886 "},"Í":{"ha":299,"x_min":0,"x_max":0,"o":"m 160 961 b 140 963 153 956 147 956 l 133 969 b 132 989 126 976 126 982 l 274 1147 b 293 1149 281 1154 286 1156 l 325 1117 b 325 1097 333 1110 333 1104 m 189 14 b 175 0 189 4 185 0 l 124 0 b 110 14 114 0 110 4 l 110 876 b 124 890 110 886 114 890 l 175 890 b 189 876 185 890 189 886 "},"Î":{"ha":299,"x_min":0,"x_max":0,"o":"m 4 972 b 1 992 -3 978 -4 985 l 101 1119 b 119 1128 106 1125 113 1128 l 179 1128 b 197 1119 188 1128 193 1125 l 297 992 b 294 972 303 985 301 978 l 276 960 b 257 961 269 956 263 956 l 149 1068 l 42 961 b 22 960 36 956 29 956 m 189 14 b 175 0 189 4 185 0 l 124 0 b 110 14 114 0 110 4 l 110 876 b 124 890 110 886 114 890 l 175 890 b 189 876 185 890 189 886 "},"Ï":{"ha":299,"x_min":0,"x_max":0,"o":"m 43 951 b -15 1008 10 951 -15 976 b 43 1068 -15 1043 10 1068 b 103 1008 78 1068 103 1043 b 43 951 103 976 78 951 m 196 1008 b 315 1008 196 1086 315 1086 b 256 951 315 976 289 951 b 196 1008 222 951 196 976 m 189 14 b 175 0 189 4 185 0 l 124 0 b 110 14 114 0 110 4 l 110 876 b 124 890 110 886 114 890 l 175 890 b 189 876 185 890 189 886 "},"Ð":{"ha":990,"x_min":0,"x_max":0,"o":"m 436 890 b 760 767 569 890 678 849 b 885 444 843 685 885 576 b 761 122 885 313 843 204 b 436 0 679 40 571 0 l 186 0 b 172 14 176 0 172 4 l 172 411 l 74 411 b 60 425 64 411 60 415 l 60 461 b 74 475 60 471 64 475 l 172 475 l 172 876 b 186 890 172 886 176 890 m 435 75 b 699 176 544 75 632 108 b 800 444 767 244 800 335 b 699 713 800 554 767 644 b 435 815 632 781 544 815 l 253 815 l 253 475 l 435 475 b 449 461 444 475 449 471 l 449 425 b 435 411 449 415 444 411 l 253 411 l 253 75 "},"Ñ":{"ha":879,"x_min":0,"x_max":0,"o":"m 338 985 b 324 971 336 975 331 971 l 306 971 b 290 983 296 971 292 975 b 368 1086 283 1050 317 1086 b 440 1060 388 1086 411 1078 b 507 1035 469 1043 492 1035 b 543 1075 529 1035 542 1049 b 557 1089 543 1085 547 1089 l 576 1089 b 590 1076 586 1089 590 1085 b 506 975 597 1014 561 975 b 431 1000 485 975 460 983 b 371 1025 403 1017 383 1025 b 338 985 350 1025 339 1011 m 689 876 b 703 890 689 886 693 890 l 757 890 b 771 876 767 890 771 886 l 771 14 b 757 0 771 4 767 0 l 700 0 b 683 8 693 0 688 3 l 190 753 l 190 14 b 176 0 190 4 186 0 l 124 0 b 110 14 114 0 110 4 l 110 876 b 124 890 110 886 114 890 l 179 890 b 196 882 186 890 192 888 l 689 136 "},"Ò":{"ha":1018,"x_min":0,"x_max":0,"o":"m 521 978 b 501 976 514 971 508 971 l 336 1113 b 336 1132 328 1119 328 1125 l 368 1164 b 388 1163 375 1171 381 1169 l 529 1004 b 528 985 535 997 535 992 m 510 907 b 829 775 636 907 743 863 b 960 444 917 688 960 578 b 829 114 960 311 917 201 b 510 -17 743 26 636 -17 b 189 114 383 -17 276 26 b 60 444 103 201 60 311 b 189 775 60 578 103 688 b 510 907 275 863 382 907 m 510 829 b 247 721 406 829 318 793 b 142 444 176 649 142 557 b 247 168 142 332 176 240 b 510 60 318 96 406 60 b 769 168 613 60 699 96 b 875 444 840 240 875 332 b 769 721 875 557 840 649 b 510 829 699 793 613 829 "},"Ó":{"ha":1018,"x_min":0,"x_max":0,"o":"m 519 976 b 500 978 513 971 507 971 l 493 985 b 492 1004 486 992 486 997 l 633 1163 b 653 1164 640 1169 646 1171 l 685 1132 b 685 1113 693 1125 693 1119 m 510 907 b 829 775 636 907 743 863 b 960 444 917 688 960 578 b 829 114 960 311 917 201 b 510 -17 743 26 636 -17 b 189 114 383 -17 276 26 b 60 444 103 201 60 311 b 189 775 60 578 103 688 b 510 907 275 863 382 907 m 510 829 b 247 721 406 829 318 793 b 142 444 176 649 142 557 b 247 168 142 332 176 240 b 510 60 318 96 406 60 b 769 168 613 60 699 96 b 875 444 840 240 875 332 b 769 721 875 557 840 649 b 510 829 699 793 613 829 "},"Ô":{"ha":1018,"x_min":0,"x_max":0,"o":"m 364 988 b 361 1007 357 993 356 1000 l 461 1135 b 479 1143 465 1140 471 1143 l 539 1143 b 557 1135 546 1143 553 1140 l 657 1007 b 654 988 663 1000 661 993 l 636 975 b 617 976 629 971 622 971 l 508 1083 l 401 976 b 382 975 396 971 389 971 m 510 907 b 829 775 636 907 743 863 b 960 444 917 688 960 578 b 829 114 960 311 917 201 b 510 -17 743 26 636 -17 b 189 114 383 -17 276 26 b 60 444 103 201 60 311 b 189 775 60 578 103 688 b 510 907 275 863 382 907 m 510 829 b 247 721 406 829 318 793 b 142 444 176 649 142 557 b 247 168 142 332 176 240 b 510 60 318 96 406 60 b 769 168 613 60 699 96 b 875 444 840 240 875 332 b 769 721 875 557 840 649 b 510 829 699 793 613 829 "},"Õ":{"ha":1018,"x_min":0,"x_max":0,"o":"m 375 983 b 360 996 365 983 361 988 b 438 1099 353 1063 386 1099 b 510 1072 457 1099 481 1090 b 576 1047 539 1056 561 1047 b 613 1088 599 1047 611 1061 b 626 1101 613 1097 617 1101 l 646 1101 b 660 1089 656 1101 660 1097 b 575 988 667 1026 631 988 b 500 1013 554 988 529 996 b 440 1038 472 1029 453 1038 b 407 997 419 1038 408 1024 b 393 983 406 988 400 983 m 510 907 b 829 775 636 907 743 863 b 960 444 917 688 960 578 b 829 114 960 311 917 201 b 510 -17 743 26 636 -17 b 189 114 383 -17 276 26 b 60 444 103 201 60 311 b 189 775 60 578 103 688 b 510 907 275 863 382 907 m 510 829 b 247 721 406 829 318 793 b 142 444 176 649 142 557 b 247 168 142 332 176 240 b 510 60 318 96 406 60 b 769 168 613 60 699 96 b 875 444 840 240 875 332 b 769 721 875 557 840 649 b 510 829 699 793 613 829 "},"Ö":{"ha":1018,"x_min":0,"x_max":0,"o":"m 403 967 b 344 1024 369 967 344 992 b 403 1083 344 1058 369 1083 b 463 1024 438 1083 463 1058 b 403 967 463 992 438 967 m 556 1024 b 675 1024 556 1101 675 1101 b 615 967 675 992 649 967 b 556 1024 582 967 556 992 m 510 907 b 829 775 636 907 743 863 b 960 444 917 688 960 578 b 829 114 960 311 917 201 b 510 -17 743 26 636 -17 b 189 114 383 -17 276 26 b 60 444 103 201 60 311 b 189 775 60 578 103 688 b 510 907 275 863 382 907 m 510 829 b 247 721 406 829 318 793 b 142 444 176 649 142 557 b 247 168 142 332 176 240 b 510 60 318 96 406 60 b 769 168 613 60 699 96 b 875 444 840 240 875 332 b 769 721 875 557 840 649 b 510 829 699 793 613 829 "},"×":{"ha":819,"x_min":0,"x_max":0,"o":"m 197 239 b 197 258 190 246 190 251 l 364 425 l 201 586 b 201 606 196 592 196 599 l 226 633 b 246 635 233 640 239 642 l 410 471 l 574 636 b 593 636 581 643 586 643 l 622 606 b 622 586 628 599 628 592 l 458 422 l 622 257 b 622 238 629 250 629 244 l 596 211 b 576 211 589 204 583 204 l 413 376 l 246 210 b 226 210 239 203 233 203 "},"Ø":{"ha":1018,"x_min":0,"x_max":0,"o":"m 510 907 b 829 775 636 907 743 863 b 960 444 917 688 960 578 b 829 114 960 311 917 201 b 510 -17 743 26 636 -17 b 189 114 383 -17 276 26 b 60 444 103 201 60 311 b 189 775 60 578 103 688 b 510 907 275 863 382 907 m 510 831 b 247 722 406 831 318 794 b 142 444 176 650 142 557 b 178 269 142 381 154 322 l 803 682 b 510 831 736 776 628 831 m 510 60 b 769 168 613 60 699 96 b 875 444 840 240 875 332 b 839 619 875 508 863 567 l 215 207 b 510 60 282 114 389 60 "},"Ù":{"ha":864,"x_min":0,"x_max":0,"o":"m 443 963 b 424 961 436 956 431 956 l 258 1097 b 258 1117 250 1104 250 1110 l 290 1149 b 310 1147 297 1156 303 1154 l 451 989 b 450 969 457 982 457 976 m 99 876 b 113 890 99 886 103 890 l 167 890 b 181 876 176 890 181 886 l 181 300 b 254 114 182 213 206 151 b 433 60 303 78 363 60 b 611 118 504 60 563 79 b 685 300 660 157 685 218 l 685 876 b 699 890 685 886 689 890 l 751 890 b 765 876 761 890 765 886 l 765 299 b 669 63 765 194 733 115 b 433 -17 606 10 526 -17 b 99 299 272 -17 99 64 "},"Ú":{"ha":864,"x_min":0,"x_max":0,"o":"m 442 961 b 422 963 435 956 429 956 l 415 969 b 414 989 408 976 408 982 l 556 1147 b 575 1149 563 1154 568 1156 l 607 1117 b 607 1097 615 1110 615 1104 m 99 876 b 113 890 99 886 103 890 l 167 890 b 181 876 176 890 181 886 l 181 300 b 254 114 182 213 206 151 b 433 60 303 78 363 60 b 611 118 504 60 563 79 b 685 300 660 157 685 218 l 685 876 b 699 890 685 886 689 890 l 751 890 b 765 876 761 890 765 886 l 765 299 b 669 63 765 194 733 115 b 433 -17 606 10 526 -17 b 99 299 272 -17 99 64 "},"Û":{"ha":864,"x_min":0,"x_max":0,"o":"m 288 972 b 285 992 281 978 279 985 l 385 1119 b 403 1128 389 1125 396 1128 l 463 1128 b 481 1119 471 1128 476 1125 l 581 992 b 578 972 586 985 585 978 l 560 960 b 540 961 553 956 546 956 l 432 1068 l 325 961 b 306 960 319 956 313 956 m 99 876 b 113 890 99 886 103 890 l 167 890 b 181 876 176 890 181 886 l 181 300 b 254 114 182 213 206 151 b 433 60 303 78 363 60 b 611 118 504 60 563 79 b 685 300 660 157 685 218 l 685 876 b 699 890 685 886 689 890 l 751 890 b 765 876 761 890 765 886 l 765 299 b 669 63 765 194 733 115 b 433 -17 606 10 526 -17 b 99 299 272 -17 99 64 "},"Ü":{"ha":864,"x_min":0,"x_max":0,"o":"m 326 951 b 268 1008 293 951 268 976 b 326 1068 268 1043 293 1068 b 386 1008 361 1068 386 1043 b 326 951 386 976 361 951 m 479 1008 b 599 1008 479 1086 599 1086 b 539 951 599 976 572 951 b 479 1008 506 951 479 976 m 99 876 b 113 890 99 886 103 890 l 167 890 b 181 876 176 890 181 886 l 181 300 b 254 114 182 213 206 151 b 433 60 303 78 363 60 b 611 118 504 60 563 79 b 685 300 660 157 685 218 l 685 876 b 699 890 685 886 689 890 l 751 890 b 765 876 761 890 765 886 l 765 299 b 669 63 765 194 733 115 b 433 -17 606 10 526 -17 b 99 299 272 -17 99 64 "},"Ý":{"ha":794,"x_min":0,"x_max":0,"o":"m 408 960 b 389 961 401 954 396 954 l 382 968 b 381 988 375 975 375 981 l 522 1146 b 542 1147 529 1153 535 1154 l 574 1115 b 574 1096 582 1108 582 1103 m 26 874 b 36 890 21 883 25 890 l 94 890 b 111 882 101 890 107 888 l 400 453 l 685 882 b 701 890 689 888 694 890 l 760 890 b 769 874 771 890 775 883 l 440 378 l 440 14 b 426 0 440 4 436 0 l 374 0 b 360 14 364 0 360 4 l 360 378 "},"Þ":{"ha":775,"x_min":0,"x_max":0,"o":"m 449 728 b 726 446 619 728 726 617 b 650 243 726 364 701 297 b 447 163 600 189 532 163 l 193 163 l 193 14 b 179 0 193 4 189 0 l 124 0 b 110 14 114 0 110 4 l 110 876 b 124 890 110 886 114 890 l 179 890 b 193 876 189 890 193 886 l 193 728 m 433 238 b 643 450 565 238 643 324 b 440 650 643 572 564 650 l 193 650 l 193 238 "},"ß":{"ha":683,"x_min":0,"x_max":0,"o":"m 121 0 b 107 14 111 0 107 4 l 107 640 b 360 907 107 803 206 907 b 586 713 494 907 586 829 b 544 596 586 664 572 625 b 482 540 518 567 510 561 l 401 486 b 343 411 357 458 343 440 b 358 374 343 397 349 385 b 456 322 381 353 393 349 b 565 260 506 300 531 288 b 618 143 603 232 618 193 b 435 -17 618 44 536 -17 b 268 117 342 -17 278 35 b 279 132 267 125 269 131 l 317 139 b 332 126 326 140 332 136 b 433 46 336 78 376 46 b 544 139 499 46 544 82 b 525 196 544 160 538 179 b 425 263 501 229 476 239 b 376 282 418 267 383 281 l 354 292 b 314 315 332 303 331 306 b 265 410 285 338 267 365 b 344 531 265 453 292 493 l 435 590 b 507 707 483 624 507 663 b 360 836 507 785 444 836 b 186 653 253 836 186 760 l 186 14 b 172 0 186 4 182 0 "},"à":{"ha":761,"x_min":0,"x_max":0,"o":"m 357 719 b 356 700 363 713 363 707 l 349 693 b 329 692 342 686 336 686 l 164 828 b 164 847 156 835 156 840 l 196 879 b 215 878 203 886 208 885 m 588 592 b 601 606 588 601 592 606 l 653 606 b 667 592 663 606 667 601 l 667 14 b 653 0 667 4 663 0 l 601 0 b 588 14 592 0 588 4 l 588 76 b 364 -17 536 14 461 -17 b 144 71 274 -17 201 13 b 61 303 89 129 61 207 b 144 535 61 399 89 476 b 364 622 201 593 274 622 b 588 529 461 622 536 592 m 376 56 b 588 169 471 56 553 101 l 588 436 b 376 550 553 504 471 550 b 206 482 306 550 249 528 b 140 303 163 436 140 376 b 206 124 140 229 163 169 b 376 56 249 78 306 56 "},"á":{"ha":761,"x_min":0,"x_max":0,"o":"m 513 847 b 513 828 521 840 521 835 l 347 692 b 328 693 340 686 335 686 l 321 700 b 319 719 314 707 314 713 l 461 878 b 481 879 468 885 474 886 m 588 592 b 601 606 588 601 592 606 l 653 606 b 667 592 663 606 667 601 l 667 14 b 653 0 667 4 663 0 l 601 0 b 588 14 592 0 588 4 l 588 76 b 364 -17 536 14 461 -17 b 144 71 274 -17 201 13 b 61 303 89 129 61 207 b 144 535 61 399 89 476 b 364 622 201 593 274 622 b 588 529 461 622 536 592 m 376 56 b 588 169 471 56 553 101 l 588 436 b 376 550 553 504 471 550 b 206 482 306 550 249 528 b 140 303 163 436 140 376 b 206 124 140 229 163 169 b 376 56 249 78 306 56 "},"â":{"ha":761,"x_min":0,"x_max":0,"o":"m 336 799 l 229 692 b 210 690 224 686 217 686 l 192 703 b 189 722 185 708 185 715 l 289 850 b 307 858 293 856 299 858 l 367 858 b 385 850 375 858 381 856 l 483 722 b 481 703 489 715 488 708 l 464 690 b 444 692 457 685 451 685 m 588 592 b 601 606 588 601 592 606 l 653 606 b 667 592 663 606 667 601 l 667 14 b 653 0 667 4 663 0 l 601 0 b 588 14 592 0 588 4 l 588 76 b 364 -17 536 14 461 -17 b 144 71 274 -17 201 13 b 61 303 89 129 61 207 b 144 535 61 399 89 476 b 364 622 201 593 274 622 b 588 529 461 622 536 592 m 376 56 b 588 169 471 56 553 101 l 588 436 b 376 550 553 504 471 550 b 206 482 306 550 249 528 b 140 303 163 436 140 376 b 206 124 140 229 163 169 b 376 56 249 78 306 56 "},"ã":{"ha":761,"x_min":0,"x_max":0,"o":"m 235 713 b 221 699 233 703 228 699 l 203 699 b 188 711 193 699 189 703 b 265 814 181 778 214 814 b 338 788 285 814 308 806 b 404 763 367 771 389 763 b 440 803 426 763 439 776 b 454 817 440 813 444 817 l 474 817 b 488 804 483 817 488 813 b 403 703 494 742 458 703 b 328 728 382 703 357 711 b 268 753 300 744 281 753 b 235 713 247 753 236 739 m 588 592 b 601 606 588 601 592 606 l 653 606 b 667 592 663 606 667 601 l 667 14 b 653 0 667 4 663 0 l 601 0 b 588 14 592 0 588 4 l 588 76 b 364 -17 536 14 461 -17 b 144 71 274 -17 201 13 b 61 303 89 129 61 207 b 144 535 61 399 89 476 b 364 622 201 593 274 622 b 588 529 461 622 536 592 m 376 56 b 588 169 471 56 553 101 l 588 436 b 376 550 553 504 471 550 b 206 482 306 550 249 528 b 140 303 163 436 140 376 b 206 124 140 229 163 169 b 376 56 249 78 306 56 "},"ä":{"ha":761,"x_min":0,"x_max":0,"o":"m 231 694 b 172 751 197 694 172 719 b 231 811 172 786 197 811 b 290 751 265 811 290 786 b 231 694 290 719 265 694 m 383 751 b 503 751 383 829 503 829 b 443 694 503 719 476 694 b 383 751 410 694 383 719 m 588 592 b 601 606 588 601 592 606 l 653 606 b 667 592 663 606 667 601 l 667 14 b 653 0 667 4 663 0 l 601 0 b 588 14 592 0 588 4 l 588 76 b 364 -17 536 14 461 -17 b 144 71 274 -17 201 13 b 61 303 89 129 61 207 b 144 535 61 399 89 476 b 364 622 201 593 274 622 b 588 529 461 622 536 592 m 376 56 b 588 169 471 56 553 101 l 588 436 b 376 550 553 504 471 550 b 206 482 306 550 249 528 b 140 303 163 436 140 376 b 206 124 140 229 163 169 b 376 56 249 78 306 56 "},"å":{"ha":761,"x_min":0,"x_max":0,"o":"m 338 657 b 207 782 260 657 207 710 b 338 910 207 854 261 910 b 468 782 414 910 468 854 b 338 657 468 710 414 657 m 338 851 b 272 786 304 851 272 824 b 403 786 272 697 403 697 b 338 851 403 824 372 851 m 588 592 b 601 606 588 601 592 606 l 653 606 b 667 592 663 606 667 601 l 667 14 b 653 0 667 4 663 0 l 601 0 b 588 14 592 0 588 4 l 588 76 b 364 -17 536 14 461 -17 b 144 71 274 -17 201 13 b 61 303 89 129 61 207 b 144 535 61 399 89 476 b 364 622 201 593 274 622 b 588 529 461 622 536 592 m 376 56 b 588 169 471 56 553 101 l 588 436 b 376 550 553 504 471 550 b 206 482 306 550 249 528 b 140 303 163 436 140 376 b 206 124 140 229 163 169 b 376 56 249 78 306 56 "},"æ":{"ha":1239,"x_min":0,"x_max":0,"o":"m 1181 310 b 1167 297 1181 301 1176 297 l 679 297 b 907 53 674 146 767 53 b 1099 150 999 54 1063 88 b 1118 154 1103 157 1110 158 l 1156 131 b 1160 113 1163 126 1164 119 b 906 -17 1111 33 1015 -17 b 664 90 799 -17 718 19 l 664 14 b 650 0 664 4 660 0 l 601 0 b 588 14 592 0 588 4 l 588 76 b 364 -17 536 14 461 -17 b 144 71 274 -17 201 13 b 61 303 89 129 61 207 b 144 535 61 399 89 476 b 364 622 201 593 274 622 b 588 529 461 622 536 592 l 588 592 b 601 606 588 601 592 606 l 650 606 b 664 592 660 606 664 601 l 664 511 b 901 622 719 585 799 622 b 1104 546 985 622 1053 597 b 1183 350 1157 496 1183 431 b 1181 310 1183 340 1182 326 m 1106 357 b 900 553 1104 475 1022 553 b 681 357 778 553 693 478 m 376 56 b 588 169 471 56 553 101 l 588 436 b 376 550 553 504 471 550 b 206 482 306 550 249 528 b 140 303 163 436 140 376 b 206 124 140 229 163 169 b 376 56 249 78 306 56 "},"ç":{"ha":694,"x_min":0,"x_max":0,"o":"m 367 56 b 558 153 458 56 522 88 b 576 160 563 160 568 163 l 622 139 b 628 121 632 135 633 128 b 399 -15 588 43 500 -6 l 369 -65 b 458 -79 401 -58 431 -62 b 501 -158 488 -96 501 -122 b 463 -239 501 -193 489 -219 b 292 -244 411 -279 343 -268 b 283 -228 286 -240 283 -235 l 283 -200 b 299 -192 283 -189 289 -186 b 382 -207 322 -208 350 -214 b 432 -157 415 -201 432 -185 b 344 -111 432 -125 393 -104 b 326 -104 336 -111 331 -108 l 317 -93 b 314 -74 313 -87 311 -81 l 342 -15 b 138 81 257 -8 189 24 b 61 303 86 138 61 213 b 146 535 61 399 89 476 b 371 622 203 593 278 622 b 628 485 486 622 582 569 b 622 467 633 478 632 471 l 576 446 b 558 453 568 443 563 446 b 367 550 522 518 458 550 b 140 303 232 550 140 451 b 367 56 140 154 232 56 "},"è":{"ha":700,"x_min":0,"x_max":0,"o":"m 372 693 b 353 692 365 686 360 686 l 188 828 b 188 847 179 835 179 840 l 219 879 b 239 878 226 886 232 885 l 381 719 b 379 700 386 713 386 707 m 61 304 b 144 535 61 400 89 476 b 361 622 200 593 272 622 b 565 546 446 622 514 597 b 644 350 618 496 644 431 b 640 308 644 336 643 322 b 626 296 640 300 636 296 l 140 296 b 368 53 136 144 228 53 b 560 150 458 54 522 88 b 579 154 564 158 569 160 l 615 131 b 619 113 624 125 625 119 b 367 -17 571 31 476 -17 b 61 304 174 -17 61 108 m 565 357 b 360 553 565 475 483 553 b 142 357 236 553 153 478 "},"é":{"ha":700,"x_min":0,"x_max":0,"o":"m 371 692 b 351 693 364 686 358 686 l 344 700 b 343 719 338 707 338 713 l 485 878 b 504 879 492 885 497 886 l 536 847 b 536 828 544 840 544 835 m 61 304 b 144 535 61 400 89 476 b 361 622 200 593 272 622 b 565 546 446 622 514 597 b 644 350 618 496 644 431 b 640 308 644 336 643 322 b 626 296 640 300 636 296 l 140 296 b 368 53 136 144 228 53 b 560 150 458 54 522 88 b 579 154 564 158 569 160 l 615 131 b 619 113 624 125 625 119 b 367 -17 571 31 476 -17 b 61 304 174 -17 61 108 m 565 357 b 360 553 565 475 483 553 b 142 357 236 553 153 478 "},"ê":{"ha":700,"x_min":0,"x_max":0,"o":"m 215 703 b 213 722 208 708 207 715 l 313 850 b 331 858 317 856 324 858 l 390 858 b 408 850 399 858 404 856 l 508 722 b 506 703 514 715 513 708 l 488 690 b 468 692 481 686 474 686 l 360 799 l 253 692 b 233 690 247 686 240 686 m 61 304 b 144 535 61 400 89 476 b 361 622 200 593 272 622 b 565 546 446 622 514 597 b 644 350 618 496 644 431 b 640 308 644 336 643 322 b 626 296 640 300 636 296 l 140 296 b 368 53 136 144 228 53 b 560 150 458 54 522 88 b 579 154 564 158 569 160 l 615 131 b 619 113 624 125 625 119 b 367 -17 571 31 476 -17 b 61 304 174 -17 61 108 m 565 357 b 360 553 565 475 483 553 b 142 357 236 553 153 478 "},"ë":{"ha":700,"x_min":0,"x_max":0,"o":"m 254 694 b 196 751 221 694 196 719 b 254 811 196 786 221 811 b 314 751 289 811 314 786 b 254 694 314 719 289 694 m 407 751 b 526 751 407 829 526 829 b 467 694 526 719 500 694 b 407 751 433 694 407 719 m 61 304 b 144 535 61 400 89 476 b 361 622 200 593 272 622 b 565 546 446 622 514 597 b 644 350 618 496 644 431 b 640 308 644 336 643 322 b 626 296 640 300 636 296 l 140 296 b 368 53 136 144 228 53 b 560 150 458 54 522 88 b 579 154 564 158 569 160 l 615 131 b 619 113 624 125 625 119 b 367 -17 571 31 476 -17 b 61 304 174 -17 61 108 m 565 357 b 360 553 565 475 483 553 b 142 357 236 553 153 478 "},"ì":{"ha":294,"x_min":0,"x_max":0,"o":"m 157 682 b 138 681 150 675 144 675 l -28 817 b -28 836 -36 824 -36 829 l 4 868 b 24 867 11 875 17 874 l 165 708 b 164 689 171 701 171 696 m 107 592 b 121 606 107 601 111 606 l 174 606 b 188 592 183 606 188 601 l 188 14 b 174 0 188 4 183 0 l 121 0 b 107 14 111 0 107 4 "},"í":{"ha":294,"x_min":0,"x_max":0,"o":"m 156 681 b 136 682 149 675 143 675 l 129 689 b 128 708 122 696 122 701 l 269 867 b 289 868 276 874 282 875 l 321 836 b 321 817 329 829 329 824 m 107 592 b 121 606 107 601 111 606 l 174 606 b 188 592 183 606 188 601 l 188 14 b 174 0 188 4 183 0 l 121 0 b 107 14 111 0 107 4 "},"î":{"ha":294,"x_min":0,"x_max":0,"o":"m 0 692 b -3 711 -7 697 -8 704 l 97 839 b 115 847 101 844 107 847 l 175 847 b 193 839 182 847 189 844 l 293 711 b 290 692 299 704 297 697 l 272 679 b 253 681 265 675 258 675 l 144 788 l 38 681 b 18 679 32 675 25 675 m 107 592 b 121 606 107 601 111 606 l 174 606 b 188 592 183 606 188 601 l 188 14 b 174 0 188 4 183 0 l 121 0 b 107 14 111 0 107 4 "},"ï":{"ha":294,"x_min":0,"x_max":0,"o":"m 39 671 b -19 728 6 671 -19 696 b 39 788 -19 763 6 788 b 99 728 74 788 99 763 b 39 671 99 696 74 671 m 192 728 b 311 728 192 806 311 806 b 251 671 311 696 285 671 b 192 728 218 671 192 696 m 107 592 b 121 606 107 601 111 606 l 174 606 b 188 592 183 606 188 601 l 188 14 b 174 0 188 4 183 0 l 121 0 b 107 14 111 0 107 4 "},"ð":{"ha":753,"x_min":0,"x_max":0,"o":"m 549 590 b 590 544 550 586 581 556 b 638 483 600 535 626 501 b 675 399 649 465 668 428 b 692 293 685 371 692 332 b 604 69 692 201 663 126 b 376 -17 547 13 471 -17 b 147 69 281 -17 204 13 b 61 293 90 126 61 201 b 149 517 61 383 90 458 b 379 606 207 576 283 606 b 436 601 400 606 419 604 l 331 717 l 169 642 b 151 649 163 638 156 640 l 139 675 b 146 693 135 682 138 689 l 290 760 l 185 874 b 193 890 178 883 182 890 l 254 890 b 271 883 261 890 267 888 l 357 792 l 504 860 b 522 853 514 864 519 863 l 533 826 b 526 808 536 819 533 813 l 399 749 m 613 294 b 506 532 613 383 576 463 b 378 544 468 542 426 546 b 206 471 306 542 249 517 b 143 296 164 425 143 367 b 207 122 143 225 164 167 b 376 56 250 78 306 56 b 613 294 517 56 613 154 "},"ñ":{"ha":746,"x_min":0,"x_max":0,"o":"m 264 713 b 250 699 263 703 257 699 l 232 699 b 217 711 224 699 218 703 b 294 814 210 778 243 814 b 367 788 314 814 338 806 b 433 763 396 771 418 763 b 469 803 456 763 468 776 b 483 817 469 813 474 817 l 503 817 b 517 804 513 817 517 813 b 432 703 524 742 488 703 b 357 728 411 703 386 711 b 297 753 329 744 310 753 b 264 713 276 753 265 739 m 397 622 b 653 371 557 622 653 526 l 653 14 b 639 0 653 4 649 0 l 586 0 b 572 14 576 0 572 4 l 572 357 b 383 550 572 486 510 550 b 186 454 299 550 233 518 l 186 14 b 172 0 186 4 182 0 l 121 0 b 107 14 111 0 107 4 l 107 592 b 121 606 107 601 111 606 l 172 606 b 186 592 182 606 186 601 l 186 539 b 397 622 243 594 314 622 "},"ò":{"ha":760,"x_min":0,"x_max":0,"o":"m 390 693 b 371 692 383 686 378 686 l 206 828 b 206 847 197 835 197 840 l 238 879 b 257 878 244 886 250 885 l 399 719 b 397 700 404 713 404 707 m 61 301 b 149 529 61 392 90 468 b 379 622 208 592 285 622 b 611 529 475 622 551 592 b 700 301 671 468 700 392 b 610 75 700 211 669 136 b 379 -17 550 14 474 -17 b 150 75 286 -17 210 14 b 61 301 90 136 61 211 m 140 301 b 207 126 140 231 163 172 b 379 57 253 81 310 57 b 551 126 450 57 507 81 b 619 301 597 172 619 231 b 551 478 619 372 597 431 b 379 549 507 525 450 549 b 207 478 310 549 253 525 b 140 301 163 432 140 372 "},"ó":{"ha":760,"x_min":0,"x_max":0,"o":"m 389 692 b 369 693 382 686 376 686 l 363 700 b 361 719 356 707 356 713 l 503 878 b 522 879 510 885 515 886 l 554 847 b 554 828 563 840 563 835 m 61 301 b 149 529 61 392 90 468 b 379 622 208 592 285 622 b 611 529 475 622 551 592 b 700 301 671 468 700 392 b 610 75 700 211 669 136 b 379 -17 550 14 474 -17 b 150 75 286 -17 210 14 b 61 301 90 136 61 211 m 140 301 b 207 126 140 231 163 172 b 379 57 253 81 310 57 b 551 126 450 57 507 81 b 619 301 597 172 619 231 b 551 478 619 372 597 431 b 379 549 507 525 450 549 b 207 478 310 549 253 525 b 140 301 163 432 140 372 "},"ô":{"ha":760,"x_min":0,"x_max":0,"o":"m 233 703 b 231 722 226 708 225 715 l 331 850 b 349 858 335 856 340 858 l 408 858 b 426 850 415 858 422 856 l 526 722 b 524 703 532 715 531 708 l 506 690 b 486 692 499 686 492 686 l 378 799 l 271 692 b 251 690 265 686 258 686 m 61 301 b 149 529 61 392 90 468 b 379 622 208 592 285 622 b 611 529 475 622 551 592 b 700 301 671 468 700 392 b 610 75 700 211 669 136 b 379 -17 550 14 474 -17 b 150 75 286 -17 210 14 b 61 301 90 136 61 211 m 140 301 b 207 126 140 231 163 172 b 379 57 253 81 310 57 b 551 126 450 57 507 81 b 619 301 597 172 619 231 b 551 478 619 372 597 431 b 379 549 507 525 450 549 b 207 478 310 549 253 525 b 140 301 163 432 140 372 "},"õ":{"ha":760,"x_min":0,"x_max":0,"o":"m 244 699 b 229 711 235 699 231 703 b 307 814 222 778 256 814 b 379 788 326 814 350 806 b 446 763 408 771 431 763 b 482 803 468 763 481 776 b 496 817 482 813 486 817 l 515 817 b 529 804 525 817 529 813 b 444 703 536 742 500 703 b 369 728 424 703 399 711 b 310 753 342 744 322 753 b 276 713 289 753 278 739 b 263 699 275 703 269 699 m 61 301 b 149 529 61 392 90 468 b 379 622 208 592 285 622 b 611 529 475 622 551 592 b 700 301 671 468 700 392 b 610 75 700 211 669 136 b 379 -17 550 14 474 -17 b 150 75 286 -17 210 14 b 61 301 90 136 61 211 m 140 301 b 207 126 140 231 163 172 b 379 57 253 81 310 57 b 551 126 450 57 507 81 b 619 301 597 172 619 231 b 551 478 619 372 597 431 b 379 549 507 525 450 549 b 207 478 310 549 253 525 b 140 301 163 432 140 372 "},"ö":{"ha":760,"x_min":0,"x_max":0,"o":"m 272 682 b 214 739 239 682 214 707 b 272 799 214 774 239 799 b 332 739 307 799 332 774 b 272 682 332 707 307 682 m 425 739 b 544 739 425 817 544 817 b 485 682 544 707 518 682 b 425 739 451 682 425 707 m 61 301 b 149 529 61 392 90 468 b 379 622 208 592 285 622 b 611 529 475 622 551 592 b 700 301 671 468 700 392 b 610 75 700 211 669 136 b 379 -17 550 14 474 -17 b 150 75 286 -17 210 14 b 61 301 90 136 61 211 m 140 301 b 207 126 140 231 163 172 b 379 57 253 81 310 57 b 551 126 450 57 507 81 b 619 301 597 172 619 231 b 551 478 619 372 597 431 b 379 549 507 525 450 549 b 207 478 310 549 253 525 b 140 301 163 432 140 372 "},"÷":{"ha":850,"x_min":0,"x_max":0,"o":"m 425 571 b 350 643 385 571 350 604 b 425 718 350 683 385 718 b 500 643 465 718 500 683 b 425 571 500 604 464 571 m 188 433 b 201 447 188 443 192 447 l 649 447 b 663 433 658 447 663 443 l 663 388 b 649 374 663 378 658 374 l 201 374 b 188 388 192 374 188 378 m 350 178 b 425 251 350 218 385 251 b 478 126 486 253 528 168 b 350 178 435 81 347 117 "},"ø":{"ha":760,"x_min":0,"x_max":0,"o":"m 582 557 b 700 301 661 494 700 408 b 610 75 700 211 669 136 b 379 -17 550 14 474 -17 b 242 11 329 -17 283 -7 l 201 -53 b 183 -57 197 -60 190 -61 l 150 -36 b 144 -17 143 -31 140 -24 l 183 46 b 61 301 101 107 61 192 b 149 529 61 392 90 468 b 379 622 208 592 285 622 b 525 592 431 622 479 613 l 564 654 b 582 658 568 661 575 663 l 615 638 b 621 618 622 633 625 626 m 140 301 b 225 111 140 221 168 157 l 485 526 b 379 549 450 542 415 549 b 207 478 310 549 253 525 b 140 301 163 432 140 372 m 379 57 b 551 126 450 57 507 81 b 619 301 597 172 619 231 b 540 490 619 379 593 442 l 282 76 b 379 57 313 64 344 57 "},"ù":{"ha":726,"x_min":0,"x_max":0,"o":"m 382 704 b 381 685 388 697 388 692 l 374 678 b 354 676 367 671 361 671 l 189 813 b 189 832 181 819 181 825 l 221 864 b 240 863 228 871 233 869 m 546 592 b 560 606 546 601 550 606 l 611 606 b 625 592 621 606 625 601 l 625 14 b 611 0 625 4 621 0 l 560 0 b 546 14 550 0 546 4 l 546 67 b 335 -17 489 11 418 -17 b 100 235 185 -17 100 79 l 100 592 b 114 606 100 601 104 606 l 165 606 b 179 592 175 606 179 601 l 179 249 b 350 56 179 119 236 56 b 546 149 432 54 497 85 "},"ú":{"ha":726,"x_min":0,"x_max":0,"o":"m 538 832 b 538 813 546 825 546 819 l 372 676 b 353 678 365 671 360 671 l 346 685 b 344 704 339 692 339 697 l 486 863 b 506 864 493 869 499 871 m 546 592 b 560 606 546 601 550 606 l 611 606 b 625 592 621 606 625 601 l 625 14 b 611 0 625 4 621 0 l 560 0 b 546 14 550 0 546 4 l 546 67 b 335 -17 489 11 418 -17 b 100 235 185 -17 100 79 l 100 592 b 114 606 100 601 104 606 l 165 606 b 179 592 175 606 179 601 l 179 249 b 350 56 179 119 236 56 b 546 149 432 54 497 85 "},"û":{"ha":726,"x_min":0,"x_max":0,"o":"m 361 783 l 254 676 b 235 675 249 671 242 671 l 217 688 b 214 707 210 693 210 700 l 314 835 b 332 843 318 840 324 843 l 392 843 b 410 835 399 843 406 840 l 510 707 b 507 688 515 700 514 693 l 489 675 b 469 676 482 671 475 671 m 546 592 b 560 606 546 601 550 606 l 611 606 b 625 592 621 606 625 601 l 625 14 b 611 0 625 4 621 0 l 560 0 b 546 14 550 0 546 4 l 546 67 b 335 -17 489 11 418 -17 b 100 235 185 -17 100 79 l 100 592 b 114 606 100 601 104 606 l 165 606 b 179 592 175 606 179 601 l 179 249 b 350 56 179 119 236 56 b 546 149 432 54 497 85 "},"ü":{"ha":726,"x_min":0,"x_max":0,"o":"m 256 667 b 197 724 222 667 197 692 b 256 783 197 758 222 783 b 315 724 290 783 315 758 b 256 667 315 692 290 667 m 408 724 b 528 724 408 801 528 801 b 468 667 528 692 501 667 b 408 724 435 667 408 692 m 546 592 b 560 606 546 601 550 606 l 611 606 b 625 592 621 606 625 601 l 625 14 b 611 0 625 4 621 0 l 560 0 b 546 14 550 0 546 4 l 546 67 b 335 -17 489 11 418 -17 b 100 235 185 -17 100 79 l 100 592 b 114 606 100 601 104 606 l 165 606 b 179 592 175 606 179 601 l 179 249 b 350 56 179 119 236 56 b 546 149 432 54 497 85 "},"ý":{"ha":668,"x_min":0,"x_max":0,"o":"m 319 676 b 300 678 313 671 307 671 l 293 685 b 292 704 286 692 286 697 l 433 863 b 453 864 440 869 446 871 l 485 832 b 485 813 493 825 493 819 m 28 589 b 39 606 22 599 28 606 l 97 606 b 114 596 106 606 111 603 l 332 188 l 551 596 b 568 606 554 603 560 606 l 629 606 b 639 589 639 606 644 599 l 178 -254 b 161 -264 175 -261 169 -264 l 103 -264 b 92 -247 92 -264 86 -257 l 288 111 "},"þ":{"ha":776,"x_min":0,"x_max":0,"o":"m 410 622 b 631 535 500 622 574 593 b 715 303 688 476 715 399 b 631 71 715 207 688 129 b 410 -17 574 13 500 -17 b 182 81 310 -17 233 15 l 182 -250 b 168 -264 182 -260 178 -264 l 117 -264 b 103 -250 107 -264 103 -260 l 103 882 b 117 896 103 892 107 896 l 168 896 b 182 882 178 896 182 892 l 182 525 b 410 622 233 590 310 622 m 397 56 b 632 303 538 56 632 154 b 397 550 632 451 538 550 b 182 428 299 550 215 501 l 182 178 b 397 56 215 104 299 56 "},"ÿ":{"ha":668,"x_min":0,"x_max":0,"o":"m 203 667 b 144 724 169 667 144 692 b 203 783 144 758 169 783 b 263 724 238 783 263 758 b 203 667 263 692 238 667 m 356 724 b 475 724 356 801 475 801 b 415 667 475 692 449 667 b 356 724 382 667 356 692 m 28 589 b 39 606 22 599 28 606 l 97 606 b 114 596 106 606 111 603 l 332 188 l 551 596 b 568 606 554 603 560 606 l 629 606 b 639 589 639 606 644 599 l 178 -254 b 161 -264 175 -261 169 -264 l 103 -264 b 92 -247 92 -264 86 -257 l 288 111 "},"Ā":{"ha":886,"x_min":0,"x_max":0,"o":"m 582 1036 b 596 1022 592 1036 596 1032 l 596 982 b 582 968 596 972 592 968 l 301 968 b 288 982 292 968 288 972 l 288 1022 b 301 1036 288 1032 292 1036 m 792 0 b 776 11 785 0 779 4 l 675 250 l 208 250 l 106 11 b 90 0 103 4 97 0 l 35 0 b 24 17 22 0 19 6 l 394 879 b 410 890 397 886 403 890 l 472 890 b 488 879 479 890 485 886 l 861 17 b 850 0 865 6 863 0 m 238 319 l 646 319 l 442 800 "},"ā":{"ha":761,"x_min":0,"x_max":0,"o":"m 479 767 b 493 753 489 767 493 763 l 493 713 b 479 699 493 703 489 699 l 199 699 b 185 713 189 699 185 703 l 185 753 b 199 767 185 763 189 767 m 588 592 b 601 606 588 601 592 606 l 653 606 b 667 592 663 606 667 601 l 667 14 b 653 0 667 4 663 0 l 601 0 b 588 14 592 0 588 4 l 588 76 b 364 -17 536 14 461 -17 b 144 71 274 -17 201 13 b 61 303 89 129 61 207 b 144 535 61 399 89 476 b 364 622 201 593 274 622 b 588 529 461 622 536 592 m 376 56 b 588 169 471 56 553 101 l 588 436 b 376 550 553 504 471 550 b 206 482 306 550 249 528 b 140 303 163 436 140 376 b 206 124 140 229 163 169 b 376 56 249 78 306 56 "},"Ă":{"ha":886,"x_min":0,"x_max":0,"o":"m 442 953 b 278 1083 358 953 294 1004 b 290 1099 275 1093 279 1099 l 328 1099 b 343 1086 335 1099 340 1094 b 442 1017 356 1040 389 1017 b 539 1086 493 1017 526 1040 b 554 1099 542 1094 547 1099 l 592 1099 b 604 1083 603 1099 607 1093 b 442 953 588 1004 524 953 m 792 0 b 776 11 785 0 779 4 l 675 250 l 208 250 l 106 11 b 90 0 103 4 97 0 l 35 0 b 24 17 22 0 19 6 l 394 879 b 410 890 397 886 403 890 l 472 890 b 488 879 479 890 485 886 l 861 17 b 850 0 865 6 863 0 m 238 319 l 646 319 l 442 800 "},"ă":{"ha":761,"x_min":0,"x_max":0,"o":"m 338 683 b 174 814 254 683 190 735 b 186 829 171 824 175 829 l 224 829 b 239 817 231 829 236 825 b 338 747 251 771 285 747 b 435 817 389 747 422 771 b 450 829 438 825 443 829 l 488 829 b 500 814 499 829 503 824 b 338 683 483 735 419 683 m 588 592 b 601 606 588 601 592 606 l 653 606 b 667 592 663 606 667 601 l 667 14 b 653 0 667 4 663 0 l 601 0 b 588 14 592 0 588 4 l 588 76 b 364 -17 536 14 461 -17 b 144 71 274 -17 201 13 b 61 303 89 129 61 207 b 144 535 61 399 89 476 b 364 622 201 593 274 622 b 588 529 461 622 536 592 m 376 56 b 588 169 471 56 553 101 l 588 436 b 376 550 553 504 471 550 b 206 482 306 550 249 528 b 140 303 163 436 140 376 b 206 124 140 229 163 169 b 376 56 249 78 306 56 "},"Ą":{"ha":886,"x_min":0,"x_max":0,"o":"m 867 -135 b 883 -144 876 -133 882 -136 l 888 -167 b 879 -185 889 -176 886 -182 b 832 -193 865 -190 850 -193 b 733 -101 769 -193 733 -157 b 783 0 733 -61 750 -28 l 781 0 l 675 250 l 208 250 l 106 11 b 90 0 103 4 97 0 l 35 0 b 24 17 22 0 19 6 l 394 879 b 410 890 397 886 403 890 l 472 890 b 488 879 479 890 485 886 l 863 13 l 864 11 l 864 10 b 864 0 867 3 867 0 l 858 0 b 789 -90 813 -24 789 -53 b 842 -139 789 -119 810 -139 b 867 -135 850 -139 858 -137 m 238 319 l 646 319 l 442 800 "},"ą":{"ha":761,"x_min":0,"x_max":0,"o":"m 669 -135 b 686 -144 679 -133 685 -136 l 690 -167 b 682 -185 692 -176 689 -182 b 635 -193 668 -190 653 -193 b 536 -101 572 -193 536 -157 b 588 1 536 -61 553 -26 l 588 76 b 364 -17 536 14 461 -17 b 144 71 274 -17 201 13 b 61 303 89 129 61 207 b 144 535 61 399 89 476 b 364 622 201 593 274 622 b 588 529 461 622 536 592 l 588 592 b 601 606 588 601 592 606 l 653 606 b 667 592 663 606 667 601 l 667 14 b 664 0 667 4 665 0 l 661 0 b 592 -90 615 -24 592 -53 b 644 -139 592 -119 613 -139 b 669 -135 653 -139 661 -137 m 376 56 b 588 169 471 56 553 101 l 588 436 b 376 550 553 504 471 550 b 206 482 306 550 249 528 b 140 303 163 436 140 376 b 206 124 140 229 163 169 b 376 56 249 78 306 56 "},"Ć":{"ha":951,"x_min":0,"x_max":0,"o":"m 508 976 b 489 978 501 971 496 971 l 482 985 b 481 1004 475 992 475 997 l 622 1163 b 642 1164 629 1169 635 1171 l 674 1132 b 674 1113 682 1125 682 1119 m 60 446 b 181 778 60 582 100 693 b 499 907 263 864 368 907 b 888 682 676 907 826 819 b 881 664 892 675 889 668 l 828 639 b 810 647 819 635 814 638 b 497 832 765 754 643 832 b 240 725 393 832 307 796 b 142 446 175 654 142 561 b 240 164 142 329 175 235 b 497 58 307 93 393 58 b 810 243 643 58 765 136 b 828 251 814 253 819 256 l 881 226 b 888 208 889 222 892 215 b 499 -17 826 71 676 -17 b 181 111 368 -17 263 26 b 60 446 100 197 60 308 "},"ć":{"ha":694,"x_min":0,"x_max":0,"o":"m 381 692 b 361 693 374 686 368 686 l 354 700 b 353 719 347 707 347 713 l 494 878 b 514 879 501 885 507 886 l 546 847 b 546 828 554 840 554 835 m 371 622 b 628 485 486 622 582 569 b 622 467 633 478 632 471 l 576 446 b 558 453 568 443 563 446 b 367 550 522 518 458 550 b 140 303 232 550 140 451 b 367 56 140 154 232 56 b 558 153 458 56 522 88 b 576 160 563 160 568 163 l 622 139 b 628 121 632 135 633 128 b 371 -17 582 36 486 -17 b 146 71 278 -17 203 13 b 61 303 89 129 61 207 b 146 535 61 399 89 476 b 371 622 203 593 278 622 "},"Ĉ":{"ha":951,"x_min":0,"x_max":0,"o":"m 353 988 b 350 1007 346 993 344 1000 l 450 1135 b 468 1143 454 1140 460 1143 l 528 1143 b 546 1135 536 1143 542 1140 l 644 1007 b 642 988 650 1000 649 993 l 625 975 b 606 976 618 969 613 969 l 497 1083 l 390 976 b 371 975 385 971 378 971 m 60 446 b 181 778 60 582 100 693 b 499 907 263 864 368 907 b 888 682 676 907 826 819 b 881 664 892 675 889 668 l 828 639 b 810 647 819 635 814 638 b 497 832 765 754 643 832 b 240 725 393 832 307 796 b 142 446 175 654 142 561 b 240 164 142 329 175 235 b 497 58 307 93 393 58 b 810 243 643 58 765 136 b 828 251 814 253 819 256 l 881 226 b 888 208 889 222 892 215 b 499 -17 826 71 676 -17 b 181 111 368 -17 263 26 b 60 446 100 197 60 308 "},"ĉ":{"ha":694,"x_min":0,"x_max":0,"o":"m 225 703 b 222 722 218 708 217 715 l 322 850 b 340 858 326 856 332 858 l 400 858 b 418 850 408 858 414 856 l 517 722 b 514 703 522 715 521 708 l 497 690 b 478 692 490 685 485 685 l 369 799 l 263 692 b 243 690 257 686 250 686 m 371 622 b 628 485 486 622 582 569 b 622 467 633 478 632 471 l 576 446 b 558 453 568 443 563 446 b 367 550 522 518 458 550 b 140 303 232 550 140 451 b 367 56 140 154 232 56 b 558 153 458 56 522 88 b 576 160 563 160 568 163 l 622 139 b 628 121 632 135 633 128 b 371 -17 582 36 486 -17 b 146 71 278 -17 203 13 b 61 303 89 129 61 207 b 146 535 61 399 89 476 b 371 622 203 593 278 622 "},"Ċ":{"ha":951,"x_min":0,"x_max":0,"o":"m 497 981 b 439 1038 464 981 439 1006 b 497 1097 439 1072 464 1097 b 557 1038 532 1097 557 1072 b 497 981 557 1006 532 981 m 60 446 b 181 778 60 582 100 693 b 499 907 263 864 368 907 b 888 682 676 907 826 819 b 881 664 892 675 889 668 l 828 639 b 810 647 819 635 814 638 b 497 832 765 754 643 832 b 240 725 393 832 307 796 b 142 446 175 654 142 561 b 240 164 142 329 175 235 b 497 58 307 93 393 58 b 810 243 643 58 765 136 b 828 251 814 253 819 256 l 881 226 b 888 208 889 222 892 215 b 499 -17 826 71 676 -17 b 181 111 368 -17 263 26 b 60 446 100 197 60 308 "},"ċ":{"ha":694,"x_min":0,"x_max":0,"o":"m 369 696 b 311 753 336 696 311 721 b 369 813 311 788 336 813 b 429 753 404 813 429 788 b 369 696 429 721 404 696 m 371 622 b 628 485 486 622 582 569 b 622 467 633 478 632 471 l 576 446 b 558 453 568 443 563 446 b 367 550 522 518 458 550 b 140 303 232 550 140 451 b 367 56 140 154 232 56 b 558 153 458 56 522 88 b 576 160 563 160 568 163 l 622 139 b 628 121 632 135 633 128 b 371 -17 582 36 486 -17 b 146 71 278 -17 203 13 b 61 303 89 129 61 207 b 146 535 61 399 89 476 b 371 622 203 593 278 622 "},"Č":{"ha":951,"x_min":0,"x_max":0,"o":"m 351 1111 b 354 1131 346 1118 347 1125 l 372 1143 b 392 1142 379 1147 386 1147 l 499 1035 l 607 1142 b 626 1143 613 1147 619 1147 l 644 1131 b 647 1111 651 1125 651 1118 l 547 983 b 529 975 543 978 536 975 l 469 975 b 451 983 463 975 456 978 m 60 446 b 181 778 60 582 100 693 b 499 907 263 864 368 907 b 888 682 676 907 826 819 b 881 664 892 675 889 668 l 828 639 b 810 647 819 635 814 638 b 497 832 765 754 643 832 b 240 725 393 832 307 796 b 142 446 175 654 142 561 b 240 164 142 329 175 235 b 497 58 307 93 393 58 b 810 243 643 58 765 136 b 828 251 814 253 819 256 l 881 226 b 888 208 889 222 892 215 b 499 -17 826 71 676 -17 b 181 111 368 -17 263 26 b 60 446 100 197 60 308 "},"č":{"ha":694,"x_min":0,"x_max":0,"o":"m 224 826 b 226 846 218 833 219 840 l 244 858 b 264 857 251 863 258 863 l 371 750 l 479 857 b 499 858 485 863 492 863 l 517 846 b 519 826 524 840 524 833 l 419 699 b 401 690 415 693 410 690 l 342 690 b 324 699 333 690 328 693 m 371 622 b 628 485 486 622 582 569 b 622 467 633 478 632 471 l 576 446 b 558 453 568 443 563 446 b 367 550 522 518 458 550 b 140 303 232 550 140 451 b 367 56 140 154 232 56 b 558 153 458 56 522 88 b 576 160 563 160 568 163 l 622 139 b 628 121 632 135 633 128 b 371 -17 582 36 486 -17 b 146 71 278 -17 203 13 b 61 303 89 129 61 207 b 146 535 61 399 89 476 b 371 622 203 593 278 622 "},"Ď":{"ha":882,"x_min":0,"x_max":0,"o":"m 413 967 b 394 958 408 961 401 958 l 335 958 b 317 967 326 958 321 961 l 217 1094 b 219 1114 211 1101 213 1108 l 238 1126 b 257 1125 244 1131 251 1131 l 364 1018 l 472 1125 b 492 1126 478 1131 485 1131 l 510 1114 b 513 1094 517 1108 517 1101 m 374 890 b 697 767 507 890 615 849 b 822 444 781 685 822 576 b 699 122 822 313 781 204 b 374 0 617 40 508 0 l 124 0 b 110 14 114 0 110 4 l 110 876 b 124 890 110 886 114 890 m 372 75 b 636 176 482 75 569 108 b 738 444 704 244 738 335 b 636 713 738 554 704 644 b 372 815 569 781 482 815 l 189 815 l 189 75 "},"ď":{"ha":861,"x_min":0,"x_max":0,"o":"m 586 876 b 600 890 586 886 590 890 l 651 890 b 665 876 661 890 665 886 l 665 14 b 651 0 665 4 661 0 l 600 0 b 586 14 590 0 586 4 l 586 76 b 363 -17 535 14 460 -17 b 143 71 272 -17 200 13 b 60 303 88 129 60 207 b 143 535 60 399 88 476 b 363 622 200 593 272 622 b 586 531 460 622 535 592 m 769 876 b 783 890 769 886 774 890 l 826 890 b 839 876 835 890 839 886 l 825 636 b 810 622 825 626 819 622 l 783 622 b 769 636 774 622 769 626 m 375 56 b 586 169 469 56 551 101 l 586 436 b 375 550 551 504 469 550 b 139 303 235 550 139 449 b 375 56 139 157 235 56 "},"Đ":{"ha":994,"x_min":0,"x_max":0,"o":"m 440 890 b 764 767 574 890 682 849 b 889 444 847 685 889 576 b 765 122 889 313 847 204 b 440 0 683 40 575 0 l 190 0 b 176 14 181 0 176 4 l 176 411 l 78 411 b 64 425 68 411 64 415 l 64 461 b 78 475 64 471 68 475 l 176 475 l 176 876 b 190 890 176 886 181 890 m 439 75 b 703 176 549 75 636 108 b 804 444 771 244 804 335 b 703 713 804 554 771 644 b 439 815 636 781 549 815 l 257 815 l 257 475 l 439 475 b 453 461 449 475 453 471 l 453 425 b 439 411 453 415 449 411 l 257 411 l 257 75 "},"đ":{"ha":761,"x_min":0,"x_max":0,"o":"m 747 781 b 761 767 757 781 761 776 l 761 731 b 747 717 761 721 757 717 l 667 717 l 667 14 b 653 0 667 4 663 0 l 601 0 b 588 14 592 0 588 4 l 588 76 b 364 -17 536 14 461 -17 b 144 71 274 -17 201 13 b 61 303 89 129 61 207 b 144 535 61 399 89 476 b 364 622 201 593 274 622 b 588 529 461 622 536 592 l 588 717 l 428 717 b 414 731 418 717 414 721 l 414 767 b 428 781 414 776 418 781 l 588 781 l 588 876 b 601 890 588 886 592 890 l 653 890 b 667 876 663 890 667 886 l 667 781 m 376 56 b 588 169 471 56 553 101 l 588 436 b 376 550 553 504 471 550 b 206 482 306 550 249 528 b 140 303 163 436 140 376 b 206 124 140 229 163 169 b 376 56 249 78 306 56 "},"Ē":{"ha":715,"x_min":0,"x_max":0,"o":"m 508 1036 b 522 1022 518 1036 522 1032 l 522 982 b 508 968 522 972 518 968 l 228 968 b 214 982 218 968 214 972 l 214 1022 b 228 1036 214 1032 218 1036 m 642 828 b 628 814 642 818 638 814 l 189 814 l 189 481 l 586 481 b 600 467 596 481 600 476 l 600 425 b 586 411 600 415 596 411 l 189 411 l 189 75 l 628 75 b 642 61 638 75 642 71 l 642 14 b 628 0 642 4 638 0 l 124 0 b 110 14 114 0 110 4 l 110 876 b 124 890 110 886 114 890 l 628 890 b 642 876 638 890 642 886 "},"ē":{"ha":700,"x_min":0,"x_max":0,"o":"m 207 753 b 221 767 207 763 211 767 l 501 767 b 515 753 511 767 515 763 l 515 713 b 501 699 515 703 511 699 l 221 699 b 207 713 211 699 207 703 m 61 304 b 144 535 61 400 89 476 b 361 622 200 593 272 622 b 565 546 446 622 514 597 b 644 350 618 496 644 431 b 640 308 644 336 643 322 b 626 296 640 300 636 296 l 140 296 b 368 53 136 144 228 53 b 560 150 458 54 522 88 b 579 154 564 158 569 160 l 615 131 b 619 113 624 125 625 119 b 367 -17 571 31 476 -17 b 61 304 174 -17 61 108 m 565 357 b 360 553 565 475 483 553 b 142 357 236 553 153 478 "},"Ĕ":{"ha":715,"x_min":0,"x_max":0,"o":"m 368 953 b 204 1083 285 953 221 1004 b 217 1099 201 1093 206 1099 l 254 1099 b 269 1086 261 1099 267 1094 b 368 1017 282 1040 315 1017 b 465 1086 419 1017 453 1040 b 481 1099 468 1094 474 1099 l 518 1099 b 531 1083 529 1099 533 1093 b 368 953 514 1004 450 953 m 642 828 b 628 814 642 818 638 814 l 189 814 l 189 481 l 586 481 b 600 467 596 481 600 476 l 600 425 b 586 411 600 415 596 411 l 189 411 l 189 75 l 628 75 b 642 61 638 75 642 71 l 642 14 b 628 0 642 4 638 0 l 124 0 b 110 14 114 0 110 4 l 110 876 b 124 890 110 886 114 890 l 628 890 b 642 876 638 890 642 886 "},"ĕ":{"ha":700,"x_min":0,"x_max":0,"o":"m 511 829 b 524 814 522 829 526 824 b 361 683 507 735 443 683 b 197 814 278 683 214 735 b 210 829 194 824 199 829 l 247 829 b 263 817 254 829 260 825 b 361 747 275 771 308 747 b 458 817 413 747 446 771 b 474 829 461 825 467 829 m 61 304 b 144 535 61 400 89 476 b 361 622 200 593 272 622 b 565 546 446 622 514 597 b 644 350 618 496 644 431 b 640 308 644 336 643 322 b 626 296 640 300 636 296 l 140 296 b 368 53 136 144 228 53 b 560 150 458 54 522 88 b 579 154 564 158 569 160 l 615 131 b 619 113 624 125 625 119 b 367 -17 571 31 476 -17 b 61 304 174 -17 61 108 m 565 357 b 360 553 565 475 483 553 b 142 357 236 553 153 478 "},"Ė":{"ha":715,"x_min":0,"x_max":0,"o":"m 367 965 b 308 1022 333 965 308 990 b 367 1082 308 1057 333 1082 b 426 1022 401 1082 426 1057 b 367 965 426 990 401 965 m 642 828 b 628 814 642 818 638 814 l 189 814 l 189 481 l 586 481 b 600 467 596 481 600 476 l 600 425 b 586 411 600 415 596 411 l 189 411 l 189 75 l 628 75 b 642 61 638 75 642 71 l 642 14 b 628 0 642 4 638 0 l 124 0 b 110 14 114 0 110 4 l 110 876 b 124 890 110 886 114 890 l 628 890 b 642 876 638 890 642 886 "},"ė":{"ha":700,"x_min":0,"x_max":0,"o":"m 360 696 b 301 753 326 696 301 721 b 360 813 301 788 326 813 b 419 753 394 813 419 788 b 360 696 419 721 394 696 m 61 304 b 144 535 61 400 89 476 b 361 622 200 593 272 622 b 565 546 446 622 514 597 b 644 350 618 496 644 431 b 640 308 644 336 643 322 b 626 296 640 300 636 296 l 140 296 b 368 53 136 144 228 53 b 560 150 458 54 522 88 b 579 154 564 158 569 160 l 615 131 b 619 113 624 125 625 119 b 367 -17 571 31 476 -17 b 61 304 174 -17 61 108 m 565 357 b 360 553 565 475 483 553 b 142 357 236 553 153 478 "},"Ę":{"ha":715,"x_min":0,"x_max":0,"o":"m 644 -135 b 661 -144 654 -133 660 -136 l 665 -167 b 657 -185 667 -176 664 -182 b 610 -193 643 -190 628 -193 b 511 -101 547 -193 511 -157 b 561 0 511 -61 528 -28 l 124 0 b 110 14 114 0 110 4 l 110 876 b 124 890 110 886 114 890 l 628 890 b 642 876 638 890 642 886 l 642 828 b 628 814 642 818 638 814 l 189 814 l 189 481 l 586 481 b 600 467 596 481 600 476 l 600 425 b 586 411 600 415 596 411 l 189 411 l 189 75 l 628 75 b 642 61 638 75 642 71 l 642 14 b 639 0 642 4 640 0 l 636 0 b 567 -90 590 -24 567 -53 b 619 -139 567 -119 588 -139 b 644 -135 628 -139 636 -137 "},"ę":{"ha":700,"x_min":0,"x_max":0,"o":"m 640 308 b 626 296 640 300 636 296 l 140 296 b 368 53 136 144 228 53 b 560 150 458 54 522 88 b 579 154 564 158 569 160 l 615 131 b 619 113 622 126 624 119 b 371 -17 571 33 478 -15 b 329 -90 343 -39 329 -64 b 382 -139 329 -119 350 -139 b 407 -135 390 -139 399 -137 b 424 -144 417 -133 422 -136 l 428 -167 b 419 -185 429 -176 426 -182 b 372 -193 406 -190 390 -193 b 274 -101 310 -193 274 -157 b 310 -12 274 -69 286 -39 b 61 304 153 10 61 128 b 144 535 61 400 89 476 b 361 622 200 593 272 622 b 565 546 446 622 514 597 b 644 350 618 496 644 431 b 640 308 644 336 643 322 m 565 357 b 360 553 565 475 483 553 b 142 357 236 553 153 478 "},"Ě":{"ha":715,"x_min":0,"x_max":0,"o":"m 415 968 b 397 960 411 963 404 960 l 338 960 b 319 968 329 960 324 963 l 219 1096 b 222 1115 214 1103 215 1110 l 240 1128 b 260 1126 247 1132 254 1132 l 367 1019 l 475 1126 b 494 1128 481 1132 488 1132 l 513 1115 b 515 1096 519 1110 519 1103 m 642 828 b 628 814 642 818 638 814 l 189 814 l 189 481 l 586 481 b 600 467 596 481 600 476 l 600 425 b 586 411 600 415 596 411 l 189 411 l 189 75 l 628 75 b 642 61 638 75 642 71 l 642 14 b 628 0 642 4 638 0 l 124 0 b 110 14 114 0 110 4 l 110 876 b 124 890 110 886 114 890 l 628 890 b 642 876 638 890 642 886 "},"ě":{"ha":700,"x_min":0,"x_max":0,"o":"m 214 826 b 217 846 208 833 210 840 l 235 858 b 254 857 242 863 249 863 l 361 750 l 469 857 b 489 858 475 863 482 863 l 507 846 b 510 826 514 840 514 833 l 410 699 b 392 690 406 693 399 690 l 332 690 b 314 699 324 690 318 693 m 61 304 b 144 535 61 400 89 476 b 361 622 200 593 272 622 b 565 546 446 622 514 597 b 644 350 618 496 644 431 b 640 308 644 336 643 322 b 626 296 640 300 636 296 l 140 296 b 368 53 136 144 228 53 b 560 150 458 54 522 88 b 579 154 564 158 569 160 l 615 131 b 619 113 624 125 625 119 b 367 -17 571 31 476 -17 b 61 304 174 -17 61 108 m 565 357 b 360 553 565 475 483 553 b 142 357 236 553 153 478 "},"Ĝ":{"ha":983,"x_min":0,"x_max":0,"o":"m 499 1083 l 392 976 b 372 975 386 971 379 971 l 354 988 b 351 1007 347 993 347 1000 l 451 1135 b 469 1143 456 1140 463 1143 l 529 1143 b 547 1135 538 1143 543 1140 l 646 1007 b 643 988 651 1000 650 993 l 626 975 b 607 976 619 969 614 969 m 321 451 b 335 465 321 461 325 465 l 911 465 b 925 451 921 465 925 461 l 925 403 b 806 99 925 278 885 176 b 497 -17 726 22 624 -17 b 179 108 365 -17 260 25 b 60 440 100 192 60 303 b 182 778 60 581 100 693 b 500 907 264 864 369 907 b 735 846 588 907 667 886 b 883 682 804 806 854 750 b 876 664 888 672 886 667 l 826 642 b 808 650 818 638 813 640 b 496 832 760 765 640 832 b 239 724 389 832 304 796 b 142 442 174 653 142 558 b 239 163 142 325 174 232 b 501 58 304 93 392 58 b 846 394 703 58 839 183 l 335 394 b 321 408 325 394 321 399 "},"ĝ":{"ha":754,"x_min":0,"x_max":0,"o":"m 399 806 l 290 700 b 271 700 285 694 278 694 l 254 713 b 251 732 247 718 246 725 l 350 857 b 368 865 354 863 360 865 l 428 865 b 446 857 435 865 442 863 l 546 732 b 543 713 551 725 550 718 l 525 700 b 506 700 517 696 510 696 m 572 592 b 586 606 572 601 576 606 l 638 606 b 651 592 647 606 651 601 l 651 4 b 354 -281 650 -174 533 -281 b 90 -135 232 -281 135 -228 b 97 -117 86 -128 89 -121 l 140 -96 b 158 -101 149 -92 154 -94 b 356 -210 193 -174 258 -210 b 572 4 493 -210 572 -125 l 572 99 b 354 14 521 42 447 14 b 142 97 267 14 196 42 b 61 318 88 153 61 226 b 142 539 61 410 88 483 b 354 622 196 594 267 622 b 572 539 449 622 521 594 m 364 85 b 572 182 454 85 535 122 l 572 454 b 364 551 533 514 454 551 b 140 318 231 551 140 458 b 364 85 140 179 231 85 "},"Ğ":{"ha":983,"x_min":0,"x_max":0,"o":"m 500 968 b 336 1099 417 968 353 1019 b 349 1114 333 1108 338 1114 l 386 1114 b 401 1101 393 1114 399 1110 b 500 1032 414 1056 447 1032 b 597 1101 551 1032 585 1056 b 613 1114 600 1110 606 1114 l 650 1114 b 663 1099 661 1114 665 1108 b 500 968 646 1019 582 968 m 321 451 b 335 465 321 461 325 465 l 911 465 b 925 451 921 465 925 461 l 925 403 b 806 99 925 278 885 176 b 497 -17 726 22 624 -17 b 179 108 365 -17 260 25 b 60 440 100 192 60 303 b 182 778 60 581 100 693 b 500 907 264 864 369 907 b 735 846 588 907 667 886 b 883 682 804 806 854 750 b 876 664 888 672 886 667 l 826 642 b 808 650 818 638 813 640 b 496 832 760 765 640 832 b 239 724 389 832 304 796 b 142 442 174 653 142 558 b 239 163 142 325 174 232 b 501 58 304 93 392 58 b 846 394 703 58 839 183 l 335 394 b 321 408 325 394 321 399 "},"ğ":{"ha":746,"x_min":0,"x_max":0,"o":"m 340 683 b 176 814 257 683 193 735 b 189 829 174 824 178 829 l 226 829 b 242 817 233 829 239 825 b 340 747 254 771 288 747 b 438 817 392 747 425 771 b 453 829 440 825 446 829 l 490 829 b 503 814 501 829 506 824 b 340 683 486 735 422 683 m 572 592 b 586 606 572 601 576 606 l 638 606 b 651 592 647 606 651 601 l 651 4 b 354 -281 650 -174 533 -281 b 90 -135 232 -281 135 -228 b 97 -117 86 -128 89 -121 l 140 -96 b 158 -101 149 -92 154 -94 b 356 -210 193 -174 258 -210 b 572 4 493 -210 572 -125 l 572 99 b 354 14 521 42 447 14 b 142 97 267 14 196 42 b 61 318 88 153 61 226 b 142 539 61 410 88 483 b 354 622 196 594 267 622 b 572 539 449 622 521 594 m 364 85 b 572 182 454 85 535 122 l 572 454 b 364 551 533 514 454 551 b 140 318 231 551 140 458 b 364 85 140 179 231 85 "},"Ġ":{"ha":983,"x_min":0,"x_max":0,"o":"m 499 981 b 440 1038 465 981 440 1006 b 499 1097 440 1072 465 1097 b 558 1038 533 1097 558 1072 b 499 981 558 1006 533 981 m 321 451 b 335 465 321 461 325 465 l 911 465 b 925 451 921 465 925 461 l 925 403 b 806 99 925 278 885 176 b 497 -17 726 22 624 -17 b 179 108 365 -17 260 25 b 60 440 100 192 60 303 b 182 778 60 581 100 693 b 500 907 264 864 369 907 b 735 846 588 907 667 886 b 883 682 804 806 854 750 b 876 664 888 672 886 667 l 826 642 b 808 650 818 638 813 640 b 496 832 760 765 640 832 b 239 724 389 832 304 796 b 142 442 174 653 142 558 b 239 163 142 325 174 232 b 501 58 304 93 392 58 b 846 394 703 58 839 183 l 335 394 b 321 408 325 394 321 399 "},"ġ":{"ha":746,"x_min":0,"x_max":0,"o":"m 338 696 b 279 753 304 696 279 721 b 338 813 279 788 304 813 b 397 753 372 813 397 788 b 338 696 397 721 372 696 m 572 592 b 586 606 572 601 576 606 l 638 606 b 651 592 647 606 651 601 l 651 4 b 354 -281 650 -174 533 -281 b 90 -135 232 -281 135 -228 b 97 -117 86 -128 89 -121 l 140 -96 b 158 -101 149 -92 154 -94 b 356 -210 193 -174 258 -210 b 572 4 493 -210 572 -125 l 572 99 b 354 14 521 42 447 14 b 142 97 267 14 196 42 b 61 318 88 153 61 226 b 142 539 61 410 88 483 b 354 622 196 594 267 622 b 572 539 449 622 521 594 m 364 85 b 572 182 454 85 535 122 l 572 454 b 364 551 533 514 454 551 b 140 318 231 551 140 458 b 364 85 140 179 231 85 "},"Ģ":{"ha":983,"x_min":0,"x_max":0,"o":"m 321 451 b 335 465 321 461 325 465 l 911 465 b 925 451 921 465 925 461 l 925 403 b 806 99 925 278 885 176 b 497 -17 726 22 624 -17 b 179 108 365 -17 260 25 b 60 440 100 192 60 303 b 182 778 60 581 100 693 b 500 907 264 864 369 907 b 735 846 588 907 667 886 b 883 682 804 806 854 750 b 876 664 888 672 886 667 l 826 642 b 808 650 818 638 813 640 b 496 832 760 765 640 832 b 239 724 389 832 304 796 b 142 442 174 653 142 558 b 239 163 142 325 174 232 b 501 58 304 93 392 58 b 846 394 703 58 839 183 l 335 394 b 321 408 325 394 321 399 m 525 -94 b 590 -157 563 -94 590 -118 b 560 -229 590 -174 581 -197 l 501 -317 b 482 -321 496 -326 489 -328 l 472 -315 b 469 -296 465 -310 465 -303 l 532 -207 b 517 -208 528 -208 524 -208 b 465 -156 488 -208 465 -189 b 525 -94 465 -121 490 -94 "},"ģ":{"ha":746,"x_min":0,"x_max":0,"o":"m 514 847 b 514 828 522 840 522 835 l 349 692 b 329 693 342 686 336 686 l 322 700 b 321 719 315 707 315 713 l 463 878 b 482 879 469 885 475 886 m 572 592 b 586 606 572 601 576 606 l 638 606 b 651 592 647 606 651 601 l 651 4 b 354 -281 650 -174 533 -281 b 90 -135 232 -281 135 -228 b 97 -117 86 -128 89 -121 l 140 -96 b 158 -101 149 -92 154 -94 b 356 -210 193 -174 258 -210 b 572 4 493 -210 572 -125 l 572 99 b 354 14 521 42 447 14 b 142 97 267 14 196 42 b 61 318 88 153 61 226 b 142 539 61 410 88 483 b 354 622 196 594 267 622 b 572 539 449 622 521 594 m 364 85 b 572 182 454 85 535 122 l 572 454 b 364 551 533 514 454 551 b 140 318 231 551 140 458 b 364 85 140 179 231 85 "},"Ħ":{"ha":869,"x_min":0,"x_max":0,"o":"m 858 713 b 872 699 868 713 872 708 l 872 660 b 858 646 872 650 868 646 l 763 646 l 763 14 b 749 0 763 4 758 0 l 697 0 b 683 14 688 0 683 4 l 683 417 l 189 417 l 189 14 b 175 0 189 4 185 0 l 124 0 b 110 14 114 0 110 4 l 110 646 l 14 646 b 0 660 4 646 0 650 l 0 699 b 14 713 0 708 4 713 l 110 713 l 110 876 b 124 890 110 886 114 890 l 175 890 b 189 876 185 890 189 886 l 189 713 l 683 713 l 683 876 b 697 890 683 886 688 890 l 749 890 b 763 876 758 890 763 886 l 763 713 m 683 485 l 683 646 l 189 646 l 189 486 "},"ħ":{"ha":746,"x_min":0,"x_max":0,"o":"m 397 622 b 653 371 557 622 653 526 l 653 14 b 639 0 653 4 649 0 l 586 0 b 572 14 576 0 572 4 l 572 357 b 383 550 572 486 510 550 b 186 454 299 550 233 518 l 186 15 b 172 1 186 6 182 1 l 121 1 b 107 15 111 1 107 6 l 107 717 l 14 717 b 0 731 4 717 0 721 l 0 767 b 14 781 0 776 4 781 l 107 781 l 107 876 b 121 890 107 886 111 890 l 172 890 b 186 876 182 890 186 886 l 186 781 l 333 781 b 347 767 343 781 347 776 l 347 731 b 333 717 347 721 343 717 l 186 717 l 186 539 b 397 622 243 594 314 622 "},"Ĩ":{"ha":299,"x_min":0,"x_max":0,"o":"m 14 968 b -1 981 4 968 0 972 b 76 1083 -8 1047 25 1083 b 149 1057 96 1083 119 1075 b 215 1032 178 1040 200 1032 b 251 1072 238 1032 250 1046 b 265 1086 251 1082 256 1086 l 285 1086 b 299 1074 294 1086 299 1082 b 214 972 306 1011 269 972 b 139 997 193 972 168 981 b 79 1022 111 1014 92 1022 b 46 982 58 1022 47 1008 b 32 968 44 972 39 968 m 189 14 b 175 0 189 4 185 0 l 124 0 b 110 14 114 0 110 4 l 110 876 b 124 890 110 886 114 890 l 175 890 b 189 876 185 890 189 886 "},"ĩ":{"ha":294,"x_min":0,"x_max":0,"o":"m 11 688 b -4 700 1 688 -3 692 b 74 803 -11 767 22 803 b 146 776 93 803 117 794 b 213 751 175 760 197 751 b 249 792 235 751 247 765 b 263 806 249 801 253 806 l 282 806 b 296 793 292 806 296 801 b 211 692 303 731 267 692 b 136 717 190 692 165 700 b 76 742 108 733 89 742 b 43 701 56 742 44 728 b 29 688 42 692 36 688 m 107 592 b 121 606 107 601 111 606 l 174 606 b 188 592 183 606 188 601 l 188 14 b 174 0 188 4 183 0 l 121 0 b 107 14 111 0 107 4 "},"Ī":{"ha":299,"x_min":0,"x_max":0,"o":"m -4 1022 b 10 1036 -4 1032 0 1036 l 290 1036 b 304 1022 300 1036 304 1032 l 304 982 b 290 968 304 972 300 968 l 10 968 b -4 982 0 968 -4 972 m 189 14 b 175 0 189 4 185 0 l 124 0 b 110 14 114 0 110 4 l 110 876 b 124 890 110 886 114 890 l 175 890 b 189 876 185 890 189 886 "},"ī":{"ha":294,"x_min":0,"x_max":0,"o":"m -7 742 b 7 756 -7 751 -3 756 l 288 756 b 301 742 297 756 301 751 l 301 701 b 288 688 301 692 297 688 l 7 688 b -7 701 -3 688 -7 692 m 107 592 b 121 606 107 601 111 606 l 174 606 b 188 592 183 606 188 601 l 188 14 b 174 0 188 4 183 0 l 121 0 b 107 14 111 0 107 4 "},"Į":{"ha":299,"x_min":0,"x_max":0,"o":"m 192 -135 b 208 -144 201 -133 207 -136 l 213 -167 b 204 -185 214 -176 211 -182 b 157 -193 190 -190 175 -193 b 58 -101 94 -193 58 -157 b 110 1 58 -61 75 -26 l 110 876 b 124 890 110 886 114 890 l 175 890 b 189 876 185 890 189 886 l 189 14 b 186 0 189 4 188 0 l 183 0 b 114 -90 138 -24 114 -53 b 167 -139 114 -119 135 -139 b 192 -135 175 -139 183 -137 "},"į":{"ha":294,"x_min":0,"x_max":0,"o":"m 144 685 b 86 742 111 685 86 710 b 144 801 86 776 111 801 b 204 742 179 801 204 776 b 144 685 204 710 179 685 m 189 -135 b 206 -144 199 -133 204 -136 l 210 -167 b 201 -185 211 -176 208 -182 b 154 -193 188 -190 172 -193 b 56 -101 92 -193 56 -157 b 107 1 56 -61 72 -26 l 107 592 b 121 606 107 601 111 606 l 174 606 b 188 592 183 606 188 601 l 188 14 b 185 0 188 4 186 0 l 181 0 b 111 -90 135 -24 111 -53 b 164 -139 111 -119 132 -139 b 189 -135 172 -139 181 -137 "},"İ":{"ha":299,"x_min":0,"x_max":0,"o":"m 149 965 b 90 1022 115 965 90 990 b 149 1082 90 1057 115 1082 b 208 1022 183 1082 208 1057 b 149 965 208 990 183 965 m 189 14 b 175 0 189 4 185 0 l 124 0 b 110 14 114 0 110 4 l 110 876 b 124 890 110 886 114 890 l 175 890 b 189 876 185 890 189 886 "},"ı":{"ha":294,"x_min":0,"x_max":0,"o":"m 107 592 b 121 606 107 601 111 606 l 174 606 b 188 592 183 606 188 601 l 188 14 b 174 0 188 4 183 0 l 121 0 b 107 14 111 0 107 4 "},"Ĵ":{"ha":693,"x_min":0,"x_max":0,"o":"m 400 971 b 397 990 393 976 392 983 l 497 1118 b 515 1126 501 1124 507 1126 l 575 1126 b 593 1118 583 1126 589 1124 l 692 990 b 689 971 697 983 696 976 l 672 958 b 653 960 665 953 660 953 l 544 1067 l 438 960 b 418 958 432 954 425 954 m 63 399 b 76 413 63 408 67 413 l 128 413 b 142 399 138 413 142 408 l 142 243 b 321 56 142 121 210 56 b 506 243 443 56 506 126 l 506 876 b 519 890 506 886 510 890 l 571 890 b 585 876 581 890 585 886 l 585 242 b 319 -17 585 81 481 -17 b 63 243 160 -17 63 86 "},"ĵ":{"ha":299,"x_min":0,"x_max":0,"o":"m 19 692 b 17 711 13 697 11 704 l 117 839 b 135 847 121 844 126 847 l 194 847 b 213 839 203 847 208 844 l 311 711 b 308 692 317 704 315 697 l 292 679 b 272 681 285 674 279 674 l 164 788 l 57 681 b 38 679 51 675 44 675 m 139 -262 b 125 -249 129 -262 125 -258 l 125 592 b 139 606 125 601 129 606 l 192 606 b 206 592 201 606 206 601 l 206 -249 b 192 -262 206 -258 201 -262 "},"Ķ":{"ha":821,"x_min":0,"x_max":0,"o":"m 774 890 b 782 874 785 890 789 883 l 443 504 l 779 17 b 769 0 785 10 781 0 l 701 0 b 685 8 694 0 689 3 l 385 439 l 190 226 l 190 14 b 176 0 190 4 186 0 l 124 0 b 110 14 114 0 110 4 l 110 876 b 124 890 110 886 114 890 l 176 890 b 190 876 186 890 190 886 l 190 335 l 690 883 b 707 890 694 888 700 890 m 447 -76 b 513 -139 485 -76 513 -100 b 482 -211 513 -156 503 -179 l 424 -299 b 404 -303 418 -308 411 -310 l 394 -297 b 392 -278 388 -292 388 -285 l 454 -189 b 439 -190 450 -190 446 -190 b 388 -137 410 -190 388 -171 b 447 -76 388 -103 413 -76 "},"ķ":{"ha":685,"x_min":0,"x_max":0,"o":"m 621 606 b 628 589 633 606 638 599 l 385 360 l 633 17 b 625 0 640 10 636 0 l 565 0 b 547 8 557 0 551 3 l 329 307 l 186 172 l 186 14 b 172 0 186 4 182 0 l 121 0 b 107 14 111 0 107 4 l 107 876 b 121 890 107 886 111 890 l 172 890 b 186 876 182 890 186 886 l 186 268 l 540 599 b 557 606 544 603 550 606 m 371 -75 b 436 -137 408 -75 436 -99 b 406 -210 436 -154 426 -178 l 347 -297 b 328 -301 342 -307 335 -308 l 318 -296 b 315 -276 311 -290 311 -283 l 378 -187 b 363 -189 374 -189 369 -189 b 311 -136 333 -189 311 -169 b 371 -75 311 -101 336 -75 "},"Ĺ":{"ha":594,"x_min":0,"x_max":0,"o":"m 324 1115 b 324 1096 332 1108 332 1103 l 158 960 b 139 961 151 954 146 954 l 132 968 b 131 988 125 975 125 981 l 272 1146 b 292 1147 279 1153 285 1154 m 190 74 l 549 74 b 563 60 558 74 563 69 l 563 14 b 549 0 563 4 558 0 l 124 0 b 110 14 114 0 110 4 l 110 876 b 124 890 110 886 114 890 l 176 890 b 190 876 186 890 190 886 "},"ĺ":{"ha":294,"x_min":0,"x_max":0,"o":"m 157 1022 b 138 1024 150 1017 144 1017 l 131 1031 b 129 1050 124 1038 124 1043 l 271 1208 b 290 1210 278 1215 283 1217 l 322 1178 b 322 1158 331 1171 331 1165 m 121 0 b 107 14 111 0 107 4 l 107 876 b 121 890 107 886 111 890 l 172 890 b 186 876 182 890 186 886 l 186 14 b 172 0 186 4 182 0 "},"Ļ":{"ha":594,"x_min":0,"x_max":0,"o":"m 190 74 l 549 74 b 563 60 558 74 563 69 l 563 14 b 549 0 563 4 558 0 l 124 0 b 110 14 114 0 110 4 l 110 876 b 124 890 110 886 114 890 l 176 890 b 190 876 186 890 190 886 m 335 -76 b 400 -139 372 -76 400 -100 b 369 -211 400 -156 390 -179 l 311 -299 b 292 -303 306 -308 299 -310 l 282 -297 b 279 -278 275 -292 275 -285 l 342 -189 b 326 -190 338 -190 333 -190 b 275 -137 297 -190 275 -171 b 335 -76 275 -103 300 -76 "},"ļ":{"ha":294,"x_min":0,"x_max":0,"o":"m 172 890 b 186 876 182 890 186 886 l 186 14 b 172 0 186 4 182 0 l 121 0 b 107 14 111 0 107 4 l 107 876 b 121 890 107 886 111 890 m 147 -76 b 213 -139 185 -76 213 -100 b 182 -211 213 -156 203 -179 l 124 -299 b 104 -303 118 -308 111 -310 l 94 -297 b 92 -278 88 -292 88 -285 l 154 -189 b 139 -190 150 -190 146 -190 b 88 -137 110 -190 88 -171 b 147 -76 88 -103 113 -76 "},"Ľ":{"ha":622,"x_min":0,"x_max":0,"o":"m 190 74 l 549 74 b 563 60 558 74 563 69 l 563 14 b 549 0 563 4 558 0 l 124 0 b 110 14 114 0 110 4 l 110 876 b 124 890 110 886 114 890 l 176 890 b 190 876 186 890 190 886 m 374 633 b 354 629 368 624 361 622 l 344 635 b 342 654 338 640 338 647 l 404 743 b 389 742 400 742 396 742 b 336 794 360 742 336 761 b 397 854 336 829 363 854 b 463 793 435 854 463 832 b 432 721 463 775 453 750 "},"ľ":{"ha":294,"x_min":0,"x_max":0,"o":"m 121 0 b 107 14 111 0 107 4 l 107 876 b 121 890 107 886 111 890 l 172 890 b 186 876 182 890 186 886 l 186 14 b 172 0 186 4 182 0 "},"Ŀ":{"ha":622,"x_min":0,"x_max":0,"o":"m 190 74 l 549 74 b 563 60 558 74 563 69 l 563 14 b 549 0 563 4 558 0 l 124 0 b 110 14 114 0 110 4 l 110 876 b 124 890 110 886 114 890 l 176 890 b 190 876 186 890 190 886 m 422 465 b 369 517 394 465 369 489 b 422 569 369 546 394 569 b 476 517 451 569 476 546 b 422 465 476 489 451 465 "},"ŀ":{"ha":489,"x_min":0,"x_max":0,"o":"m 121 0 b 107 14 111 0 107 4 l 107 876 b 121 890 107 886 111 890 l 172 890 b 186 876 182 890 186 886 l 186 14 b 172 0 186 4 182 0 m 324 433 b 381 490 324 465 349 490 b 419 394 431 490 456 428 b 324 433 386 361 324 385 "},"Ł":{"ha":594,"x_min":0,"x_max":0,"o":"m 190 74 l 549 74 b 563 60 558 74 563 69 l 563 14 b 549 0 563 4 558 0 l 124 0 b 110 14 114 0 110 4 l 110 407 l 26 368 b 10 378 15 364 10 367 l 10 425 b 19 442 10 432 13 438 l 110 483 l 110 876 b 124 890 110 886 114 890 l 176 890 b 190 876 186 890 190 886 l 190 522 l 356 600 b 372 590 367 604 372 601 l 372 543 b 363 526 372 536 369 531 l 190 446 "},"ł":{"ha":365,"x_min":0,"x_max":0,"o":"m 315 599 b 332 589 326 603 332 600 l 332 549 b 321 533 332 542 328 536 l 222 493 l 222 14 b 208 0 222 4 218 0 l 157 0 b 143 14 147 0 143 4 l 143 463 l 50 425 b 33 436 39 421 33 424 l 33 476 b 44 492 33 483 38 489 l 143 531 l 143 876 b 157 890 143 886 147 890 l 208 890 b 222 876 218 890 222 886 l 222 563 "},"Ń":{"ha":879,"x_min":0,"x_max":0,"o":"m 615 1119 b 615 1100 624 1113 624 1107 l 450 964 b 431 965 443 958 438 958 l 424 972 b 422 992 417 979 417 985 l 564 1150 b 583 1151 571 1157 576 1158 m 689 876 b 703 890 689 886 693 890 l 757 890 b 771 876 767 890 771 886 l 771 14 b 757 0 771 4 767 0 l 700 0 b 683 8 693 0 688 3 l 190 753 l 190 14 b 176 0 190 4 186 0 l 124 0 b 110 14 114 0 110 4 l 110 876 b 124 890 110 886 114 890 l 179 890 b 196 882 186 890 192 888 l 689 136 "},"ń":{"ha":746,"x_min":0,"x_max":0,"o":"m 542 847 b 542 828 550 840 550 835 l 376 692 b 357 693 369 686 364 686 l 350 700 b 349 719 343 707 343 713 l 490 878 b 510 879 497 885 503 886 m 397 622 b 653 371 557 622 653 526 l 653 14 b 639 0 653 4 649 0 l 586 0 b 572 14 576 0 572 4 l 572 357 b 383 550 572 486 510 550 b 186 454 299 550 233 518 l 186 14 b 172 0 186 4 182 0 l 121 0 b 107 14 111 0 107 4 l 107 592 b 121 606 107 601 111 606 l 172 606 b 186 592 182 606 186 601 l 186 539 b 397 622 243 594 314 622 "},"Ņ":{"ha":879,"x_min":0,"x_max":0,"o":"m 689 876 b 703 890 689 886 693 890 l 757 890 b 771 876 767 890 771 886 l 771 14 b 757 0 771 4 767 0 l 700 0 b 683 8 693 0 688 3 l 190 753 l 190 14 b 176 0 190 4 186 0 l 124 0 b 110 14 114 0 110 4 l 110 876 b 124 890 110 886 114 890 l 179 890 b 196 882 186 890 192 888 l 689 136 m 439 -76 b 504 -139 476 -76 504 -100 b 474 -211 504 -156 494 -179 l 415 -299 b 396 -303 410 -308 403 -310 l 386 -297 b 383 -278 379 -292 379 -285 l 446 -189 b 431 -190 442 -190 438 -190 b 379 -137 401 -190 379 -171 b 439 -76 379 -103 404 -76 "},"ņ":{"ha":746,"x_min":0,"x_max":0,"o":"m 397 622 b 653 371 557 622 653 526 l 653 14 b 639 0 653 4 649 0 l 586 0 b 572 14 576 0 572 4 l 572 357 b 383 550 572 486 510 550 b 186 454 299 550 233 518 l 186 14 b 172 0 186 4 182 0 l 121 0 b 107 14 111 0 107 4 l 107 592 b 121 606 107 601 111 606 l 172 606 b 186 592 182 606 186 601 l 186 539 b 397 622 243 594 314 622 m 372 -76 b 438 -139 410 -76 438 -100 b 407 -211 438 -156 428 -179 l 349 -299 b 329 -303 343 -308 336 -310 l 319 -297 b 317 -278 313 -292 313 -285 l 379 -189 b 364 -190 375 -190 371 -190 b 313 -137 335 -190 313 -171 b 372 -76 313 -103 338 -76 "},"Ň":{"ha":879,"x_min":0,"x_max":0,"o":"m 489 971 b 471 963 485 965 479 963 l 411 963 b 393 971 404 963 397 965 l 293 1099 b 296 1118 288 1106 289 1113 l 314 1131 b 333 1129 321 1135 328 1135 l 440 1022 l 549 1129 b 568 1131 554 1135 561 1135 l 586 1118 b 589 1099 593 1113 593 1106 m 689 876 b 703 890 689 886 693 890 l 757 890 b 771 876 767 890 771 886 l 771 14 b 757 0 771 4 767 0 l 700 0 b 683 8 693 0 688 3 l 190 753 l 190 14 b 176 0 190 4 186 0 l 124 0 b 110 14 114 0 110 4 l 110 876 b 124 890 110 886 114 890 l 179 890 b 196 882 186 890 192 888 l 689 136 "},"ň":{"ha":746,"x_min":0,"x_max":0,"o":"m 415 699 b 397 690 411 693 404 690 l 338 690 b 319 699 329 690 324 693 l 219 826 b 222 846 214 833 215 840 l 240 858 b 260 857 247 863 254 863 l 367 750 l 475 857 b 494 858 481 863 488 863 l 513 846 b 515 826 519 840 519 833 m 397 622 b 653 371 557 622 653 526 l 653 14 b 639 0 653 4 649 0 l 586 0 b 572 14 576 0 572 4 l 572 357 b 383 550 572 486 510 550 b 186 454 299 550 233 518 l 186 14 b 172 0 186 4 182 0 l 121 0 b 107 14 111 0 107 4 l 107 592 b 121 606 107 601 111 606 l 172 606 b 186 592 182 606 186 601 l 186 539 b 397 622 243 594 314 622 "},"Ŋ":{"ha":875,"x_min":0,"x_max":0,"o":"m 124 0 b 110 14 114 0 110 4 l 110 876 b 124 890 110 886 114 890 l 182 890 b 199 881 189 890 194 888 l 682 144 l 682 876 b 696 890 682 886 686 890 l 751 890 b 765 876 761 890 765 886 l 765 -60 b 568 -214 765 -169 681 -231 b 556 -199 560 -212 556 -207 l 556 -160 b 569 -146 556 -150 560 -146 l 613 -146 b 690 -46 661 -146 690 -108 l 690 0 b 676 8 685 0 681 3 l 193 744 l 193 14 b 179 0 193 4 189 0 "},"ŋ":{"ha":746,"x_min":0,"x_max":0,"o":"m 397 622 b 653 371 557 622 653 526 l 653 -56 b 472 -200 653 -161 576 -221 b 460 -185 464 -199 460 -193 l 460 -151 b 475 -137 460 -142 465 -137 b 572 -46 540 -144 572 -114 l 572 357 b 383 550 572 486 510 550 b 186 454 299 550 233 518 l 186 14 b 172 0 186 4 182 0 l 121 0 b 107 14 111 0 107 4 l 107 592 b 121 606 107 601 111 606 l 172 606 b 186 592 182 606 186 601 l 186 539 b 397 622 243 594 314 622 "},"Ō":{"ha":1018,"x_min":0,"x_max":0,"o":"m 356 1038 b 369 1051 356 1047 360 1051 l 650 1051 b 664 1038 660 1051 664 1047 l 664 997 b 650 983 664 988 660 983 l 369 983 b 356 997 360 983 356 988 m 510 907 b 829 775 636 907 743 863 b 960 444 917 688 960 578 b 829 114 960 311 917 201 b 510 -17 743 26 636 -17 b 189 114 383 -17 276 26 b 60 444 103 201 60 311 b 189 775 60 578 103 688 b 510 907 275 863 382 907 m 510 829 b 247 721 406 829 318 793 b 142 444 176 649 142 557 b 247 168 142 332 176 240 b 510 60 318 96 406 60 b 769 168 613 60 699 96 b 875 444 840 240 875 332 b 769 721 875 557 840 649 b 510 829 699 793 613 829 "},"ō":{"ha":760,"x_min":0,"x_max":0,"o":"m 225 753 b 239 767 225 763 229 767 l 519 767 b 533 753 529 767 533 763 l 533 713 b 519 699 533 703 529 699 l 239 699 b 225 713 229 699 225 703 m 61 301 b 149 529 61 392 90 468 b 379 622 208 592 285 622 b 611 529 475 622 551 592 b 700 301 671 468 700 392 b 610 75 700 211 669 136 b 379 -17 550 14 474 -17 b 150 75 286 -17 210 14 b 61 301 90 136 61 211 m 140 301 b 207 126 140 231 163 172 b 379 57 253 81 310 57 b 551 126 450 57 507 81 b 619 301 597 172 619 231 b 551 478 619 372 597 431 b 379 549 507 525 450 549 b 207 478 310 549 253 525 b 140 301 163 432 140 372 "},"Ő":{"ha":1018,"x_min":0,"x_max":0,"o":"m 429 976 b 410 978 422 971 417 971 l 403 985 b 401 1004 396 992 396 997 l 543 1163 b 563 1164 550 1169 556 1171 l 594 1132 b 594 1113 603 1125 603 1119 m 608 976 b 589 978 601 971 596 971 l 582 985 b 581 1004 575 992 575 997 l 722 1163 b 742 1164 729 1169 735 1171 l 774 1132 b 774 1113 782 1125 782 1119 m 510 907 b 829 775 636 907 743 863 b 960 444 917 688 960 578 b 829 114 960 311 917 201 b 510 -17 743 26 636 -17 b 189 114 383 -17 276 26 b 60 444 103 201 60 311 b 189 775 60 578 103 688 b 510 907 275 863 382 907 m 510 829 b 247 721 406 829 318 793 b 142 444 176 649 142 557 b 247 168 142 332 176 240 b 510 60 318 96 406 60 b 769 168 613 60 699 96 b 875 444 840 240 875 332 b 769 721 875 557 840 649 b 510 829 699 793 613 829 "},"ő":{"ha":760,"x_min":0,"x_max":0,"o":"m 299 692 b 279 693 292 686 286 686 l 272 700 b 271 719 265 707 265 713 l 413 878 b 432 879 419 885 425 886 l 464 847 b 464 828 472 840 472 835 m 478 692 b 458 693 471 686 465 686 l 451 700 b 450 719 444 707 444 713 l 592 878 b 611 879 599 885 604 886 l 643 847 b 643 828 651 840 651 835 m 61 301 b 149 529 61 392 90 468 b 379 622 208 592 285 622 b 611 529 475 622 551 592 b 700 301 671 468 700 392 b 610 75 700 211 669 136 b 379 -17 550 14 474 -17 b 150 75 286 -17 210 14 b 61 301 90 136 61 211 m 140 301 b 207 126 140 231 163 172 b 379 57 253 81 310 57 b 551 126 450 57 507 81 b 619 301 597 172 619 231 b 551 478 619 372 597 431 b 379 549 507 525 450 549 b 207 478 310 549 253 525 b 140 301 163 432 140 372 "},"Œ":{"ha":1556,"x_min":0,"x_max":0,"o":"m 1482 871 b 1468 857 1482 861 1478 857 l 1004 857 l 1004 507 l 1424 507 b 1438 493 1433 507 1438 503 l 1438 446 b 1424 432 1438 436 1433 432 l 1004 432 l 1004 78 l 1468 78 b 1482 64 1478 78 1482 74 l 1482 14 b 1468 0 1482 4 1478 0 l 938 0 b 924 14 928 0 924 4 l 924 197 b 533 -18 858 64 710 -18 b 192 121 393 -18 279 28 b 60 471 104 214 60 331 b 190 819 60 611 103 728 b 526 957 278 911 389 957 b 769 897 617 957 699 938 b 924 742 840 857 892 806 l 924 924 b 938 938 924 933 928 938 l 1468 936 b 1482 922 1478 936 1482 932 m 536 64 b 815 176 650 64 743 101 b 924 469 888 251 924 349 b 815 763 924 589 888 686 b 533 876 743 839 649 876 b 251 763 418 876 324 839 b 143 472 179 686 143 590 b 251 179 143 354 179 256 b 536 64 325 103 419 64 "},"œ":{"ha":1275,"x_min":0,"x_max":0,"o":"m 1213 308 b 1199 296 1213 300 1208 296 l 711 296 b 939 53 707 144 800 53 b 1131 150 1031 54 1094 88 b 1150 154 1135 157 1142 158 l 1188 131 b 1192 113 1194 126 1196 119 b 938 -17 1143 33 1047 -17 b 663 146 803 -17 711 38 b 379 -17 608 46 507 -17 b 150 75 286 -17 210 14 b 61 301 90 136 61 211 b 149 529 61 392 90 468 b 379 622 208 592 285 622 b 664 457 508 622 610 558 b 933 622 713 561 810 622 b 1136 546 1017 622 1085 597 b 1215 350 1189 496 1215 431 b 1213 308 1215 340 1214 326 m 1138 357 b 932 553 1136 475 1054 553 b 713 357 810 553 725 478 m 379 57 b 551 126 450 57 507 81 b 619 301 597 172 619 231 b 551 478 619 372 597 431 b 379 549 507 525 450 549 b 207 478 310 549 253 525 b 140 301 163 432 140 372 b 207 126 140 231 163 172 b 379 57 253 81 310 57 "},"Ŕ":{"ha":782,"x_min":0,"x_max":0,"o":"m 543 1118 b 543 1099 551 1111 551 1106 l 378 963 b 358 964 371 957 365 957 l 351 971 b 350 990 344 978 344 983 l 492 1149 b 511 1150 499 1156 504 1157 m 424 451 l 714 17 b 704 0 719 10 715 0 l 640 0 b 624 10 633 0 628 3 l 335 451 l 189 451 l 189 14 b 175 0 189 4 185 0 l 124 0 b 110 14 114 0 110 4 l 110 876 b 124 890 110 886 114 890 l 472 890 b 717 674 626 890 717 806 b 474 451 717 535 622 451 m 189 518 l 469 518 b 635 671 574 518 635 575 b 468 822 635 765 569 822 l 189 822 "},"ŕ":{"ha":464,"x_min":0,"x_max":0,"o":"m 339 831 b 339 811 347 824 347 818 l 174 675 b 154 676 167 669 161 669 l 147 683 b 146 703 140 690 140 696 l 288 861 b 307 863 294 868 300 869 m 378 615 b 429 611 396 615 414 614 b 442 596 438 610 442 604 l 442 550 b 426 539 442 540 436 536 b 379 543 413 542 397 543 b 181 410 282 543 215 499 l 179 14 b 165 0 179 4 175 0 l 114 0 b 100 14 104 0 100 4 l 100 592 b 114 606 100 601 104 606 l 167 606 b 181 592 176 606 181 601 l 181 514 b 378 615 224 582 290 615 "},"Ŗ":{"ha":782,"x_min":0,"x_max":0,"o":"m 424 451 l 714 17 b 704 0 719 10 715 0 l 640 0 b 624 10 633 0 628 3 l 335 451 l 189 451 l 189 14 b 175 0 189 4 185 0 l 124 0 b 110 14 114 0 110 4 l 110 876 b 124 890 110 886 114 890 l 472 890 b 717 674 626 890 717 806 b 474 451 717 535 622 451 m 189 518 l 469 518 b 635 671 574 518 635 575 b 468 822 635 765 569 822 l 189 822 m 415 -74 b 481 -136 453 -74 481 -97 b 450 -208 481 -153 471 -176 l 392 -296 b 372 -300 386 -306 379 -307 l 363 -294 b 360 -275 356 -289 356 -282 l 422 -186 b 407 -187 418 -187 414 -187 b 356 -135 378 -187 356 -168 b 415 -74 356 -100 381 -74 "},"ŗ":{"ha":464,"x_min":0,"x_max":0,"o":"m 378 615 b 429 611 396 615 414 614 b 442 596 438 610 442 604 l 442 550 b 426 539 442 540 436 536 b 379 543 413 542 397 543 b 181 410 282 543 215 499 l 179 14 b 165 0 179 4 175 0 l 114 0 b 100 14 104 0 100 4 l 100 592 b 114 606 100 601 104 606 l 167 606 b 181 592 176 606 181 601 l 181 514 b 378 615 224 582 290 615 m 140 -76 b 206 -139 178 -76 206 -100 b 175 -211 206 -156 196 -179 l 117 -299 b 97 -303 111 -308 104 -310 l 88 -297 b 85 -278 81 -292 81 -285 l 147 -189 b 132 -190 143 -190 139 -190 b 81 -137 103 -190 81 -171 b 140 -76 81 -103 106 -76 "},"Ř":{"ha":782,"x_min":0,"x_max":0,"o":"m 417 969 b 399 961 413 964 407 961 l 339 961 b 321 969 332 961 325 964 l 221 1097 b 224 1117 215 1104 217 1111 l 242 1129 b 261 1128 249 1133 256 1133 l 368 1021 l 476 1128 b 496 1129 482 1133 489 1133 l 514 1117 b 517 1097 521 1111 521 1104 m 424 451 l 714 17 b 704 0 719 10 715 0 l 640 0 b 624 10 633 0 628 3 l 335 451 l 189 451 l 189 14 b 175 0 189 4 185 0 l 124 0 b 110 14 114 0 110 4 l 110 876 b 124 890 110 886 114 890 l 472 890 b 717 674 626 890 717 806 b 474 451 717 535 622 451 m 189 518 l 469 518 b 635 671 574 518 635 575 b 468 822 635 765 569 822 l 189 822 "},"ř":{"ha":464,"x_min":0,"x_max":0,"o":"m 213 682 b 194 674 208 676 201 674 l 135 674 b 117 682 126 674 121 676 l 17 810 b 19 829 11 817 13 824 l 38 842 b 57 840 44 846 51 846 l 164 733 l 272 840 b 292 842 278 846 285 846 l 310 829 b 313 810 317 824 317 817 m 378 615 b 429 611 396 615 414 614 b 442 596 438 610 442 604 l 442 550 b 426 539 442 540 436 536 b 379 543 413 542 397 543 b 181 410 282 543 215 499 l 179 14 b 165 0 179 4 175 0 l 114 0 b 100 14 104 0 100 4 l 100 592 b 114 606 100 601 104 606 l 167 606 b 181 592 176 606 181 601 l 181 514 b 378 615 224 582 290 615 "},"Ś":{"ha":739,"x_min":0,"x_max":0,"o":"m 356 976 b 336 978 349 971 343 971 l 329 985 b 328 1004 322 992 322 997 l 469 1163 b 489 1164 476 1169 482 1171 l 521 1132 b 521 1113 529 1125 529 1119 m 371 -15 b 65 78 249 -15 147 15 b 63 97 58 83 58 90 l 88 136 b 107 139 92 144 99 146 b 369 54 175 82 263 54 b 599 226 518 54 599 117 b 531 358 599 286 576 331 b 417 408 486 386 467 393 l 338 431 b 199 482 276 447 250 456 b 83 668 126 517 89 572 b 375 907 83 813 199 907 b 651 822 474 907 581 874 b 654 803 657 818 658 811 l 631 763 b 613 760 626 753 619 753 b 371 836 543 811 463 836 b 167 669 243 836 167 769 b 357 503 167 574 231 536 l 435 482 b 592 414 497 465 535 451 b 683 229 651 376 683 313 b 371 -15 683 78 567 -15 "},"ś":{"ha":596,"x_min":0,"x_max":0,"o":"m 304 692 b 285 693 297 686 292 686 l 278 700 b 276 719 271 707 271 713 l 418 878 b 438 879 425 885 431 886 l 469 847 b 469 828 478 840 478 835 m 294 -17 b 71 51 201 -17 126 6 b 67 71 64 57 63 64 l 88 107 b 106 111 92 117 99 118 b 296 51 158 71 222 51 b 454 160 397 51 454 92 b 411 239 454 199 439 226 b 343 263 383 254 371 257 l 221 290 b 74 447 122 313 74 365 b 293 622 74 553 161 622 b 500 561 372 622 442 601 b 504 542 507 556 508 549 l 483 504 b 465 500 479 494 472 493 b 294 554 417 536 360 554 b 153 450 206 554 153 513 b 254 358 153 404 186 374 l 381 331 b 536 164 485 307 536 251 b 294 -17 536 53 443 -17 "},"Ŝ":{"ha":739,"x_min":0,"x_max":0,"o":"m 201 988 b 199 1007 194 993 193 1000 l 299 1135 b 317 1143 303 1140 308 1143 l 376 1143 b 394 1135 385 1143 390 1140 l 493 1007 b 490 988 499 1000 497 993 l 474 975 b 454 976 467 969 461 969 l 346 1083 l 239 976 b 219 975 233 971 226 971 m 371 -15 b 65 78 249 -15 147 15 b 63 97 58 83 58 90 l 88 136 b 107 139 92 144 99 146 b 369 54 175 82 263 54 b 599 226 518 54 599 117 b 531 358 599 286 576 331 b 417 408 486 386 467 393 l 338 431 b 199 482 276 447 250 456 b 83 668 126 517 89 572 b 375 907 83 813 199 907 b 651 822 474 907 581 874 b 654 803 657 818 658 811 l 631 763 b 613 760 626 753 619 753 b 371 836 543 811 463 836 b 167 669 243 836 167 769 b 357 503 167 574 231 536 l 435 482 b 592 414 497 465 535 451 b 683 229 651 376 683 313 b 371 -15 683 78 567 -15 "},"ŝ":{"ha":596,"x_min":0,"x_max":0,"o":"m 149 703 b 146 722 142 708 140 715 l 246 850 b 264 858 250 856 257 858 l 324 858 b 342 850 332 858 338 856 l 440 722 b 438 703 446 715 444 708 l 421 690 b 401 692 414 685 408 685 l 293 799 l 186 692 b 167 690 181 686 174 686 m 294 -17 b 71 51 201 -17 126 6 b 67 71 64 57 63 64 l 88 107 b 106 111 92 117 99 118 b 296 51 158 71 222 51 b 454 160 397 51 454 92 b 411 239 454 199 439 226 b 343 263 383 254 371 257 l 221 290 b 74 447 122 313 74 365 b 293 622 74 553 161 622 b 500 561 372 622 442 601 b 504 542 507 556 508 549 l 483 504 b 465 500 479 494 472 493 b 294 554 417 536 360 554 b 153 450 206 554 153 513 b 254 358 153 404 186 374 l 381 331 b 536 164 485 307 536 251 b 294 -17 536 53 443 -17 "},"Ş":{"ha":739,"x_min":0,"x_max":0,"o":"m 683 229 b 389 -15 683 83 574 -10 l 363 -54 b 486 -146 424 -42 486 -78 b 283 -232 486 -253 351 -271 b 275 -215 278 -228 275 -222 l 275 -192 b 290 -183 275 -181 281 -178 b 372 -199 313 -200 340 -206 b 421 -144 404 -192 421 -174 b 335 -99 421 -107 385 -86 b 317 -93 326 -100 321 -97 l 307 -82 b 306 -64 303 -76 301 -71 l 336 -14 b 65 78 229 -8 139 22 b 63 97 58 83 58 90 l 88 136 b 107 139 92 144 99 146 b 369 54 175 82 263 54 b 599 226 518 54 599 117 b 531 358 599 286 576 331 b 417 408 486 386 467 393 l 338 431 b 199 482 276 447 250 456 b 83 668 126 517 89 572 b 375 907 83 813 199 907 b 651 822 474 907 581 874 b 654 803 657 818 658 811 l 631 763 b 613 760 626 753 619 753 b 371 836 543 811 463 836 b 167 669 243 836 167 769 b 357 503 167 574 231 536 l 435 482 b 592 414 497 465 535 451 b 683 229 651 376 683 313 "},"ş":{"ha":596,"x_min":0,"x_max":0,"o":"m 536 164 b 319 -15 536 60 454 -8 l 286 -67 b 410 -158 347 -54 410 -90 b 207 -244 410 -265 275 -283 b 199 -228 201 -240 199 -235 l 199 -204 b 214 -196 199 -193 204 -190 b 294 -211 236 -212 263 -218 b 343 -157 326 -204 343 -186 b 258 -111 343 -119 308 -99 b 240 -106 250 -112 244 -110 l 231 -94 b 229 -76 226 -89 225 -83 l 267 -15 b 71 51 188 -11 122 11 b 67 71 64 57 63 64 l 88 107 b 106 111 92 117 99 118 b 296 51 158 71 222 51 b 454 160 397 51 454 92 b 411 239 454 199 439 226 b 343 263 383 254 371 257 l 221 290 b 74 447 122 313 74 365 b 293 622 74 553 161 622 b 500 561 372 622 442 601 b 504 542 507 556 508 549 l 483 504 b 465 500 479 494 472 493 b 294 554 417 536 360 554 b 153 450 206 554 153 513 b 254 358 153 404 186 374 l 381 331 b 536 164 485 307 536 251 "},"Š":{"ha":739,"x_min":0,"x_max":0,"o":"m 199 1111 b 201 1131 193 1118 194 1125 l 219 1143 b 239 1142 226 1147 233 1147 l 346 1035 l 454 1142 b 474 1143 460 1147 467 1147 l 492 1131 b 494 1111 499 1125 499 1118 l 394 983 b 376 975 390 978 385 975 l 317 975 b 299 983 308 975 303 978 m 371 -15 b 65 78 249 -15 147 15 b 63 97 58 83 58 90 l 88 136 b 107 139 92 144 99 146 b 369 54 175 82 263 54 b 599 226 518 54 599 117 b 531 358 599 286 576 331 b 417 408 486 386 467 393 l 338 431 b 199 482 276 447 250 456 b 83 668 126 517 89 572 b 375 907 83 813 199 907 b 651 822 474 907 581 874 b 654 803 657 818 658 811 l 631 763 b 613 760 626 753 619 753 b 371 836 543 811 463 836 b 167 669 243 836 167 769 b 357 503 167 574 231 536 l 435 482 b 592 414 497 465 535 451 b 683 229 651 376 683 313 b 371 -15 683 78 567 -15 "},"š":{"ha":596,"x_min":0,"x_max":0,"o":"m 147 826 b 150 846 142 833 143 840 l 168 858 b 188 857 175 863 182 863 l 294 750 l 403 857 b 422 858 408 863 415 863 l 440 846 b 443 826 447 840 447 833 l 343 699 b 325 690 339 693 332 690 l 265 690 b 247 699 257 690 251 693 m 294 -17 b 71 51 201 -17 126 6 b 67 71 64 57 63 64 l 88 107 b 106 111 92 117 99 118 b 296 51 158 71 222 51 b 454 160 397 51 454 92 b 411 239 454 199 439 226 b 343 263 383 254 371 257 l 221 290 b 74 447 122 313 74 365 b 293 622 74 553 161 622 b 500 561 372 622 442 601 b 504 542 507 556 508 549 l 483 504 b 465 500 479 494 472 493 b 294 554 417 536 360 554 b 153 450 206 554 153 513 b 254 358 153 404 186 374 l 381 331 b 536 164 485 307 536 251 b 294 -17 536 53 443 -17 "},"Ţ":{"ha":675,"x_min":0,"x_max":0,"o":"m 379 10 b 374 -8 379 6 378 -1 l 343 -54 b 467 -146 404 -42 467 -78 b 264 -232 467 -253 332 -271 b 256 -215 258 -228 256 -222 l 256 -192 b 271 -183 256 -181 261 -178 b 353 -199 293 -200 321 -206 b 401 -144 385 -192 401 -174 b 315 -99 401 -107 365 -86 b 297 -93 307 -100 301 -97 l 288 -82 b 286 -64 283 -76 282 -71 l 325 0 l 313 0 b 299 14 303 0 299 4 l 299 815 l 32 815 b 18 829 22 815 18 819 l 18 876 b 32 890 18 886 22 890 l 643 890 b 657 876 653 890 657 886 l 657 829 b 643 815 657 819 653 815 l 379 815 "},"ţ":{"ha":564,"x_min":0,"x_max":0,"o":"m 524 553 b 510 539 524 543 519 539 l 289 539 l 289 188 b 418 57 289 100 332 57 b 501 71 446 57 474 61 b 517 60 511 74 517 69 l 517 15 b 506 0 517 7 513 1 b 422 -14 476 -8 449 -12 l 388 -67 b 511 -158 449 -54 511 -90 b 308 -244 511 -265 376 -283 b 300 -228 303 -240 300 -235 l 300 -204 b 315 -196 300 -193 306 -190 b 397 -211 338 -212 365 -218 b 446 -157 429 -204 446 -186 b 360 -111 446 -119 410 -99 b 342 -106 351 -112 346 -110 l 332 -94 b 331 -76 328 -89 326 -83 l 371 -11 b 208 188 263 3 208 69 l 208 539 l 35 539 b 21 553 25 539 21 543 l 21 592 b 35 606 21 601 25 606 l 208 606 l 208 876 b 222 890 208 886 213 890 l 275 890 b 289 876 285 890 289 886 l 289 606 l 510 606 b 524 592 519 606 524 601 "},"Ť":{"ha":675,"x_min":0,"x_max":0,"o":"m 386 968 b 368 960 382 963 376 960 l 308 960 b 290 968 300 960 294 963 l 190 1096 b 193 1115 185 1103 186 1110 l 211 1128 b 231 1126 218 1132 225 1132 l 338 1019 l 446 1126 b 465 1128 451 1132 458 1132 l 483 1115 b 486 1096 490 1110 490 1103 m 643 890 b 657 876 653 890 657 886 l 657 829 b 643 815 657 819 653 815 l 379 815 l 379 14 b 365 0 379 4 375 0 l 313 0 b 299 14 303 0 299 4 l 299 815 l 32 815 b 18 829 22 815 18 819 l 18 876 b 32 890 18 886 22 890 "},"ť":{"ha":551,"x_min":0,"x_max":0,"o":"m 443 911 b 457 896 453 911 458 903 l 435 701 b 421 689 433 693 429 689 l 401 689 b 388 703 392 689 388 693 l 388 897 b 401 911 388 907 392 911 m 524 553 b 510 539 524 543 519 539 l 289 539 l 289 188 b 418 57 289 100 332 57 b 501 71 446 57 474 61 b 517 60 511 74 517 69 l 517 15 b 506 0 517 7 513 1 b 411 -14 475 -10 443 -14 b 208 188 283 -14 208 54 l 208 539 l 35 539 b 21 553 25 539 21 543 l 21 592 b 35 606 21 601 25 606 l 208 606 l 208 876 b 222 890 208 886 213 890 l 275 890 b 289 876 285 890 289 886 l 289 606 l 510 606 b 524 592 519 606 524 601 "},"Ŧ":{"ha":675,"x_min":0,"x_max":0,"o":"m 657 829 b 643 815 657 819 653 815 l 379 815 l 379 526 l 560 526 b 574 513 569 526 574 522 l 574 471 b 560 457 574 461 569 457 l 379 457 l 379 14 b 365 0 379 4 375 0 l 313 0 b 299 14 303 0 299 4 l 299 457 l 119 457 b 106 471 110 457 106 461 l 106 513 b 119 526 106 522 110 526 l 299 526 l 299 815 l 32 815 b 18 829 22 815 18 819 l 18 876 b 32 890 18 886 22 890 l 643 890 b 657 876 653 890 657 886 "},"ŧ":{"ha":581,"x_min":0,"x_max":0,"o":"m 524 553 b 510 539 524 543 519 539 l 289 539 l 289 375 l 510 375 b 524 361 519 375 524 371 l 524 329 b 510 315 524 319 519 315 l 289 315 l 289 188 b 418 57 289 100 332 57 b 501 71 446 57 474 61 b 517 60 511 74 517 69 l 517 15 b 506 0 517 7 513 1 b 411 -14 475 -10 443 -14 b 208 188 283 -14 208 54 l 208 315 l 36 315 b 22 329 26 315 22 319 l 22 361 b 36 375 22 371 26 375 l 208 375 l 208 539 l 35 539 b 21 553 25 539 21 543 l 21 592 b 35 606 21 601 25 606 l 208 606 l 208 876 b 222 890 208 886 213 890 l 275 890 b 289 876 285 890 289 886 l 289 606 l 510 606 b 524 592 519 606 524 601 "},"Ũ":{"ha":864,"x_min":0,"x_max":0,"o":"m 297 968 b 282 981 288 968 283 972 b 360 1083 275 1047 308 1083 b 432 1057 379 1083 403 1075 b 499 1032 461 1040 483 1032 b 535 1072 521 1032 533 1046 b 549 1086 535 1082 539 1086 l 568 1086 b 582 1074 578 1086 582 1082 b 497 972 589 1011 553 972 b 422 997 476 972 451 981 b 363 1022 394 1014 375 1022 b 329 982 342 1022 331 1008 b 315 968 328 972 322 968 m 99 876 b 113 890 99 886 103 890 l 167 890 b 181 876 176 890 181 886 l 181 300 b 254 114 182 213 206 151 b 433 60 303 78 363 60 b 611 118 504 60 563 79 b 685 300 660 157 685 218 l 685 876 b 699 890 685 886 689 890 l 751 890 b 765 876 761 890 765 886 l 765 299 b 669 63 765 194 733 115 b 433 -17 606 10 526 -17 b 99 299 272 -17 99 64 "},"ũ":{"ha":726,"x_min":0,"x_max":0,"o":"m 260 697 b 246 683 258 688 253 683 l 228 683 b 213 696 218 683 214 688 b 290 799 206 763 239 799 b 363 772 310 799 333 790 b 429 747 392 756 414 747 b 465 788 451 747 464 761 b 479 801 465 797 469 801 l 499 801 b 513 789 508 801 513 797 b 428 688 519 726 483 688 b 353 713 407 688 382 696 b 293 738 325 729 306 738 b 260 697 272 738 261 724 m 546 592 b 560 606 546 601 550 606 l 611 606 b 625 592 621 606 625 601 l 625 14 b 611 0 625 4 621 0 l 560 0 b 546 14 550 0 546 4 l 546 67 b 335 -17 489 11 418 -17 b 100 235 185 -17 100 79 l 100 592 b 114 606 100 601 104 606 l 165 606 b 179 592 175 606 179 601 l 179 249 b 350 56 179 119 236 56 b 546 149 432 54 497 85 "},"Ū":{"ha":864,"x_min":0,"x_max":0,"o":"m 279 1022 b 293 1036 279 1032 283 1036 l 574 1036 b 588 1022 583 1036 588 1032 l 588 982 b 574 968 588 972 583 968 l 293 968 b 279 982 283 968 279 972 m 99 876 b 113 890 99 886 103 890 l 167 890 b 181 876 176 890 181 886 l 181 300 b 254 114 182 213 206 151 b 433 60 303 78 363 60 b 611 118 504 60 563 79 b 685 300 660 157 685 218 l 685 876 b 699 890 685 886 689 890 l 751 890 b 765 876 761 890 765 886 l 765 299 b 669 63 765 194 733 115 b 433 -17 606 10 526 -17 b 99 299 272 -17 99 64 "},"ū":{"ha":726,"x_min":0,"x_max":0,"o":"m 504 751 b 518 738 514 751 518 747 l 518 697 b 504 683 518 688 514 683 l 224 683 b 210 697 214 683 210 688 l 210 738 b 224 751 210 747 214 751 m 546 592 b 560 606 546 601 550 606 l 611 606 b 625 592 621 606 625 601 l 625 14 b 611 0 625 4 621 0 l 560 0 b 546 14 550 0 546 4 l 546 67 b 335 -17 489 11 418 -17 b 100 235 185 -17 100 79 l 100 592 b 114 606 100 601 104 606 l 165 606 b 179 592 175 606 179 601 l 179 249 b 350 56 179 119 236 56 b 546 149 432 54 497 85 "},"Ů":{"ha":864,"x_min":0,"x_max":0,"o":"m 433 926 b 303 1051 356 926 303 979 b 433 1179 303 1124 357 1179 b 564 1051 510 1179 564 1124 b 433 926 564 979 510 926 m 499 1056 b 433 1121 499 1093 468 1121 b 368 1056 400 1121 368 1093 b 499 1056 368 967 499 967 m 99 876 b 113 890 99 886 103 890 l 167 890 b 181 876 176 890 181 886 l 181 300 b 254 114 182 213 206 151 b 433 60 303 78 363 60 b 611 118 504 60 563 79 b 685 300 660 157 685 218 l 685 876 b 699 890 685 886 689 890 l 751 890 b 765 876 761 890 765 886 l 765 299 b 669 63 765 194 733 115 b 433 -17 606 10 526 -17 b 99 299 272 -17 99 64 "},"ů":{"ha":726,"x_min":0,"x_max":0,"o":"m 363 642 b 232 767 285 642 232 694 b 363 894 232 839 286 894 b 493 767 439 894 493 839 b 363 642 493 694 439 642 m 363 836 b 297 771 329 836 297 808 b 428 771 297 682 428 682 b 363 836 428 808 397 836 m 546 592 b 560 606 546 601 550 606 l 611 606 b 625 592 621 606 625 601 l 625 14 b 611 0 625 4 621 0 l 560 0 b 546 14 550 0 546 4 l 546 67 b 335 -17 489 11 418 -17 b 100 235 185 -17 100 79 l 100 592 b 114 606 100 601 104 606 l 165 606 b 179 592 175 606 179 601 l 179 249 b 350 56 179 119 236 56 b 546 149 432 54 497 85 "},"Ű":{"ha":864,"x_min":0,"x_max":0,"o":"m 353 961 b 333 963 346 956 340 956 l 326 969 b 325 989 319 976 319 982 l 467 1147 b 486 1149 474 1154 479 1156 l 518 1117 b 518 1097 526 1110 526 1104 m 532 961 b 513 963 525 956 519 956 l 506 969 b 504 989 499 976 499 982 l 646 1147 b 665 1149 653 1154 658 1156 l 697 1117 b 697 1097 706 1110 706 1104 m 99 876 b 113 890 99 886 103 890 l 167 890 b 181 876 176 890 181 886 l 181 300 b 254 114 182 213 206 151 b 433 60 303 78 363 60 b 611 118 504 60 563 79 b 685 300 660 157 685 218 l 685 876 b 699 890 685 886 689 890 l 751 890 b 765 876 761 890 765 886 l 765 299 b 669 63 765 194 733 115 b 433 -17 606 10 526 -17 b 99 299 272 -17 99 64 "},"ű":{"ha":726,"x_min":0,"x_max":0,"o":"m 447 832 b 447 813 456 825 456 819 l 282 676 b 263 678 275 671 269 671 l 256 685 b 254 704 249 692 249 697 l 396 863 b 415 864 403 869 408 871 m 461 676 b 442 678 454 671 449 671 l 435 685 b 433 704 428 692 428 697 l 575 863 b 594 864 582 869 588 871 l 626 832 b 626 813 635 825 635 819 m 546 592 b 560 606 546 601 550 606 l 611 606 b 625 592 621 606 625 601 l 625 14 b 611 0 625 4 621 0 l 560 0 b 546 14 550 0 546 4 l 546 67 b 335 -17 489 11 418 -17 b 100 235 185 -17 100 79 l 100 592 b 114 606 100 601 104 606 l 165 606 b 179 592 175 606 179 601 l 179 249 b 350 56 179 119 236 56 b 546 149 432 54 497 85 "},"Ų":{"ha":864,"x_min":0,"x_max":0,"o":"m 685 876 b 699 890 685 886 689 890 l 751 890 b 765 876 761 890 765 886 l 765 299 b 679 72 765 200 736 125 b 465 -15 622 21 551 -8 b 422 -90 436 -37 422 -62 b 475 -139 422 -119 443 -139 b 500 -135 483 -139 492 -137 b 517 -144 510 -133 515 -136 l 521 -167 b 513 -185 522 -176 519 -182 b 465 -193 499 -190 483 -193 b 367 -101 403 -193 367 -157 b 400 -15 367 -69 378 -40 b 99 299 250 -4 99 79 l 99 876 b 113 890 99 886 103 890 l 167 890 b 181 876 176 890 181 886 l 181 300 b 254 114 182 213 206 151 b 433 60 303 78 363 60 b 611 118 504 60 563 79 b 685 300 660 157 685 218 "},"ų":{"ha":726,"x_min":0,"x_max":0,"o":"m 628 -135 b 644 -144 638 -133 643 -136 l 649 -167 b 640 -185 650 -176 647 -182 b 593 -193 626 -190 611 -193 b 494 -101 531 -193 494 -157 b 546 1 494 -61 511 -26 l 546 67 b 335 -17 489 11 418 -17 b 100 235 185 -17 100 79 l 100 592 b 114 606 100 601 104 606 l 165 606 b 179 592 175 606 179 601 l 179 249 b 350 56 179 119 236 56 b 546 149 432 54 497 85 l 546 592 b 560 606 546 601 550 606 l 611 606 b 625 592 621 606 625 601 l 625 14 b 622 0 625 4 624 0 l 619 0 b 550 -90 574 -24 550 -53 b 603 -139 550 -119 571 -139 b 628 -135 611 -139 619 -137 "},"Ŵ":{"ha":1456,"x_min":0,"x_max":0,"o":"m 731 1068 l 624 961 b 604 960 618 956 611 956 l 586 972 b 583 992 579 978 579 985 l 683 1119 b 701 1128 688 1125 693 1128 l 761 1128 b 779 1119 768 1128 775 1125 l 879 992 b 876 972 885 985 883 978 l 858 960 b 839 961 851 956 844 956 m 1340 879 b 1357 890 1343 886 1349 890 l 1418 890 b 1429 874 1428 890 1432 885 l 1106 11 b 1090 0 1103 4 1097 0 l 1038 0 b 1022 11 1031 0 1025 4 l 726 761 l 433 11 b 418 0 431 4 425 0 l 363 0 b 347 11 356 0 350 4 l 26 874 b 38 890 24 885 28 890 l 97 890 b 114 879 106 890 111 886 l 393 117 l 683 856 b 699 867 686 863 692 867 l 757 867 b 772 856 764 867 769 863 l 1061 118 "},"ŵ":{"ha":1056,"x_min":0,"x_max":0,"o":"m 525 783 l 418 676 b 399 675 413 671 406 671 l 381 688 b 378 707 374 693 374 700 l 478 835 b 496 843 482 840 488 843 l 556 843 b 574 835 563 843 569 840 l 674 707 b 671 688 679 700 678 693 l 653 675 b 633 676 646 671 639 671 m 963 594 b 978 606 965 601 971 606 l 1036 606 b 1047 589 1049 606 1051 600 l 792 11 b 776 0 789 4 783 0 l 726 0 b 711 11 719 0 714 4 l 526 489 l 340 11 b 325 0 338 4 332 0 l 276 0 b 261 11 269 0 264 4 l 8 589 b 19 606 4 600 7 606 l 78 606 b 93 594 85 606 90 601 l 301 103 l 483 572 b 499 583 486 579 492 583 l 556 583 b 571 572 563 583 568 579 l 753 104 "},"Ŷ":{"ha":794,"x_min":0,"x_max":0,"o":"m 254 971 b 251 990 247 976 246 983 l 351 1118 b 369 1126 356 1124 363 1126 l 429 1126 b 447 1118 438 1126 443 1124 l 547 990 b 544 971 553 983 551 976 l 526 958 b 507 960 519 954 513 954 l 399 1067 l 292 960 b 272 958 286 954 279 954 m 26 874 b 36 890 21 883 25 890 l 94 890 b 111 882 101 890 107 888 l 400 453 l 685 882 b 701 890 689 888 694 890 l 760 890 b 769 874 771 890 775 883 l 440 378 l 440 14 b 426 0 440 4 436 0 l 374 0 b 360 14 364 0 360 4 l 360 378 "},"ŷ":{"ha":668,"x_min":0,"x_max":0,"o":"m 164 688 b 161 707 157 693 156 700 l 261 835 b 279 843 265 840 271 843 l 339 843 b 357 835 346 843 353 840 l 457 707 b 454 688 463 700 461 693 l 436 675 b 417 676 429 671 422 671 l 308 783 l 201 676 b 182 675 196 671 189 671 m 28 589 b 39 606 22 599 28 606 l 97 606 b 114 596 106 606 111 603 l 332 188 l 551 596 b 568 606 554 603 560 606 l 629 606 b 639 589 639 606 644 599 l 178 -254 b 161 -264 175 -261 169 -264 l 103 -264 b 92 -247 92 -264 86 -257 l 288 111 "},"Ÿ":{"ha":794,"x_min":0,"x_max":0,"o":"m 293 950 b 235 1007 260 950 235 975 b 293 1067 235 1042 260 1067 b 353 1007 328 1067 353 1042 b 293 950 353 975 328 950 m 446 1007 b 565 1007 446 1085 565 1085 b 506 950 565 975 539 950 b 446 1007 472 950 446 975 m 26 874 b 36 890 21 883 25 890 l 94 890 b 111 882 101 890 107 888 l 400 453 l 685 882 b 701 890 689 888 694 890 l 760 890 b 769 874 771 890 775 883 l 440 378 l 440 14 b 426 0 440 4 436 0 l 374 0 b 360 14 364 0 360 4 l 360 378 "},"Ź":{"ha":797,"x_min":0,"x_max":0,"o":"m 396 961 b 376 963 389 956 383 956 l 369 969 b 368 989 363 976 363 982 l 510 1147 b 529 1149 517 1154 522 1156 l 561 1117 b 561 1097 569 1110 569 1104 m 74 0 b 60 14 64 0 60 4 l 60 51 b 65 69 60 58 61 65 l 619 815 l 96 815 b 82 829 86 815 82 819 l 82 876 b 96 890 82 886 86 890 l 710 890 b 724 876 719 890 724 886 l 724 840 b 718 822 724 833 722 826 l 167 75 l 724 75 b 738 61 733 75 738 71 l 738 14 b 724 0 738 4 733 0 "},"ź":{"ha":668,"x_min":0,"x_max":0,"o":"m 336 676 b 317 678 329 671 324 671 l 310 685 b 308 704 303 692 303 697 l 450 863 b 469 864 457 869 463 871 l 501 832 b 501 813 510 825 510 819 m 88 0 b 74 14 78 0 74 4 l 74 50 b 81 67 74 54 76 60 l 476 536 l 101 536 b 88 550 92 536 88 540 l 88 592 b 101 606 88 601 92 606 l 567 606 b 581 592 576 606 581 601 l 581 553 b 574 536 581 549 578 543 l 179 69 l 581 69 b 594 56 590 69 594 65 l 594 14 b 581 0 594 4 590 0 "},"Ż":{"ha":797,"x_min":0,"x_max":0,"o":"m 385 965 b 326 1022 351 965 326 990 b 385 1082 326 1057 351 1082 b 444 1022 419 1082 444 1057 b 385 965 444 990 419 965 m 74 0 b 60 14 64 0 60 4 l 60 51 b 65 69 60 58 61 65 l 619 815 l 96 815 b 82 829 86 815 82 819 l 82 876 b 96 890 82 886 86 890 l 710 890 b 724 876 719 890 724 886 l 724 840 b 718 822 724 833 722 826 l 167 75 l 724 75 b 738 61 733 75 738 71 l 738 14 b 724 0 738 4 733 0 "},"ż":{"ha":668,"x_min":0,"x_max":0,"o":"m 325 681 b 267 738 292 681 267 706 b 325 797 267 772 292 797 b 385 738 360 797 385 772 b 325 681 385 706 360 681 m 88 0 b 74 14 78 0 74 4 l 74 50 b 81 67 74 54 76 60 l 476 536 l 101 536 b 88 550 92 536 88 540 l 88 592 b 101 606 88 601 92 606 l 567 606 b 581 592 576 606 581 601 l 581 553 b 574 536 581 549 578 543 l 179 69 l 581 69 b 594 56 590 69 594 65 l 594 14 b 581 0 594 4 590 0 "},"Ž":{"ha":797,"x_min":0,"x_max":0,"o":"m 239 1096 b 242 1115 233 1103 235 1110 l 260 1128 b 279 1126 267 1132 274 1132 l 386 1019 l 494 1126 b 514 1128 500 1132 507 1132 l 532 1115 b 535 1096 539 1110 539 1103 l 435 968 b 417 960 431 963 424 960 l 357 960 b 339 968 349 960 343 963 m 74 0 b 60 14 64 0 60 4 l 60 51 b 65 69 60 58 61 65 l 619 815 l 96 815 b 82 829 86 815 82 819 l 82 876 b 96 890 82 886 86 890 l 710 890 b 724 876 719 890 724 886 l 724 840 b 718 822 724 833 722 826 l 167 75 l 724 75 b 738 61 733 75 738 71 l 738 14 b 724 0 738 4 733 0 "},"ž":{"ha":668,"x_min":0,"x_max":0,"o":"m 179 811 b 182 831 174 818 175 825 l 200 843 b 219 842 207 847 214 847 l 326 735 l 435 842 b 454 843 440 847 447 847 l 472 831 b 475 811 479 825 479 818 l 375 683 b 357 675 371 678 365 675 l 297 675 b 279 683 290 675 283 678 m 88 0 b 74 14 78 0 74 4 l 74 50 b 81 67 74 54 76 60 l 476 536 l 101 536 b 88 550 92 536 88 540 l 88 592 b 101 606 88 601 92 606 l 567 606 b 581 592 576 606 581 601 l 581 553 b 574 536 581 549 578 543 l 179 69 l 581 69 b 594 56 590 69 594 65 l 594 14 b 581 0 594 4 590 0 "},"ƒ":{"ha":751,"x_min":0,"x_max":0,"o":"m 590 815 b 449 693 501 815 461 776 l 435 600 l 661 600 b 675 586 671 600 675 596 l 675 543 b 661 529 675 533 671 529 l 424 529 l 372 199 b 142 0 351 56 285 0 l 65 0 b 51 14 56 0 51 4 l 51 58 b 65 72 51 68 56 72 l 151 72 b 294 222 233 72 278 111 l 342 529 l 175 529 b 161 543 165 529 161 533 l 161 586 b 175 600 161 596 165 600 l 353 600 l 372 724 b 588 890 389 835 461 890 l 661 890 b 675 876 671 890 675 886 l 675 829 b 661 815 675 819 671 815 "},"Ǻ":{"ha":886,"x_min":0,"x_max":0,"o":"m 563 1174 b 554 1156 565 1164 563 1158 l 346 1101 b 329 1111 338 1100 332 1103 l 325 1121 b 333 1139 322 1129 325 1135 l 528 1224 b 546 1217 538 1226 543 1224 m 792 0 b 776 11 785 0 779 4 l 675 250 l 208 250 l 106 11 b 90 0 103 4 97 0 l 35 0 b 24 17 22 0 19 6 l 381 849 b 317 957 338 871 317 907 b 444 1083 317 1029 371 1083 b 572 957 518 1083 572 1029 b 503 847 572 908 546 868 l 861 17 b 850 0 865 6 863 0 m 381 961 b 444 894 381 922 410 894 b 508 961 478 894 508 921 b 444 1025 508 999 478 1025 b 381 961 411 1025 381 999 m 238 319 l 646 319 l 442 800 "},"ǻ":{"ha":774,"x_min":0,"x_max":0,"o":"m 499 903 b 490 885 501 893 499 888 l 282 831 b 265 840 274 828 268 831 l 261 851 b 269 869 258 860 261 865 l 464 953 b 482 946 474 956 479 953 m 588 592 b 601 606 588 601 592 606 l 653 606 b 667 592 663 606 667 601 l 667 14 b 653 0 667 4 663 0 l 601 0 b 588 14 592 0 588 4 l 588 76 b 364 -17 536 14 461 -17 b 144 71 274 -17 201 13 b 61 303 89 129 61 207 b 271 610 61 458 143 572 b 244 688 253 632 244 658 b 372 813 244 760 299 813 b 500 688 446 813 500 760 b 469 606 500 656 490 629 b 588 529 518 590 558 564 m 372 625 b 436 690 406 625 436 651 b 372 756 436 729 406 756 b 308 690 339 756 308 729 b 372 625 308 651 338 625 m 376 56 b 588 169 471 56 553 101 l 588 436 b 376 550 553 504 471 550 b 206 482 306 550 249 528 b 140 303 163 436 140 376 b 206 124 140 229 163 169 b 376 56 249 78 306 56 "},"Ǽ":{"ha":1104,"x_min":0,"x_max":0,"o":"m 858 1119 b 858 1100 867 1113 867 1107 l 693 964 b 674 965 686 958 681 958 l 667 972 b 665 992 660 979 660 985 l 807 1150 b 826 1151 814 1157 819 1158 m 1029 824 b 1015 810 1029 814 1025 810 l 576 811 l 576 483 l 974 483 b 988 469 983 483 988 479 l 988 422 b 974 408 988 413 983 408 l 576 408 l 576 78 l 1015 78 b 1029 64 1025 78 1029 74 l 1029 14 b 1015 0 1029 4 1025 0 l 511 0 b 497 14 501 0 497 4 l 497 263 l 203 263 l 108 11 b 93 0 106 4 100 0 l 35 0 b 24 17 25 0 21 6 l 350 879 b 365 890 353 886 358 890 l 1015 889 b 1029 875 1025 889 1029 885 m 497 332 l 497 811 l 408 811 l 228 332 "},"ǽ":{"ha":1239,"x_min":0,"x_max":0,"o":"m 801 832 b 801 813 810 825 810 819 l 636 676 b 617 678 629 671 624 671 l 610 685 b 608 704 603 692 603 697 l 750 863 b 769 864 757 869 763 871 m 1181 310 b 1167 297 1181 301 1176 297 l 679 297 b 907 53 674 146 767 53 b 1099 150 999 54 1063 88 b 1118 154 1103 157 1110 158 l 1156 131 b 1160 113 1163 126 1164 119 b 906 -17 1111 33 1015 -17 b 664 90 799 -17 718 19 l 664 14 b 650 0 664 4 660 0 l 601 0 b 588 14 592 0 588 4 l 588 76 b 364 -17 536 14 461 -17 b 144 71 274 -17 201 13 b 61 303 89 129 61 207 b 144 535 61 399 89 476 b 364 622 201 593 274 622 b 588 529 461 622 536 592 l 588 592 b 601 606 588 601 592 606 l 650 606 b 664 592 660 606 664 601 l 664 511 b 901 622 719 585 799 622 b 1104 546 985 622 1053 597 b 1183 350 1157 496 1183 431 b 1181 310 1183 340 1182 326 m 1106 357 b 900 553 1104 475 1022 553 b 681 357 778 553 693 478 m 376 56 b 588 169 471 56 553 101 l 588 436 b 376 550 553 504 471 550 b 206 482 306 550 249 528 b 140 303 163 436 140 376 b 206 124 140 229 163 169 b 376 56 249 78 306 56 "},"Ǿ":{"ha":1018,"x_min":0,"x_max":0,"o":"m 685 1115 b 685 1096 693 1108 693 1103 l 519 960 b 500 961 513 954 507 954 l 493 968 b 492 988 486 975 486 981 l 633 1146 b 653 1147 640 1153 646 1154 m 510 907 b 829 775 636 907 743 863 b 960 444 917 688 960 578 b 829 114 960 311 917 201 b 510 -17 743 26 636 -17 b 189 114 383 -17 276 26 b 60 444 103 201 60 311 b 189 775 60 578 103 688 b 510 907 275 863 382 907 m 510 831 b 247 722 406 831 318 794 b 142 444 176 650 142 557 b 178 269 142 381 154 322 l 803 682 b 510 831 736 776 628 831 m 510 60 b 769 168 613 60 699 96 b 875 444 840 240 875 332 b 839 619 875 508 863 567 l 215 207 b 510 60 282 114 389 60 "},"ǿ":{"ha":760,"x_min":0,"x_max":0,"o":"m 554 847 b 554 828 563 840 563 835 l 389 692 b 369 693 382 686 376 686 l 363 700 b 361 719 356 707 356 713 l 503 878 b 522 879 510 885 515 886 m 582 557 b 700 301 661 494 700 408 b 610 75 700 211 669 136 b 379 -17 550 14 474 -17 b 242 11 329 -17 283 -7 l 201 -53 b 183 -57 197 -60 190 -61 l 150 -36 b 144 -17 143 -31 140 -24 l 183 46 b 61 301 101 107 61 192 b 149 529 61 392 90 468 b 379 622 208 592 285 622 b 525 592 431 622 479 613 l 564 654 b 582 658 568 661 575 663 l 615 638 b 621 618 622 633 625 626 m 140 301 b 225 111 140 221 168 157 l 485 526 b 379 549 450 542 415 549 b 207 478 310 549 253 525 b 140 301 163 432 140 372 m 379 57 b 551 126 450 57 507 81 b 619 301 597 172 619 231 b 540 490 619 379 593 442 l 282 76 b 379 57 313 64 344 57 "},"Ș":{"ha":739,"x_min":0,"x_max":0,"o":"m 435 482 b 592 414 497 465 535 451 b 683 229 651 376 683 313 b 371 -15 683 78 567 -15 b 65 78 249 -15 147 15 b 63 97 58 83 58 90 l 88 136 b 107 139 92 144 99 146 b 369 54 175 82 263 54 b 599 226 518 54 599 117 b 531 358 599 286 576 331 b 417 408 486 386 467 393 l 338 431 b 199 482 276 447 250 456 b 83 668 126 517 89 572 b 375 907 83 813 199 907 b 651 822 474 907 581 874 b 654 803 657 818 658 811 l 631 763 b 613 760 626 753 619 753 b 371 836 543 811 463 836 b 167 669 243 836 167 769 b 357 503 167 574 231 536 m 369 -76 b 435 -139 407 -76 435 -100 b 404 -211 435 -156 425 -179 l 346 -299 b 326 -303 340 -308 333 -310 l 317 -297 b 314 -278 310 -292 310 -285 l 376 -189 b 361 -190 372 -190 368 -190 b 310 -137 332 -190 310 -171 b 369 -76 310 -103 335 -76 "},"ș":{"ha":615,"x_min":0,"x_max":0,"o":"m 381 331 b 536 164 485 307 536 251 b 294 -17 536 53 443 -17 b 71 51 201 -17 126 6 b 67 71 64 57 63 64 l 88 107 b 106 111 92 117 99 118 b 296 51 158 71 222 51 b 454 160 397 51 454 92 b 411 239 454 199 439 226 b 343 263 383 254 371 257 l 221 290 b 74 447 122 313 74 365 b 293 622 74 553 161 622 b 500 561 372 622 442 601 b 504 542 507 556 508 549 l 483 504 b 465 500 479 494 472 493 b 294 554 417 536 360 554 b 153 450 206 554 153 513 b 254 358 153 404 186 374 m 374 -183 b 343 -256 374 -200 364 -224 l 285 -343 b 265 -347 279 -353 272 -354 l 256 -342 b 253 -322 249 -336 249 -329 l 315 -232 b 300 -235 310 -233 304 -235 b 247 -182 271 -235 247 -215 b 374 -183 238 -104 379 -97 "},"Ț":{"ha":675,"x_min":0,"x_max":0,"o":"m 18 876 b 32 890 18 886 22 890 l 643 890 b 657 876 653 890 657 886 l 657 829 b 643 815 657 819 653 815 l 379 815 l 379 14 b 365 0 379 4 375 0 l 313 0 b 299 14 303 0 299 4 l 299 815 l 32 815 b 18 829 22 815 18 819 m 343 -119 b 407 -182 381 -119 407 -143 b 376 -254 407 -199 397 -222 l 318 -342 b 299 -346 313 -351 306 -353 l 289 -340 b 286 -321 282 -335 282 -328 l 351 -231 b 333 -233 342 -232 336 -233 b 282 -181 306 -233 282 -214 b 343 -119 282 -143 308 -119 "},"ț":{"ha":564,"x_min":0,"x_max":0,"o":"m 524 553 b 510 539 524 543 519 539 l 289 539 l 289 188 b 418 57 289 100 332 57 b 501 71 446 57 474 61 b 517 60 511 74 517 69 l 517 15 b 506 0 517 7 513 1 b 411 -14 475 -10 443 -14 b 208 188 283 -14 208 54 l 208 539 l 35 539 b 21 553 25 539 21 543 l 21 592 b 35 606 21 601 25 606 l 208 606 l 208 876 b 222 890 208 886 213 890 l 275 890 b 289 876 285 890 289 886 l 289 606 l 510 606 b 524 592 519 606 524 601 m 396 -89 b 461 -151 433 -89 461 -112 b 431 -224 461 -168 451 -192 l 372 -311 b 353 -315 367 -321 360 -322 l 343 -310 b 340 -290 336 -304 336 -297 l 403 -201 b 388 -203 399 -203 394 -203 b 336 -150 358 -203 336 -183 b 396 -89 336 -115 361 -89 "},"ȷ":{"ha":299,"x_min":0,"x_max":0,"o":"m 139 -262 b 125 -249 129 -262 125 -258 l 125 592 b 139 606 125 601 129 606 l 192 606 b 206 592 201 606 206 601 l 206 -249 b 192 -262 206 -258 201 -262 "},"Ƀ":{"ha":833,"x_min":0,"x_max":0,"o":"m 579 449 b 729 232 672 414 729 332 b 651 63 729 161 703 106 b 451 0 600 21 533 0 l 124 0 b 110 14 114 0 110 4 l 110 221 l 24 221 b 10 235 14 221 10 225 l 10 268 b 24 282 10 278 14 282 l 110 282 l 110 876 b 124 890 110 886 114 890 l 442 890 b 719 656 614 890 719 794 b 579 449 719 557 668 483 m 188 817 l 188 482 l 446 482 b 642 647 567 482 642 547 b 443 817 642 749 564 817 m 456 75 b 651 243 576 75 651 139 b 456 411 651 350 571 411 l 188 411 l 188 282 l 318 282 b 332 268 328 282 332 278 l 332 235 b 318 221 332 225 328 221 l 188 221 l 188 75 "},"ˆ":{"ha":456,"x_min":0,"x_max":0,"o":"m 82 972 b 79 992 75 978 74 985 l 179 1119 b 197 1128 183 1125 190 1128 l 257 1128 b 275 1119 265 1128 271 1125 l 375 992 b 372 972 381 985 379 978 l 354 960 b 335 961 347 956 340 956 l 226 1068 l 119 961 b 100 960 114 956 107 956 "},"ˇ":{"ha":456,"x_min":0,"x_max":0,"o":"m 79 1096 b 82 1115 74 1103 75 1110 l 100 1128 b 119 1126 107 1132 114 1132 l 226 1019 l 335 1126 b 354 1128 340 1132 347 1132 l 372 1115 b 375 1096 379 1110 379 1103 l 275 968 b 257 960 271 963 265 960 l 197 960 b 179 968 190 960 183 963 "},"˘":{"ha":488,"x_min":0,"x_max":0,"o":"m 394 1099 b 407 1083 406 1099 410 1093 b 244 953 390 1004 326 953 b 81 1083 161 953 97 1004 b 93 1099 78 1093 82 1099 l 131 1099 b 146 1086 138 1099 143 1094 b 244 1017 158 1040 192 1017 b 342 1086 296 1017 329 1040 b 357 1099 344 1094 350 1099 "},"˙":{"ha":206,"x_min":0,"x_max":0,"o":"m 101 953 b 43 1010 68 953 43 978 b 101 1069 43 1044 68 1069 b 161 1010 136 1069 161 1044 b 101 953 161 978 136 953 "},"˚":{"ha":428,"x_min":0,"x_max":0,"o":"m 213 913 b 82 1038 135 913 82 965 b 213 1165 82 1110 136 1165 b 343 1038 289 1165 343 1110 b 213 913 343 965 289 913 m 278 1042 b 213 1107 278 1079 247 1107 b 147 1042 179 1107 147 1079 b 278 1042 147 953 278 953 "},"˛":{"ha":271,"x_min":0,"x_max":0,"o":"m 157 -193 b 58 -101 94 -193 58 -157 b 133 17 58 -50 83 -11 b 151 19 140 21 146 21 l 176 15 b 179 -3 193 14 192 4 b 114 -90 136 -26 114 -56 b 167 -139 114 -119 135 -139 b 192 -135 175 -139 183 -137 b 208 -144 201 -133 207 -136 l 213 -167 b 206 -185 214 -175 213 -181 b 157 -193 190 -190 174 -193 "},"˜":{"ha":533,"x_min":0,"x_max":0,"o":"m 115 968 b 100 981 107 968 101 972 b 178 1083 93 1047 126 1083 b 250 1057 197 1083 221 1075 b 317 1032 279 1040 301 1032 b 353 1072 339 1032 351 1046 b 367 1086 353 1082 357 1086 l 386 1086 b 400 1074 396 1086 400 1082 b 315 972 407 1011 371 972 b 240 997 294 972 269 981 b 181 1022 213 1014 193 1022 b 147 982 160 1022 149 1008 b 133 968 146 972 140 968 "},"˝":{"ha":486,"x_min":0,"x_max":0,"o":"m 92 961 b 72 963 85 956 79 956 l 65 969 b 64 989 58 976 58 982 l 206 1147 b 225 1149 213 1154 218 1156 l 257 1117 b 257 1097 265 1110 265 1104 m 271 961 b 251 963 264 956 258 956 l 244 969 b 243 989 238 976 238 982 l 385 1147 b 404 1149 392 1154 397 1156 l 436 1117 b 436 1097 444 1110 444 1104 "},"̀":{"ha":0,"x_min":0,"x_max":0,"o":"m -90 963 b -110 961 -97 956 -103 956 l -275 1097 b -275 1117 -283 1104 -283 1110 l -243 1149 b -224 1147 -236 1156 -231 1154 l -82 989 b -83 969 -76 982 -76 976 "},"́":{"ha":0,"x_min":0,"x_max":0,"o":"m -187 961 b -207 963 -194 956 -200 956 l -214 969 b -215 989 -221 976 -221 982 l -74 1147 b -54 1149 -67 1154 -61 1156 l -22 1117 b -22 1097 -14 1110 -14 1104 "},"̂":{"ha":0,"x_min":0,"x_max":0,"o":"m -374 972 b -376 992 -381 978 -382 985 l -276 1119 b -258 1128 -272 1125 -265 1128 l -199 1128 b -181 1119 -190 1128 -185 1125 l -82 992 b -85 972 -76 985 -78 978 l -101 960 b -121 961 -108 954 -114 954 l -229 1068 l -336 961 b -356 960 -342 956 -349 956 "},"̃":{"ha":0,"x_min":0,"x_max":0,"o":"m -418 968 b -433 981 -426 968 -432 972 b -356 1083 -440 1047 -407 1083 b -282 1057 -336 1083 -311 1075 b -217 1032 -253 1040 -232 1032 b -181 1072 -196 1032 -183 1046 b -167 1086 -181 1082 -176 1086 l -147 1086 b -133 1074 -137 1086 -133 1082 b -218 972 -128 1011 -162 972 b -292 997 -239 972 -264 981 b -353 1022 -321 1014 -340 1022 b -386 982 -375 1022 -386 1008 b -400 968 -387 972 -393 968 "},"̄":{"ha":0,"x_min":0,"x_max":0,"o":"m -410 1022 b -396 1036 -410 1032 -406 1036 l -115 1036 b -101 1022 -106 1036 -101 1032 l -101 982 b -115 968 -101 972 -106 968 l -396 968 b -410 982 -406 968 -410 972 "},"̆":{"ha":0,"x_min":0,"x_max":0,"o":"m -93 1099 b -81 1083 -82 1099 -78 1093 b -243 953 -97 1004 -161 953 b -407 1083 -326 953 -390 1004 b -394 1099 -410 1093 -406 1099 l -357 1099 b -342 1086 -350 1099 -344 1094 b -243 1017 -329 1040 -296 1017 b -146 1086 -192 1017 -158 1040 b -131 1099 -143 1094 -137 1099 "},"̇":{"ha":0,"x_min":0,"x_max":0,"o":"m -143 965 b -201 1022 -176 965 -201 990 b -143 1082 -201 1057 -176 1082 b -83 1022 -108 1082 -83 1057 b -143 965 -83 990 -108 965 "},"̈":{"ha":0,"x_min":0,"x_max":0,"o":"m -315 965 b -374 1022 -349 965 -374 990 b -315 1082 -374 1057 -349 1082 b -256 1022 -281 1082 -256 1057 b -315 965 -256 990 -281 965 m -162 1022 b -43 1022 -162 1100 -43 1100 b -103 965 -43 990 -69 965 b -162 1022 -136 965 -162 990 "},"̊":{"ha":0,"x_min":0,"x_max":0,"o":"m -215 926 b -346 1051 -293 926 -346 979 b -215 1179 -346 1124 -292 1179 b -85 1051 -139 1179 -85 1124 b -215 926 -85 979 -139 926 m -150 1056 b -215 1121 -150 1093 -181 1121 b -281 1056 -249 1121 -281 1093 b -150 1056 -281 967 -150 967 "},"̋":{"ha":0,"x_min":0,"x_max":0,"o":"m -369 961 b -389 963 -376 956 -382 956 l -396 969 b -397 989 -403 976 -403 982 l -256 1147 b -236 1149 -249 1154 -243 1156 l -204 1117 b -204 1097 -196 1110 -196 1104 m -190 961 b -210 963 -197 956 -203 956 l -217 969 b -218 989 -224 976 -224 982 l -76 1147 b -57 1149 -69 1154 -64 1156 l -25 1117 b -25 1097 -17 1110 -17 1104 "},"̌":{"ha":0,"x_min":0,"x_max":0,"o":"m -376 1096 b -374 1115 -382 1103 -381 1110 l -356 1128 b -336 1126 -349 1132 -342 1132 l -229 1019 l -121 1126 b -101 1128 -115 1132 -108 1132 l -83 1115 b -81 1096 -76 1110 -76 1103 l -181 968 b -199 960 -185 963 -190 960 l -258 960 b -276 968 -265 960 -272 963 "},"̒":{"ha":0,"x_min":0,"x_max":0,"o":"m -100 1057 b -50 1004 -72 1057 -50 1036 b -110 944 -50 969 -75 944 b -178 1024 -149 944 -178 974 b -67 1143 -178 1097 -126 1142 b -53 1131 -57 1143 -53 1139 l -53 1129 b -65 1115 -53 1121 -57 1117 b -124 1051 -103 1107 -122 1086 b -100 1057 -119 1056 -111 1057 "},"̦":{"ha":0,"x_min":0,"x_max":0,"o":"m -112 -76 b -47 -139 -75 -76 -47 -100 b -78 -211 -47 -156 -57 -179 l -136 -299 b -156 -303 -142 -308 -149 -310 l -165 -297 b -168 -278 -172 -292 -172 -285 l -106 -189 b -121 -190 -110 -190 -114 -190 b -172 -137 -150 -190 -172 -171 b -112 -76 -172 -103 -147 -76 "},"̧":{"ha":0,"x_min":0,"x_max":0,"o":"m -190 -67 b -67 -158 -129 -54 -67 -90 b -104 -237 -67 -192 -79 -218 b -269 -244 -156 -276 -221 -267 b -278 -228 -275 -240 -278 -235 l -278 -204 b -262 -196 -278 -193 -272 -190 b -181 -211 -240 -212 -212 -218 b -132 -157 -149 -204 -132 -186 b -218 -111 -132 -119 -168 -99 b -236 -106 -226 -112 -232 -110 l -246 -94 b -247 -76 -250 -89 -251 -83 l -190 15 b -174 25 -186 22 -181 25 l -168 25 b -154 11 -158 25 -154 21 l -154 -3 b -160 -21 -154 -7 -156 -14 "},"̸":{"ha":0,"x_min":0,"x_max":0,"o":"m -596 -42 b -614 -47 -600 -51 -607 -53 l -650 -24 b -654 -6 -657 -18 -658 -12 l -215 700 b -196 704 -211 707 -204 708 l -160 683 b -154 664 -153 679 -150 672 "},"Ω":{"ha":1031,"x_min":0,"x_max":0,"o":"m 956 460 b 711 72 956 286 865 143 l 931 72 b 944 58 940 72 944 68 l 944 14 b 931 0 944 4 940 0 l 601 0 b 588 14 592 0 588 4 l 588 78 b 599 93 588 86 592 92 b 792 226 679 118 743 163 b 865 444 840 290 865 363 b 765 688 865 544 832 625 b 515 781 699 750 615 781 b 265 686 415 781 332 749 b 167 442 200 624 167 542 b 235 224 167 360 189 288 b 419 93 281 161 343 117 b 431 78 426 92 431 86 l 431 14 b 417 0 431 4 426 0 l 90 0 b 76 14 81 0 76 4 l 76 58 b 90 72 76 68 81 72 l 317 72 b 75 456 161 143 75 288 b 199 751 75 576 117 675 b 514 867 282 828 388 867 b 829 753 640 867 746 829 b 956 460 914 678 956 581 "},"π":{"ha":728,"x_min":0,"x_max":0,"o":"m 39 576 b 25 590 29 576 25 581 l 25 635 b 39 649 25 644 29 649 l 643 649 b 657 635 653 649 657 644 l 657 590 b 643 576 657 581 653 576 l 543 576 l 543 151 b 624 64 543 81 561 64 l 643 64 b 657 50 653 64 657 60 l 657 13 b 644 -1 657 3 653 -1 b 594 -6 629 -4 613 -6 b 481 49 535 -6 496 14 b 463 143 465 83 463 106 l 463 576 l 221 576 l 221 14 b 207 0 221 4 217 0 l 156 0 b 142 14 146 0 142 4 l 142 576 "},"฿":{"ha":786,"x_min":0,"x_max":0,"o":"m 571 450 b 726 235 667 421 726 340 b 457 0 726 90 624 0 l 386 0 l 386 -121 b 372 -135 386 -131 382 -135 l 335 -135 b 321 -121 325 -135 321 -131 l 321 0 l 124 0 b 110 14 114 0 110 4 l 110 876 b 124 890 110 886 114 890 l 321 890 l 321 997 b 335 1011 321 1007 325 1011 l 372 1011 b 386 997 382 1011 386 1007 l 386 890 l 447 890 b 704 657 603 890 704 797 b 571 450 704 561 660 493 m 185 817 l 185 479 l 421 479 b 621 646 547 479 621 544 b 433 817 621 753 549 817 m 447 74 b 643 242 576 74 643 138 b 444 411 643 354 568 411 l 185 411 l 185 74 "},"Ẁ":{"ha":1456,"x_min":0,"x_max":0,"o":"m 751 989 b 750 969 757 982 757 976 l 743 963 b 724 961 736 956 731 956 l 558 1097 b 558 1117 550 1104 550 1110 l 590 1149 b 610 1147 597 1156 603 1154 m 1340 879 b 1357 890 1343 886 1349 890 l 1418 890 b 1429 874 1428 890 1432 885 l 1106 11 b 1090 0 1103 4 1097 0 l 1038 0 b 1022 11 1031 0 1025 4 l 726 761 l 433 11 b 418 0 431 4 425 0 l 363 0 b 347 11 356 0 350 4 l 26 874 b 38 890 24 885 28 890 l 97 890 b 114 879 106 890 111 886 l 393 117 l 683 856 b 699 867 686 863 692 867 l 757 867 b 772 856 764 867 769 863 l 1061 118 "},"ẁ":{"ha":1056,"x_min":0,"x_max":0,"o":"m 546 704 b 544 685 551 697 551 692 l 538 678 b 518 676 531 671 525 671 l 353 813 b 353 832 344 819 344 825 l 385 864 b 404 863 392 871 397 869 m 963 594 b 978 606 965 601 971 606 l 1036 606 b 1047 589 1049 606 1051 600 l 792 11 b 776 0 789 4 783 0 l 726 0 b 711 11 719 0 714 4 l 526 489 l 340 11 b 325 0 338 4 332 0 l 276 0 b 261 11 269 0 264 4 l 8 589 b 19 606 4 600 7 606 l 78 606 b 93 594 85 606 90 601 l 301 103 l 483 572 b 499 583 486 579 492 583 l 556 583 b 571 572 563 583 568 579 l 753 104 "},"Ẃ":{"ha":1456,"x_min":0,"x_max":0,"o":"m 907 1117 b 907 1097 915 1110 915 1104 l 742 961 b 722 963 735 956 729 956 l 715 969 b 714 989 708 976 708 982 l 856 1147 b 875 1149 863 1154 868 1156 m 1340 879 b 1357 890 1343 886 1349 890 l 1418 890 b 1429 874 1428 890 1432 885 l 1106 11 b 1090 0 1103 4 1097 0 l 1038 0 b 1022 11 1031 0 1025 4 l 726 761 l 433 11 b 418 0 431 4 425 0 l 363 0 b 347 11 356 0 350 4 l 26 874 b 38 890 24 885 28 890 l 97 890 b 114 879 106 890 111 886 l 393 117 l 683 856 b 699 867 686 863 692 867 l 757 867 b 772 856 764 867 769 863 l 1061 118 "},"ẃ":{"ha":1056,"x_min":0,"x_max":0,"o":"m 701 832 b 701 813 710 825 710 819 l 536 676 b 517 678 529 671 524 671 l 510 685 b 508 704 503 692 503 697 l 650 863 b 669 864 657 869 663 871 m 963 594 b 978 606 965 601 971 606 l 1036 606 b 1047 589 1049 606 1051 600 l 792 11 b 776 0 789 4 783 0 l 726 0 b 711 11 719 0 714 4 l 526 489 l 340 11 b 325 0 338 4 332 0 l 276 0 b 261 11 269 0 264 4 l 8 589 b 19 606 4 600 7 606 l 78 606 b 93 594 85 606 90 601 l 301 103 l 483 572 b 499 583 486 579 492 583 l 556 583 b 571 572 563 583 568 579 l 753 104 "},"Ẅ":{"ha":1456,"x_min":0,"x_max":0,"o":"m 625 951 b 567 1008 592 951 567 976 b 625 1068 567 1043 592 1068 b 685 1008 660 1068 685 1043 b 625 951 685 976 660 951 m 778 1008 b 897 1008 778 1086 897 1086 b 838 951 897 976 871 951 b 778 1008 804 951 778 976 m 1340 879 b 1357 890 1343 886 1349 890 l 1418 890 b 1429 874 1428 890 1432 885 l 1106 11 b 1090 0 1103 4 1097 0 l 1038 0 b 1022 11 1031 0 1025 4 l 726 761 l 433 11 b 418 0 431 4 425 0 l 363 0 b 347 11 356 0 350 4 l 26 874 b 38 890 24 885 28 890 l 97 890 b 114 879 106 890 111 886 l 393 117 l 683 856 b 699 867 686 863 692 867 l 757 867 b 772 856 764 867 769 863 l 1061 118 "},"ẅ":{"ha":1056,"x_min":0,"x_max":0,"o":"m 421 667 b 363 724 388 667 363 692 b 421 783 363 758 388 783 b 481 724 456 783 481 758 b 421 667 481 692 456 667 m 574 724 b 693 724 574 801 693 801 b 633 667 693 692 667 667 b 574 724 600 667 574 692 m 963 594 b 978 606 965 601 971 606 l 1036 606 b 1047 589 1049 606 1051 600 l 792 11 b 776 0 789 4 783 0 l 726 0 b 711 11 719 0 714 4 l 526 489 l 340 11 b 325 0 338 4 332 0 l 276 0 b 261 11 269 0 264 4 l 8 589 b 19 606 4 600 7 606 l 78 606 b 93 594 85 606 90 601 l 301 103 l 483 572 b 499 583 486 579 492 583 l 556 583 b 571 572 563 583 568 579 l 753 104 "},"Ỳ":{"ha":794,"x_min":0,"x_max":0,"o":"m 410 961 b 390 960 403 954 397 954 l 225 1096 b 225 1115 217 1103 217 1108 l 257 1147 b 276 1146 264 1154 269 1153 l 418 988 b 417 968 424 981 424 975 m 26 874 b 36 890 21 883 25 890 l 94 890 b 111 882 101 890 107 888 l 400 453 l 685 882 b 701 890 689 888 694 890 l 760 890 b 769 874 771 890 775 883 l 440 378 l 440 14 b 426 0 440 4 436 0 l 374 0 b 360 14 364 0 360 4 l 360 378 "},"ỳ":{"ha":668,"x_min":0,"x_max":0,"o":"m 321 678 b 301 676 314 671 308 671 l 136 813 b 136 832 128 819 128 825 l 168 864 b 188 863 175 871 181 869 l 329 704 b 328 685 335 697 335 692 m 28 589 b 39 606 22 599 28 606 l 97 606 b 114 596 106 606 111 603 l 332 188 l 551 596 b 568 606 554 603 560 606 l 629 606 b 639 589 639 606 644 599 l 178 -254 b 161 -264 175 -261 169 -264 l 103 -264 b 92 -247 92 -264 86 -257 l 288 111 "},"–":{"ha":1174,"x_min":0,"x_max":0,"o":"m 92 350 b 106 364 92 360 96 364 l 1069 364 b 1083 350 1079 364 1083 360 l 1083 301 b 1069 288 1083 292 1079 288 l 106 288 b 92 301 96 288 92 292 "},"—":{"ha":1435,"x_min":0,"x_max":0,"o":"m 92 350 b 106 364 92 360 96 364 l 1329 364 b 1343 350 1339 364 1343 360 l 1343 301 b 1329 288 1343 292 1339 288 l 106 288 b 92 301 96 288 92 292 "},"‘":{"ha":288,"x_min":0,"x_max":0,"o":"m 156 774 b 226 700 194 774 226 746 b 143 618 226 654 192 618 b 54 704 93 618 54 650 b 99 804 54 726 69 760 l 179 928 b 199 931 183 936 190 938 l 221 917 b 224 897 228 911 228 904 l 133 771 b 156 774 138 772 146 774 "},"’":{"ha":288,"x_min":0,"x_max":0,"o":"m 233 825 b 190 726 233 804 219 771 l 108 603 b 90 599 104 596 97 594 l 68 613 b 64 632 60 617 58 624 l 154 758 b 132 756 144 757 138 756 b 61 829 93 756 61 783 b 146 911 61 878 96 911 b 233 825 196 911 233 879 "},"‚":{"ha":283,"x_min":0,"x_max":0,"o":"m 72 115 b 88 128 74 124 79 128 l 164 128 b 175 111 176 128 179 122 l 75 -117 b 60 -128 72 -124 67 -128 l 32 -128 b 21 -112 22 -128 19 -122 "},"“":{"ha":518,"x_min":0,"x_max":0,"o":"m 179 928 b 199 931 183 936 190 938 l 221 917 b 224 897 228 911 228 904 l 133 771 b 156 774 138 772 146 774 b 226 700 194 774 226 746 b 143 618 226 654 192 618 b 54 704 93 618 54 650 b 99 804 54 726 69 760 m 396 774 b 443 642 456 782 494 692 b 294 704 396 593 288 622 b 338 804 294 725 308 758 l 418 928 b 438 931 422 936 429 938 l 460 917 b 464 897 468 913 469 906 l 372 771 b 396 774 378 772 386 774 "},"”":{"ha":528,"x_min":0,"x_max":0,"o":"m 233 825 b 190 726 233 804 219 771 l 108 603 b 90 599 104 596 97 594 l 68 613 b 64 632 60 617 58 624 l 154 758 b 132 756 144 757 138 756 b 61 829 93 756 61 783 b 146 911 61 878 96 911 b 233 825 196 911 233 879 m 385 911 b 474 825 435 911 474 879 b 429 726 474 801 458 769 l 349 603 b 329 599 343 593 336 592 l 307 613 b 304 632 300 618 300 625 l 394 760 b 372 756 388 757 381 756 b 301 829 333 756 301 783 b 385 911 301 878 336 911 "},"„":{"ha":478,"x_min":0,"x_max":0,"o":"m 104 117 b 121 128 107 124 113 128 l 193 128 b 204 111 206 128 208 122 l 108 -117 b 93 -128 106 -124 100 -128 l 36 -128 b 25 -112 26 -128 22 -122 m 296 117 b 311 128 299 124 304 128 l 388 128 b 397 111 399 128 401 122 l 279 -118 b 263 -128 276 -125 271 -128 l 208 -128 b 197 -111 196 -128 193 -122 "},"†":{"ha":506,"x_min":0,"x_max":0,"o":"m 424 449 b 438 435 433 449 438 444 l 438 407 b 424 393 438 397 433 393 l 286 393 l 286 203 b 272 189 286 193 282 189 l 233 189 b 219 203 224 189 219 193 l 219 393 l 82 393 b 68 407 72 393 68 397 l 68 435 b 82 449 68 444 72 449 l 219 449 l 219 876 b 233 890 219 886 224 890 l 272 890 b 286 876 282 890 286 886 l 286 449 "},"‡":{"ha":501,"x_min":0,"x_max":0,"o":"m 418 451 b 432 438 428 451 432 447 l 432 411 b 418 397 432 401 428 397 l 283 397 l 283 206 b 269 192 283 196 279 192 l 231 192 b 217 206 221 192 217 196 l 217 397 l 85 397 b 71 411 75 397 71 401 l 71 438 b 85 451 71 447 75 451 l 217 451 l 217 631 l 83 631 b 69 644 74 631 69 635 l 69 671 b 83 685 69 681 74 685 l 217 685 l 217 876 b 231 890 217 886 221 890 l 269 890 b 283 876 279 890 283 886 l 283 685 l 417 685 b 431 671 426 685 431 681 l 431 644 b 417 631 431 635 426 631 l 283 631 l 283 451 "},"•":{"ha":664,"x_min":0,"x_max":0,"o":"m 97 389 b 164 554 97 454 119 508 b 332 622 210 600 265 622 b 499 554 397 622 453 600 b 567 389 544 508 567 454 b 499 228 567 326 544 274 b 332 160 453 182 397 160 b 165 226 267 160 211 182 b 97 389 119 272 97 326 "},"…":{"ha":869,"x_min":0,"x_max":0,"o":"m 90 60 b 167 136 90 100 126 136 b 243 60 207 136 243 100 b 167 -17 243 21 207 -17 b 90 60 126 -17 90 21 m 357 60 b 435 136 357 100 394 136 b 510 60 475 136 510 100 b 435 -17 510 21 475 -17 b 357 60 394 -17 357 21 m 624 60 b 700 136 624 100 660 136 b 778 60 740 136 778 100 b 700 -17 778 21 740 -17 b 624 60 660 -17 624 21 "},"‰":{"ha":1501,"x_min":0,"x_max":0,"o":"m 436 590 b 301 540 400 557 356 540 b 165 590 247 540 203 557 b 111 724 129 625 111 669 b 165 856 111 778 129 822 b 301 907 203 890 247 907 b 436 856 356 907 400 890 b 492 724 474 822 492 778 b 436 590 492 669 474 625 m 267 -6 b 249 -10 263 -12 256 -14 l 214 13 b 210 31 207 17 206 24 l 790 896 b 808 900 794 903 801 904 l 843 878 b 847 860 850 874 851 867 m 211 636 b 301 603 235 614 264 603 b 390 636 339 603 368 614 b 425 724 414 658 425 688 b 390 811 425 760 414 789 b 301 846 368 835 339 846 b 211 811 264 846 235 835 b 178 724 189 789 178 760 b 211 636 178 688 189 658 m 890 33 b 756 -17 854 0 810 -17 b 619 33 701 -17 657 0 b 565 167 583 68 565 113 b 619 299 565 221 583 265 b 756 350 657 333 701 350 b 890 299 810 350 854 333 b 946 167 928 265 946 221 b 890 33 946 113 928 68 m 1335 33 b 1200 -17 1299 0 1254 -17 b 1064 33 1146 -17 1101 0 b 1010 167 1028 68 1010 113 b 1064 299 1010 221 1028 265 b 1200 350 1101 333 1146 350 b 1335 299 1254 350 1299 333 b 1390 167 1372 265 1390 221 b 1335 33 1390 113 1372 68 m 665 79 b 756 46 689 57 718 46 b 844 79 793 46 822 57 b 879 167 868 101 879 131 b 844 254 879 203 868 232 b 756 288 822 276 793 288 b 665 254 718 288 689 276 b 632 167 643 232 632 203 b 665 79 632 131 643 101 m 1110 79 b 1200 46 1133 57 1163 46 b 1289 79 1238 46 1267 57 b 1324 167 1313 101 1324 131 b 1289 254 1324 203 1313 232 b 1200 288 1267 276 1238 288 b 1110 254 1163 288 1133 276 b 1076 167 1088 232 1076 203 b 1110 79 1076 131 1088 101 "},"‱":{"ha":1946,"x_min":0,"x_max":0,"o":"m 436 590 b 301 540 400 557 356 540 b 165 590 247 540 203 557 b 111 724 129 625 111 669 b 165 856 111 778 129 822 b 301 907 203 890 247 907 b 436 856 356 907 400 890 b 492 724 474 822 492 778 b 436 590 492 669 474 625 m 267 -6 b 249 -10 263 -12 256 -14 l 214 13 b 210 31 207 17 206 24 l 790 896 b 808 900 794 903 801 904 l 843 878 b 847 860 850 874 851 867 m 211 636 b 301 603 235 614 264 603 b 390 636 339 603 368 614 b 425 724 414 658 425 688 b 390 811 425 760 414 789 b 301 846 368 835 339 846 b 211 811 264 846 235 835 b 178 724 189 789 178 760 b 211 636 178 688 189 658 m 890 33 b 756 -17 854 0 810 -17 b 619 33 701 -17 657 0 b 565 167 583 68 565 113 b 619 299 565 221 583 265 b 756 350 657 333 701 350 b 890 299 810 350 854 333 b 946 167 928 265 946 221 b 890 33 946 113 928 68 m 1335 33 b 1200 -17 1299 0 1254 -17 b 1064 33 1146 -17 1101 0 b 1010 167 1028 68 1010 113 b 1064 299 1010 221 1028 265 b 1200 350 1101 333 1146 350 b 1335 299 1254 350 1299 333 b 1390 167 1372 265 1390 221 b 1335 33 1390 113 1372 68 m 1779 33 b 1644 -17 1743 0 1699 -17 b 1508 33 1590 -17 1546 0 b 1454 167 1472 68 1454 113 b 1508 299 1454 221 1472 265 b 1644 350 1546 333 1590 350 b 1779 299 1699 350 1743 333 b 1835 167 1817 265 1835 221 b 1779 33 1835 113 1817 68 m 665 79 b 756 46 689 57 718 46 b 844 79 793 46 822 57 b 879 167 868 101 879 131 b 844 254 879 203 868 232 b 756 288 822 276 793 288 b 665 254 718 288 689 276 b 632 167 643 232 632 203 b 665 79 632 131 643 101 m 1110 79 b 1200 46 1133 57 1163 46 b 1289 79 1238 46 1267 57 b 1324 167 1313 101 1324 131 b 1289 254 1324 203 1313 232 b 1200 288 1267 276 1238 288 b 1110 254 1163 288 1133 276 b 1076 167 1088 232 1076 203 b 1110 79 1076 131 1088 101 m 1554 79 b 1644 46 1578 57 1607 46 b 1733 79 1682 46 1711 57 b 1768 167 1757 101 1768 131 b 1733 254 1768 203 1757 232 b 1644 288 1711 276 1682 288 b 1554 254 1607 288 1578 276 b 1521 167 1532 232 1521 203 b 1554 79 1521 131 1532 101 "},"′":{"ha":228,"x_min":0,"x_max":0,"o":"m 54 843 b 115 907 54 881 81 907 b 174 843 149 907 174 881 b 171 826 174 838 172 832 l 133 619 b 118 607 132 611 126 607 l 110 607 b 94 619 101 607 96 611 l 57 824 b 54 843 56 833 54 839 "},"‹":{"ha":374,"x_min":0,"x_max":0,"o":"m 313 544 b 322 528 322 544 328 538 l 200 303 l 324 76 b 313 60 329 67 324 60 l 260 60 b 243 69 253 60 247 63 l 114 293 b 114 313 110 300 110 306 l 243 535 b 260 544 247 542 253 544 "},"›":{"ha":376,"x_min":0,"x_max":0,"o":"m 117 544 b 133 535 124 544 129 542 l 263 313 b 263 293 267 306 267 300 l 133 69 b 117 60 129 63 124 60 l 64 60 b 53 76 53 60 47 67 l 175 303 l 53 528 b 64 544 47 538 53 544 "},"⁂":{"ha":1089,"x_min":0,"x_max":0,"o":"m 642 622 b 554 683 604 644 575 665 b 565 578 561 651 565 617 l 565 514 b 551 500 565 504 561 500 l 526 500 b 513 514 517 500 513 504 l 513 578 b 524 683 513 615 517 651 b 438 622 500 663 472 643 l 383 589 b 364 594 376 583 369 585 l 351 615 b 357 635 347 624 349 631 l 411 667 b 507 710 450 688 482 703 b 411 754 475 719 443 735 l 357 786 b 351 806 349 790 347 797 l 364 826 b 383 832 369 836 376 838 l 438 799 b 524 738 472 778 500 758 b 513 843 517 769 513 806 l 513 907 b 526 921 513 917 517 921 l 551 921 b 565 907 561 921 565 917 l 565 843 b 554 738 565 804 561 769 b 642 799 575 756 604 776 l 696 832 b 715 826 703 838 710 836 l 728 806 b 722 786 732 797 731 790 l 668 754 b 572 710 636 736 604 721 b 668 667 596 703 628 688 l 722 635 b 728 615 731 631 732 624 l 715 594 b 696 589 710 585 703 583 m 444 303 b 439 283 449 294 447 288 l 385 253 b 289 208 353 235 321 219 b 385 165 318 199 350 183 l 439 133 b 444 114 447 129 449 122 l 432 93 b 413 88 426 83 419 82 l 358 121 b 272 181 321 143 293 163 b 282 76 279 149 282 114 l 282 13 b 268 -1 282 3 278 -1 l 243 -1 b 229 13 233 -1 229 3 l 229 76 b 240 181 229 114 233 149 b 154 121 215 160 186 140 l 100 88 b 81 93 93 82 86 83 l 68 114 b 74 133 64 122 65 129 l 128 165 b 224 208 161 183 193 199 b 128 253 192 218 160 233 l 74 283 b 68 303 65 288 64 294 l 81 324 b 100 329 85 332 92 333 l 154 297 b 240 236 193 272 222 251 b 229 342 233 268 229 304 l 229 406 b 243 419 229 415 233 419 l 268 419 b 282 406 278 419 282 415 l 282 342 b 272 236 282 306 279 271 b 358 297 288 250 315 271 l 413 329 b 432 324 421 333 428 332 m 856 208 b 951 165 885 199 917 183 l 1006 133 b 1010 114 1013 129 1014 122 l 999 93 b 979 88 993 83 986 82 l 925 121 b 838 181 890 142 861 163 b 847 76 844 154 847 119 l 847 13 b 833 -1 847 3 843 -1 l 810 -1 b 796 13 800 -1 796 3 l 796 76 b 807 181 796 114 800 149 b 721 121 782 160 753 140 l 667 88 b 647 93 660 82 653 83 l 635 114 b 640 133 631 122 632 129 l 694 165 b 790 208 728 183 760 199 b 694 253 758 218 726 233 l 640 283 b 635 303 632 288 631 294 l 647 324 b 667 329 651 332 658 333 l 721 297 b 807 236 760 272 789 251 b 796 342 800 268 796 304 l 796 406 b 810 419 796 415 800 419 l 833 419 b 847 406 843 419 847 415 l 847 342 b 838 236 847 299 844 263 b 925 297 853 250 882 271 l 979 329 b 999 324 986 335 993 333 l 1010 303 b 1004 283 1014 294 1013 288 l 951 253 b 856 208 919 235 888 219 "},"⁄":{"ha":908,"x_min":0,"x_max":0,"o":"m 121 -108 b 103 -112 117 -115 110 -117 l 69 -92 b 65 -72 63 -87 61 -81 l 786 1003 b 806 1007 790 1011 797 1013 l 839 985 b 843 967 846 981 847 974 "},"⁰":{"ha":669,"x_min":0,"x_max":0,"o":"m 335 368 b 79 735 174 368 79 506 b 335 1104 79 967 174 1104 b 592 735 497 1104 592 967 b 335 368 592 506 497 368 m 335 443 b 504 735 446 443 504 550 b 335 1026 504 919 446 1026 b 165 735 225 1026 165 922 b 335 443 165 550 225 443 "},"⁴":{"ha":686,"x_min":0,"x_max":0,"o":"m 499 661 l 608 661 b 622 647 618 661 622 657 l 622 604 b 608 590 622 594 618 590 l 499 590 l 499 393 b 485 379 499 383 494 379 l 432 379 b 418 393 422 379 418 383 l 418 590 l 78 590 b 64 604 68 590 64 594 l 64 646 b 69 664 64 653 65 660 l 378 1083 b 396 1092 382 1089 388 1092 l 485 1092 b 499 1078 494 1092 499 1088 m 157 661 l 418 661 l 418 1018 "},"⁵":{"ha":651,"x_min":0,"x_max":0,"o":"m 336 835 b 504 769 404 835 460 813 b 571 603 549 726 571 671 b 499 433 571 533 547 476 b 321 368 451 390 392 368 b 83 556 197 368 100 444 b 94 572 82 565 86 571 l 150 583 b 165 572 158 585 164 582 b 321 443 178 490 239 443 b 483 604 417 443 483 508 b 324 761 483 697 419 761 b 185 701 264 761 217 742 b 167 694 179 696 174 693 l 111 703 b 100 718 101 704 99 710 l 171 1079 b 186 1092 172 1088 176 1092 l 531 1092 b 544 1078 540 1092 544 1088 l 544 1031 b 531 1017 544 1021 540 1017 l 239 1017 l 194 790 b 336 835 231 819 278 835 "},"⁶":{"ha":646,"x_min":0,"x_max":0,"o":"m 338 840 b 511 775 408 840 465 818 b 579 607 557 732 579 675 b 507 435 579 538 556 481 b 324 368 458 390 397 368 b 146 433 250 368 192 390 b 79 604 101 478 79 535 b 94 697 79 635 85 665 b 124 768 106 729 115 753 l 163 829 l 329 1082 b 346 1092 333 1089 339 1092 l 407 1092 b 417 1075 418 1092 422 1082 l 249 824 b 338 840 274 835 303 840 m 325 443 b 494 607 424 443 494 513 b 332 767 494 701 425 767 b 164 604 236 767 164 700 b 325 443 164 510 231 443 "},"⁷":{"ha":542,"x_min":0,"x_max":0,"o":"m 44 1078 b 58 1092 44 1088 49 1092 l 483 1092 b 497 1078 493 1092 497 1088 l 497 1032 b 493 1015 497 1028 496 1022 l 203 389 b 188 379 200 382 194 379 l 125 379 b 114 396 113 379 110 385 l 403 1017 l 58 1017 b 44 1031 49 1017 44 1021 "},"⁸":{"ha":653,"x_min":0,"x_max":0,"o":"m 450 758 b 575 575 528 731 575 657 b 504 425 575 513 551 463 b 328 368 458 388 399 368 b 149 425 257 368 197 388 b 78 575 101 463 78 513 b 203 758 78 660 126 726 b 103 918 142 790 103 850 b 326 1104 103 1028 194 1104 b 550 918 458 1104 550 1028 b 450 758 550 847 511 788 m 325 1028 b 185 913 242 1028 185 981 b 328 793 185 842 243 793 b 467 911 410 793 467 843 b 325 1028 467 982 410 1028 m 328 443 b 490 582 421 443 490 497 b 326 717 490 665 421 717 b 163 582 232 717 163 665 b 328 443 163 497 238 443 "},"⁹":{"ha":663,"x_min":0,"x_max":0,"o":"m 336 1104 b 513 1038 408 1104 467 1082 b 582 867 558 993 582 936 b 565 774 582 836 576 806 b 536 703 556 742 546 718 b 497 642 528 688 515 668 l 331 389 b 314 379 326 382 321 379 l 253 379 b 243 396 242 379 238 386 l 413 647 b 321 629 386 635 356 629 b 149 694 251 629 194 651 b 81 863 103 739 81 794 b 153 1036 81 933 104 990 b 336 1104 201 1082 263 1104 m 329 704 b 497 867 425 704 497 771 b 333 1026 497 963 428 1026 b 167 863 235 1026 167 957 b 329 704 167 768 235 704 "},"⁺":{"ha":713,"x_min":0,"x_max":0,"o":"m 588 781 b 601 767 597 781 601 776 l 601 738 b 588 724 601 728 597 724 l 388 724 l 388 519 b 374 506 388 510 383 506 l 340 506 b 326 519 331 506 326 510 l 326 724 l 125 724 b 111 738 115 724 111 728 l 111 767 b 125 781 111 776 115 781 l 326 781 l 326 983 b 340 997 326 993 331 997 l 374 997 b 388 983 383 997 388 993 l 388 781 "},"⁻":{"ha":581,"x_min":0,"x_max":0,"o":"m 456 781 b 469 767 465 781 469 776 l 469 738 b 456 724 469 728 465 724 l 125 724 b 111 738 115 724 111 728 l 111 767 b 125 781 111 776 115 781 "},"⁼":{"ha":581,"x_min":0,"x_max":0,"o":"m 456 868 b 469 854 465 868 469 864 l 469 825 b 456 811 469 815 465 811 l 125 811 b 111 825 115 811 111 815 l 111 854 b 125 868 111 864 115 868 m 456 668 b 469 654 465 668 469 664 l 469 625 b 456 611 469 615 465 611 l 125 611 b 111 625 115 611 111 615 l 111 654 b 125 668 111 664 115 668 "},"₀":{"ha":669,"x_min":0,"x_max":0,"o":"m 335 -150 b 79 217 174 -150 79 -12 b 335 586 79 449 174 586 b 592 217 497 586 592 449 b 335 -150 592 -12 497 -150 m 335 -75 b 504 217 446 -75 504 32 b 335 508 504 401 446 508 b 165 217 225 508 165 404 b 335 -75 165 32 225 -75 "},"₁":{"ha":431,"x_min":0,"x_max":0,"o":"m 72 399 b 56 408 61 392 56 396 l 56 457 b 65 474 56 464 58 469 l 218 568 b 236 574 225 572 232 574 l 289 574 b 303 560 299 574 303 569 l 303 -125 b 289 -139 303 -135 299 -139 l 232 -139 b 218 -125 222 -139 218 -135 l 218 483 "},"₂":{"ha":606,"x_min":0,"x_max":0,"o":"m 201 -60 l 521 -60 b 535 -74 531 -60 535 -64 l 535 -125 b 521 -139 535 -135 531 -139 l 89 -139 b 75 -125 79 -139 75 -135 l 75 -86 b 82 -69 75 -79 78 -74 l 347 208 b 436 382 407 268 436 326 b 300 508 436 458 382 508 b 163 413 232 508 178 469 b 146 400 160 403 154 399 l 92 408 b 81 425 82 410 78 415 b 303 586 103 524 192 586 b 521 385 435 586 521 507 b 414 165 521 300 482 239 "},"₃":{"ha":649,"x_min":0,"x_max":0,"o":"m 346 300 b 565 79 478 290 565 206 b 496 -86 565 11 542 -43 b 321 -150 450 -129 392 -150 b 82 51 189 -150 94 -69 b 93 67 81 60 83 65 l 150 78 b 165 65 160 79 165 75 b 321 -75 172 -18 238 -75 b 482 82 414 -75 482 -11 b 347 231 482 165 429 219 b 274 235 329 233 306 235 l 267 235 b 250 246 258 235 253 239 l 238 282 b 242 301 235 289 236 296 l 438 499 l 138 499 b 124 513 128 499 124 503 l 124 560 b 138 574 124 569 128 574 l 524 574 b 538 560 533 574 538 569 l 538 501 b 531 485 538 494 535 489 "},"₄":{"ha":686,"x_min":0,"x_max":0,"o":"m 499 143 l 608 143 b 622 129 618 143 622 139 l 622 86 b 608 72 622 76 618 72 l 499 72 l 499 -125 b 485 -139 499 -135 494 -139 l 432 -139 b 418 -125 422 -139 418 -135 l 418 72 l 78 72 b 64 86 68 72 64 76 l 64 128 b 69 146 64 135 65 142 l 378 565 b 396 574 382 571 388 574 l 485 574 b 499 560 494 574 499 569 m 157 143 l 418 143 l 418 500 "},"₅":{"ha":651,"x_min":0,"x_max":0,"o":"m 336 317 b 504 251 404 317 460 294 b 571 85 549 208 571 153 b 499 -85 571 15 547 -42 b 321 -150 451 -128 392 -150 b 83 38 197 -150 100 -74 b 94 54 82 47 86 53 l 150 65 b 165 54 158 67 164 64 b 321 -75 178 -28 239 -75 b 483 86 417 -75 483 -10 b 324 243 483 179 419 243 b 185 183 264 243 217 224 b 167 176 179 178 174 175 l 111 185 b 100 200 101 186 99 192 l 171 561 b 186 574 172 569 176 574 l 531 574 b 544 560 540 574 544 569 l 544 513 b 531 499 544 503 540 499 l 239 499 l 194 272 b 336 317 231 301 278 317 "},"₆":{"ha":646,"x_min":0,"x_max":0,"o":"m 338 322 b 511 257 408 322 465 300 b 579 89 557 214 579 157 b 507 -82 579 19 556 -37 b 324 -150 458 -128 397 -150 b 146 -83 250 -150 192 -128 b 79 86 101 -40 79 17 b 94 179 79 117 85 147 b 124 250 106 211 115 235 l 163 311 l 329 564 b 346 574 333 571 339 574 l 407 574 b 417 557 418 574 422 567 l 249 306 b 338 322 274 317 303 322 m 325 -75 b 494 89 424 -75 494 -6 b 332 249 494 183 425 249 b 164 86 236 249 164 182 b 325 -75 164 -8 231 -75 "},"₇":{"ha":542,"x_min":0,"x_max":0,"o":"m 44 560 b 58 574 44 569 49 574 l 483 574 b 497 560 493 574 497 569 l 497 514 b 493 497 497 510 496 504 l 203 -129 b 188 -139 200 -136 194 -139 l 125 -139 b 114 -122 113 -139 110 -133 l 403 499 l 58 499 b 44 513 49 499 44 503 "},"₈":{"ha":653,"x_min":0,"x_max":0,"o":"m 450 240 b 575 58 528 213 575 140 b 504 -93 575 -4 551 -56 b 328 -150 458 -131 399 -150 b 149 -93 257 -150 197 -131 b 78 58 101 -56 78 -4 b 204 240 78 143 128 211 b 103 400 142 272 103 332 b 326 586 103 510 194 586 b 550 400 458 586 550 510 b 450 240 550 329 511 269 m 325 510 b 185 394 242 510 185 463 b 328 276 185 324 243 276 b 467 393 410 276 467 325 b 325 510 467 464 410 510 m 328 -75 b 490 64 421 -75 490 -21 b 326 199 490 147 421 199 b 163 64 232 199 163 147 b 328 -75 163 -21 238 -75 "},"₉":{"ha":663,"x_min":0,"x_max":0,"o":"m 336 586 b 513 519 408 586 467 564 b 582 349 558 475 582 418 b 565 256 582 318 576 288 b 536 185 556 224 546 200 b 497 124 528 169 515 150 l 331 -129 b 314 -139 326 -136 321 -139 l 253 -139 b 243 -122 242 -139 238 -129 l 413 129 b 321 111 386 117 356 111 b 149 176 251 111 194 133 b 81 344 103 221 81 276 b 153 518 81 415 104 472 b 336 586 201 564 263 586 m 329 186 b 497 349 425 186 497 253 b 333 508 497 444 428 508 b 167 344 235 508 167 439 b 329 186 167 250 235 186 "},"₊":{"ha":713,"x_min":0,"x_max":0,"o":"m 588 308 b 601 294 597 308 601 304 l 601 265 b 588 251 601 256 597 251 l 388 251 l 388 47 b 374 33 388 38 383 33 l 340 33 b 326 47 331 33 326 38 l 326 251 l 125 251 b 111 265 115 251 111 256 l 111 294 b 125 308 111 304 115 308 l 326 308 l 326 511 b 340 525 326 521 331 525 l 374 525 b 388 511 383 525 388 521 l 388 308 "},"₋":{"ha":581,"x_min":0,"x_max":0,"o":"m 456 308 b 469 294 465 308 469 304 l 469 265 b 456 251 469 256 465 251 l 125 251 b 111 265 115 251 111 256 l 111 294 b 125 308 111 304 115 308 "},"₌":{"ha":733,"x_min":0,"x_max":0,"o":"m 532 539 b 546 525 542 539 546 535 l 546 496 b 532 482 546 486 542 482 l 201 482 b 188 496 192 482 188 486 l 188 525 b 201 539 188 535 192 539 m 532 339 b 546 325 542 339 546 335 l 546 296 b 532 282 546 286 542 282 l 201 282 b 188 296 192 282 188 286 l 188 325 b 201 339 188 335 192 339 "},"₪":{"ha":954,"x_min":0,"x_max":0,"o":"m 124 0 b 110 14 114 0 110 4 l 110 939 b 124 953 110 949 114 953 l 354 953 b 626 688 538 953 626 854 l 626 313 b 613 299 626 303 622 299 l 564 299 b 550 313 554 299 550 303 l 550 689 b 347 883 550 818 482 883 l 188 883 l 188 14 b 174 0 188 4 183 0 m 600 0 b 328 265 417 0 328 99 l 328 640 b 342 654 328 650 332 654 l 390 654 b 404 640 400 654 404 650 l 404 264 b 608 69 404 135 472 69 l 767 69 l 767 939 b 781 953 767 949 771 953 l 831 953 b 844 939 840 953 844 949 l 844 14 b 831 0 844 4 840 0 "},"€":{"ha":882,"x_min":0,"x_max":0,"o":"m 613 829 b 236 593 424 829 288 743 l 606 593 b 617 578 617 593 621 588 l 608 540 b 593 528 607 532 601 528 l 221 528 b 214 444 217 499 214 471 b 219 368 214 415 215 389 l 564 368 b 575 353 574 368 576 363 l 567 314 b 551 301 565 306 560 301 l 235 301 b 615 60 286 146 425 60 b 742 75 664 60 706 65 b 757 63 751 78 757 74 l 757 19 b 746 4 757 11 753 6 b 604 -14 706 -8 658 -14 b 151 301 375 -14 206 106 l 88 301 b 74 315 78 301 74 306 l 74 354 b 88 368 74 364 78 368 l 138 368 b 132 444 133 390 132 415 b 138 528 132 476 133 504 l 88 528 b 74 542 78 528 74 532 l 74 579 b 88 593 74 589 78 593 l 153 593 b 603 904 208 786 376 904 b 746 886 651 904 700 899 b 757 871 753 885 757 879 l 757 828 b 746 814 757 818 753 813 b 613 829 708 824 664 829 "},"₹":{"ha":801,"x_min":0,"x_max":0,"o":"m 711 890 b 725 876 721 890 725 886 l 725 832 b 711 818 725 822 721 818 l 489 818 b 571 668 536 783 564 733 l 711 668 b 725 654 721 668 725 664 l 725 610 b 711 596 725 600 721 596 l 572 596 b 296 374 557 458 453 375 b 279 375 289 374 283 374 l 243 382 l 514 17 b 506 0 521 10 517 0 l 428 0 b 410 8 419 0 414 3 l 136 382 b 131 400 132 386 131 393 l 131 432 b 144 446 131 442 135 446 l 283 446 b 486 596 399 446 474 500 l 144 596 b 131 610 135 596 131 600 l 131 654 b 144 668 131 664 135 668 l 486 668 b 283 818 474 764 396 818 l 144 818 b 131 832 135 818 131 822 l 131 876 b 144 890 131 886 135 890 "},"№":{"ha":1650,"x_min":0,"x_max":0,"o":"m 1203 308 b 992 394 1122 308 1051 338 b 901 607 932 453 901 524 b 990 814 901 689 931 758 b 1203 899 1050 871 1121 899 b 1415 815 1286 899 1357 871 b 1503 607 1474 760 1503 690 b 1415 394 1503 522 1474 451 b 1203 308 1357 338 1286 308 m 160 0 b 146 14 150 0 146 4 l 146 876 b 160 890 146 886 150 890 l 210 890 b 226 882 217 890 222 888 l 717 142 l 717 876 b 731 890 717 886 721 890 l 778 890 b 792 876 788 890 792 886 l 792 14 b 778 0 792 4 788 0 l 728 0 b 711 8 721 0 715 3 l 221 750 l 221 14 b 207 0 221 4 217 0 m 1203 382 b 1363 446 1265 382 1319 403 b 1429 607 1407 489 1429 542 b 1363 765 1429 671 1407 724 b 1203 828 1318 807 1265 828 b 1043 765 1140 828 1088 807 b 976 607 999 724 976 671 b 1043 447 976 544 999 492 b 1203 382 1089 404 1142 382 m 1028 122 b 1014 136 1018 122 1014 126 l 1014 171 b 1028 185 1014 181 1018 185 l 1378 185 b 1392 171 1388 185 1392 181 l 1392 136 b 1378 122 1392 126 1388 122 "},"℗":{"ha":1071,"x_min":0,"x_max":0,"o":"m 535 -17 b 194 113 399 -17 285 26 b 60 446 104 199 60 310 b 194 778 60 582 104 693 b 535 907 285 864 399 907 b 875 778 671 907 785 864 b 1013 446 967 693 1013 582 b 876 113 1013 310 967 199 b 535 -17 786 26 672 -17 m 247 164 b 535 56 324 92 419 56 b 822 164 650 56 746 92 b 938 446 899 238 938 331 b 822 726 938 561 899 654 b 535 836 746 800 650 836 b 247 726 419 836 324 800 b 133 446 171 654 133 561 b 247 164 133 331 171 238 m 399 208 b 385 222 389 208 385 213 l 385 667 b 399 681 385 676 389 681 l 586 681 b 756 531 685 681 751 624 b 586 368 760 440 690 368 l 458 368 l 458 222 b 444 208 458 213 454 208 m 458 436 l 581 436 b 678 526 643 436 678 469 b 581 613 678 582 642 613 l 458 613 "},"™":{"ha":978,"x_min":0,"x_max":0,"o":"m 49 833 b 35 847 39 833 35 838 l 35 876 b 49 890 35 886 39 890 l 336 890 b 350 876 346 890 350 886 l 350 847 b 336 833 350 838 346 833 l 225 833 l 225 493 b 211 479 225 483 221 479 l 176 479 b 163 493 167 479 163 483 l 163 833 m 907 494 b 896 479 910 485 906 479 l 857 479 b 842 492 849 479 843 483 l 769 783 l 671 504 b 654 493 668 497 663 493 l 626 493 b 610 504 618 493 613 497 l 513 783 l 444 492 b 429 479 443 483 438 479 l 389 479 b 378 494 379 479 375 485 l 474 878 b 489 890 475 886 479 890 l 524 890 b 540 879 532 890 538 886 l 642 581 l 742 879 b 758 890 744 886 750 890 l 794 890 b 810 878 804 890 808 886 "}}}
